<?xml version="1.0" encoding="UTF-8"?>
<!DOCTYPE svg PUBLIC "-//W3C//DTD SVG 1.1//EN" "http://www.w3.org/Graphics/SVG/1.1/DTD/svg11.dtd">
<!-- Creator: CorelDRAW 2020 (64-Bit) -->
<svg xmlns="http://www.w3.org/2000/svg" xml:space="preserve" width="80mm" height="60mm" version="1.1" shape-rendering="geometricPrecision" text-rendering="geometricPrecision" image-rendering="optimizeQuality" fill-rule="evenodd" clip-rule="evenodd"
viewBox="0 0 8000 6000"
 xmlns:xlink="http://www.w3.org/1999/xlink"
 xmlns:xodm="http://www.corel.com/coreldraw/odm/2003">
 <g id="Layer_x0020_1">
  <metadata id="CorelCorpID_0Corel-Layer"/>
  <path fill="#FEFEFE" fill-opacity="0.509804" d="M1917.17 362.13c874.65,0 1583.7,666.21 1583.7,1488.03 0,821.81 -709.05,1488.03 -1583.7,1488.03 -874.66,0 -1583.71,-666.22 -1583.71,-1488.03 0,-821.82 709.05,-1488.03 1583.71,-1488.03z"/>
  <path fill="#FEFEFE" fill-opacity="0.509804" d="M3633.77 1885.88c447.8,0 810.82,341.09 810.82,761.84 0,420.75 -363.02,761.84 -810.82,761.84 -447.81,0 -810.82,-341.09 -810.82,-761.84 0,-420.75 363.01,-761.84 810.82,-761.84z"/>
  <path fill="#C1C3C5" fill-opacity="0.509804" d="M5933.35 774.26c951.71,0 1723.23,724.91 1723.23,1619.13 0,894.22 -771.52,1619.13 -1723.23,1619.13 -951.72,0 -1723.24,-724.91 -1723.24,-1619.13 0,-894.22 771.52,-1619.13 1723.24,-1619.13z"/>
 </g>
</svg>
