<?xml version="1.0" encoding="UTF-8"?>
<!DOCTYPE svg PUBLIC "-//W3C//DTD SVG 1.1//EN" "http://www.w3.org/Graphics/SVG/1.1/DTD/svg11.dtd">
<!-- Creator: CorelDRAW 2020 (64-Bit) -->
<svg xmlns="http://www.w3.org/2000/svg" xml:space="preserve" width="80mm" height="40mm" version="1.1" shape-rendering="geometricPrecision" text-rendering="geometricPrecision" image-rendering="optimizeQuality" fill-rule="evenodd" clip-rule="evenodd"
viewBox="0 0 8000 4000"
 xmlns:xlink="http://www.w3.org/1999/xlink"
 xmlns:xodm="http://www.corel.com/coreldraw/odm/2003">
 <defs>
      <clipPath id="id0">
       <path d="M6133.38 1413.22l0 0c-166.84,261.93 -513.49,530.8 -1136.26,821.03l0 873.12 1825.62 0 0 -873.12 -108.76 -910.86 -580.6 89.83z"/>
      </clipPath>
 </defs>
 <g id="Layer_x0020_1">
  <metadata id="CorelCorpID_0Corel-Layer"/>
  <g id="_1439839168480">
   <g>
    <path fill="#373435" stroke="#373435" stroke-width="20" stroke-miterlimit="22.9256" d="M3664.45 2698.75l765.06 0c189.33,102.92 300.54,465.9 529.38,722.14l-1684.04 -6.74 99.06 -207.14 -3167.54 -14.45c76.39,-50.47 -134.55,-137.28 264.16,-190 327.93,-43.37 1760.56,-17.44 2997.62,-13.02 83.62,-12.53 53.08,-179.43 196.3,-290.79z"/>
    <rect fill="white" x="543.01" y="3078.6" width="229.52" height="30.39"/>
    <rect fill="white" x="933.18" y="3078.6" width="229.52" height="30.39"/>
    <rect fill="white" x="1323.35" y="3078.6" width="229.52" height="30.39"/>
    <g>
     <rect fill="white" x="1713.53" y="3078.6" width="229.52" height="30.39"/>
     <rect fill="white" x="2103.7" y="3078.6" width="229.52" height="30.39"/>
     <rect fill="white" x="2493.87" y="3078.6" width="229.52" height="30.39"/>
     <rect fill="white" x="2884.05" y="3078.6" width="229.52" height="30.39"/>
     <rect fill="white" x="3274.22" y="3078.6" width="229.52" height="30.39"/>
     <rect fill="white" transform="matrix(2.51455E-14 -0.673124 0.949442 1.78274E-14 4045.37 3241.11)" width="241.74" height="64.47"/>
     <rect fill="white" transform="matrix(2.51455E-14 -0.471396 0.949442 1.24847E-14 4045.37 2998.62)" width="241.74" height="64.47"/>
     <rect fill="white" transform="matrix(2.51455E-14 -0.471396 0.949442 1.24847E-14 4045.37 2804.9)" width="241.74" height="64.47"/>
    </g>
   </g>
   <g>
    <path fill="#715D5D" d="M1898.97 2740.04l-6.35 17.58c-14.04,4.26 -75.13,2.24 -121.13,1.84l0.14 -23.11 124.02 2.54c0.63,-0.95 2.19,0.65 3.32,1.15zm-1328.1 -3.68l148.29 0.56 0.71 22.62 -149.45 -0.64 0.45 -22.54zm1326.56 -54.58l0.76 40.89 -126.88 0.05 0.1 -45.03 -12.88 1.98 0.43 -10.87c-6.69,8.12 -10.31,9.85 -26.52,9.02l-0.13 23.09 -0.1 58.56c-7.06,-0.39 -15.26,0.44 -21.52,-0.3 -16.69,-1.98 -4.33,2.55 -14.98,-4.78 -14.66,11.46 -233.86,5.31 -246.34,4.71l-252 1.1 -72.26 0.05 -211.22 -0.35 -37.88 0.65 -142.36 -1.37 0.12 -77.38c12.65,-8.45 16.2,-3.57 17.75,-25.06 0.89,-12.24 0.51,-29.95 -5.5,-40.21 -7.19,14.3 -20.58,33.08 -25.66,45.99 -6.12,15.58 -0.03,40.09 -1.16,60.53l-148.92 -0.17c-1.34,-48.45 5.48,-40.37 -7.78,-44.52 -9.49,4.72 -5.89,-0.68 -6.45,17.55l0.74 44.34c-0.25,4.25 -0.36,6.23 -1.42,10.37 -2.48,9.66 0.56,2.87 -4.39,9.03 -30.89,-0.53 -73.09,-6.29 -87.9,12.84 -20.6,26.6 4.39,48.05 34.54,48.86 468.84,12.55 970.49,-4.05 1431.99,2.01 30.78,0.41 61.81,-2.83 68.8,-19.38 21.88,-51.81 -50.15,-44.51 -83.9,-44.56l0.25 -77.62c0.89,-0.48 2.22,-0.86 2.82,-1.16 28.27,-14.6 10.55,-63.5 10.45,-63.64 -10.72,13.99 -29.29,44.9 -30.6,64.78z"/>
    <path fill="#E5AB4A" d="M1449.37 2759.1c12.48,0.6 231.68,6.75 246.34,-4.71 -7.66,-16.49 -25.56,-32.63 -30.29,-45.3 -12.05,-7.27 -31.08,-32.06 -73.41,-60 -18.35,-11.38 -49.86,-22.96 -63.7,-31.92l-52.56 -12.36 -28.64 -1.08c0.17,42.84 -4.55,116.59 2.26,155.37z"/>
    <path fill="#FDD38D" d="M1350.46 2624.45l-49.38 25.27c-9.32,6.41 -26.63,21.58 -36.12,25.93 -24.33,26.4 -50.81,44.64 -67.59,84.55l252 -1.1c-6.81,-38.78 -2.09,-112.53 -2.26,-155.37l-10.27 0.42c-29.6,3.25 -62.84,8.59 -86.38,20.3z"/>
    <path fill="#98340B" d="M1654.81 2565.87l51.52 -0.91 0.24 95.17 -51.32 -0.42 -0.44 -93.84zm-62.8 83.22c42.33,27.94 61.36,52.73 73.41,60l0.2 0.23 61.88 -1.7 4.81 -6.71 0.13 -23.09 -10.45 -2.17 31.76 -62.44c0.55,-0.21 6.84,-2.07 7.27,-2.25 3.71,-1.62 2.98,4.7 6.27,-3.46 7.31,-18.14 1.91,-56.84 1.6,-78.56 -38.79,10.37 -127.92,-1.1 -175.51,4.36l-1.37 115.79z"/>
    <path fill="#FDD593" d="M1022.7 2650.42c-5.45,11.31 -20.58,14.41 -32.21,22.45 -9.92,6.85 -20.09,15.27 -29.01,23.32 -15.95,14.4 -40.76,38.96 -47.59,63.71l211.22 0.35 -1.49 -130.08c-27.66,-0.41 -34.02,1.3 -55.32,7.84 -13.96,4.3 -35.04,11.68 -45.6,12.41z"/>
    <path fill="#EA5E28" d="M1236.23 2659.63c7.67,10.01 15.35,15.73 28.73,16.02 9.49,-4.35 26.8,-19.52 36.12,-25.92 -5.6,-10.44 -3.35,-28.67 -3.26,-40.72 0.11,-13.96 -0.06,-27.92 -0.05,-43.54l52.76 -0.71 -0.07 59.69c23.54,-11.72 56.78,-17.05 86.38,-20.3l-22.11 0.02 -0.47 -225.32c-30.21,-1.86 -155.78,149.97 -179.37,155.55l1.34 125.23z"/>
    <path fill="#E5AB4A" d="M1125.11 2760.25l72.26 -0.05c16.78,-39.91 43.26,-58.15 67.59,-84.55 -13.38,-0.29 -21.06,-6.01 -28.73,-16.02 -14.62,-2.74 -33.1,-14 -51.79,-20.33 -18.92,-6.41 -37.25,-10.13 -60.82,-9.13l1.49 130.08z"/>
    <path fill="#A67707" d="M1436.84 2604.15l10.27 -0.43 28.64 1.09 0.85 -38.14 52.26 -2.05 -0.55 52.56c13.84,8.95 45.36,20.53 63.7,31.92l1.37 -419.37 -179.42 -0.81 0.77 375.25 22.11 -0.02z"/>
    <path fill="#FAFAFA" d="M1788.91 2678.2l-17.5 -0.51 -0.1 45.03 126.88 -0.05 -0.76 -40.89c-18.69,-7.81 -23.35,-5.65 -38.74,-2.25l-30.67 0.06c-10.79,-2.82 -8.15,-3.09 -15.2,-2.76l-23.91 1.37z"/>
    <polygon fill="#341408" points="1655.25,2659.71 1706.57,2660.13 1706.33,2564.96 1654.81,2565.87 "/>
    <path fill="#753518" stroke="#BDBFC1" stroke-width="20" stroke-miterlimit="22.9256" d="M1301.08 2649.72l49.38 -25.27 0.07 -59.69 -52.77 0.71c-0.01,15.62 0.17,29.58 0.06,43.54 -0.09,12.05 -2.34,30.28 3.26,40.71z"/>
    <path fill="#FDFDFD" d="M1771.49 2759.46c46,0.4 107.09,2.42 121.13,-1.84l6.35 -17.58c-1.13,-0.5 -2.69,-2.1 -3.32,-1.15l-124.02 -2.54 -0.14 23.11z"/>
    <path fill="#4E230D" d="M1665.42 2709.09c4.73,12.67 22.63,28.81 30.29,45.3 10.65,7.33 -1.71,2.8 14.98,4.78 6.26,0.74 14.46,-0.09 21.52,0.3l0.1 -58.56 -4.81 6.71 -61.88 1.7 -0.2 -0.23z"/>
    <polygon fill="#551A05" points="1475.75,2604.81 1528.31,2617.18 1528.86,2328.51 1476.6,2566.67 "/>
    <path fill="#C70506" d="M605.76 2610.47c-2.9,22.47 -23.32,44.59 -30.47,65.95l32.68 0.91c9.12,-12.8 28.48,-49.37 34.47,-65.58l-36.68 -1.28z"/>
    <path fill="#C70506" d="M675.12 2611.2c-1.51,24.3 -24.07,42.25 -28.79,65.99l33.05 -0.22 33.86 -63.56 -38.12 -2.21z"/>
    <path fill="#E4E3E3" d="M1732.43 2677.82c16.23,0.84 182.4,8.47 189.09,0.35 8.73,-19.53 17.8,-45.99 19.31,-67.23l-170.68 -0.51 -16.41 2.79 -31.75 62.43 10.44 2.17z"/>
    <path fill="#B10E0F" d="M539.71 2612.66l-1.4 57.7c13.69,-11.35 32.33,-45.52 31.49,-64.98 -4.08,-11.13 1.85,-2.68 -7.3,-7.27 -14.18,10 3.5,14.06 -22.79,14.55z"/>
    <g>
     <g>
      <path fill="#727376" d="M921.54 2732.51l0.59 48.56 -47.98 0 47.39 -48.56zm-63.6 32.35l-0.57 -34.16 33.58 0 -33.01 34.16zm64.19 -110.91l0 55.16 -52.77 0c8.63,-12.89 13.64,-17.23 24.58,-28.18 9.28,-9.27 17.76,-20 28.19,-26.98zm-64.18 34.16l-0.58 -36.56 35.97 0 -35.39 36.56zm63.59 -111.5l0.59 53.35 -52.77 0 52.18 -53.35zm-64.17 34.17l0 -35.98 33.58 0c-1.78,2.65 -31.54,34.48 -33.58,35.98zm64.76 -112.74l0 55.17 -52.77 0c3.86,-5.77 7.37,-8.58 12.62,-13.76 10.39,-10.25 22.61,-29.67 40.15,-41.41zm-64.18 34.16l-0.58 -36.55 35.97 0 -35.39 36.55zm63.59 -111.5l0.59 53.36 -52.77 0 52.18 -53.36zm-64.17 34.17l0 -35.98 33.58 0c-5.16,7.7 -25.44,30.53 -33.58,35.98zm64.76 -112.73l0 55.16 -52.77 0c2.68,-4 49.38,-52.9 52.77,-55.16zm-64.18 34.16l-0.58 -36.56 35.97 0 -35.39 36.56zm63.59 -111.5l0.59 53.35 -52.77 0 52.18 -53.35zm-63.59 34.75l-0.58 -36.56 35.97 0 -35.39 36.56zm63.59 -111.51l0.59 53.36 -52.77 0 52.18 -53.36zm-63.59 32.35l-0.58 -36.56 35.97 0 -35.39 36.56zm63.59 -111.5l0.59 53.36 -52.77 0 52.18 -53.36zm-63.59 34.75l-0.58 -36.56 35.97 0 -35.39 36.56zm63.59 -111.5l0.59 53.36 -52.77 0 52.18 -53.36zm-63.6 32.35l-0.57 -34.16 33.58 0 -33.01 34.16zm64.19 -110.92l0 55.17 -52.77 0c8.81,-13.16 40.11,-46.69 52.77,-55.17zm-64.18 34.16l-0.58 -36.56 35.97 0 -35.39 36.56zm63.59 -111.49l0.59 53.35 -52.77 0 52.18 -53.35zm-64.17 34.16l0 -35.98 33.58 0c-1.88,2.81 -31.55,34.62 -33.58,35.98zm64.76 -112.73l0 55.17 -52.77 0c6.51,-9.72 16.52,-16.8 25,-27.78 6.51,-8.43 19.7,-21.99 27.77,-27.39zm-64.18 34.16l-0.58 -36.56 35.97 0 -35.39 36.56zm63.59 -111.5l0.59 53.35 -52.77 0 52.18 -53.35zm-64.17 34.16l0 -35.97 33.58 0c-6.53,9.74 -24.09,29.62 -33.58,35.97zm64.76 -112.73l0 55.17 -52.77 0c2.36,-3.53 49.99,-53.31 52.77,-55.17zm-64.18 34.16l-0.58 -36.56 35.97 0 -35.39 36.56zm63.59 -111.5l0.59 53.36 -52.77 0 52.18 -53.36zm-63.59 34.75l-0.58 -36.56 35.97 0 -35.39 36.56zm63.59 -111.5l0.59 53.35 -52.77 0 52.18 -53.35zm-63.59 32.35l-0.58 -36.56 35.97 0 -35.39 36.56zm64.18 -110.92l0 55.17 -52.77 0c2.79,-10.47 16.93,-20.53 24.58,-28.18 9.28,-9.28 17.76,-20 28.19,-26.99zm-328.6 -115.8l149.65 0 0.18 113.42 1.27 8.92 -150.69 0.02 -0.55 -8.95 0.14 -113.41zm264.42 149.97l-0.58 -36.56 35.97 0 -35.39 36.56zm63.59 -111.51l0.59 53.36 -52.77 0 52.18 -53.36zm-63.6 32.35l-0.57 -34.16 33.58 0 -33.01 34.16zm778.95 -108.51l34.16 33 -34.16 0.58 0 -33.58zm-79.15 -2.4l36.56 35.4 -36.56 0.58 0 -35.98zm-76.75 2.4l34.16 33 -34.16 0.58 0 -33.58zm-79.16 -2.4l36.56 35.4 -36.56 0.58 0 -35.98zm-76.75 2.4l34.16 33 -34.16 0.58 0 -33.58zm-79.15 -2.4l36.56 35.4 -36.56 0.58 0 -35.98zm-76.75 2.4c4.39,2.94 33.3,29.58 35.97,33.58l-35.97 0 0 -33.58zm-79.16 0c8.9,2.37 12.54,8.91 18.59,14.99 6.46,6.49 12.54,11.34 17.39,18.59l-35.98 0 0 -33.58zm-50.9 23.45l10.66 9.59 -19.72 0.54 9.06 -10.13zm-95.41 -16.26l26.96 25.82 -26.96 0.57 0 -26.39zm-86.34 -9.59l36.56 35.4 -36.56 0.58 0 -35.98zm-76.76 2.4l34.16 33 -34.16 0.58 0 -33.58zm-74.35 -12l41.33 42.63 -89.3 0.55c8.28,-7.2 15.2,-14.04 23.35,-22.22 5.14,-5.17 5.78,-5.44 11.6,-9.98 5.89,-4.6 7.39,-7.21 13.02,-10.98zm364.58 4.8l0 28.79c-9.32,-2.49 -8.95,-6.74 -16.79,-12 3.93,-5.87 9.69,-14.89 16.79,-16.79zm-57.57 23.99l0 -16.79c5.71,3.82 2.5,2.9 9.6,4.79 -2.17,8.1 -3.44,7.72 -9.6,12zm-422.14 -19.19l0 0zm436.09 -16.37l22.03 -0.42 -11.45 12.54 -10.58 -12.12zm-344.95 -2.82c-10.57,15.78 -43.85,34.03 -47.78,51.62 -0.03,0.17 -0.02,0.8 -0.19,1.15 -10.41,0 -20.85,-0.1 -31.26,-0.08 -14.47,0.02 -17.42,2.48 -31.1,2.48l110.33 -55.17zm184.69 -4.8c11.54,-7.72 11.05,-4.79 38.38,-4.79 14.71,0 9.59,39.9 9.59,55.16 -9.43,-6.31 -16.24,-15.04 -24.59,-23.38 -13.07,-13.08 -16.63,-14.14 -23.38,-26.99zm-184.69 4.8l0 0zm954.62 -9.59c68.31,0 50.61,-7.59 93.09,19.65l67.61 45.11 -84.15 0.2c-17.51,-0.35 -23.15,-12.76 -47.17,-36.78l-29.38 -28.18zm-77.34 0.58l55.75 -0.58 0 55.16 -55.75 -54.58zm-76.75 0l53.35 -0.58 0 52.77 -53.35 -52.19zm-79.15 0l55.75 -0.58 0 55.16 -55.75 -54.58zm-76.76 0l53.36 -0.58 0 52.77 -53.36 -52.19zm-78.56 -0.58l55.17 0 0 52.77 -28.21 -24.57c-9.23,-9.34 -19.96,-17.75 -26.96,-28.2zm-77.34 0.58l53.35 -0.58 0 52.77 -53.35 -52.19zm-78.57 -0.58l55.17 0 0 52.77c-10.47,-7.02 -17.41,-16.99 -26.95,-25.82 -10.21,-9.44 -20.33,-15.17 -28.22,-26.95zm-155.9 0l55.16 0 0 52.77c-3.16,-2.12 -53.2,-50.1 -55.16,-52.77zm-154.1 0.58l53.36 -0.58 0 52.77 -53.36 -52.19zm-67.15 0l43.75 -0.58 0 43.17 -43.75 -42.59zm187.67 -26.97l0 4.8 -7.2 0c3.78,-5.44 0.45,-2.8 7.2,-4.8zm-311.81 55.17l104.88 -101.39c6.52,-6.27 10.34,-7.81 16.89,-14.29 9.77,-9.67 18.63,-19.9 28.75,-28.81l31.17 -28.81c9.4,-9.46 54.55,-52.51 62.96,-56.96l0 179.89c-27.71,0 -127.35,-4.43 -144.02,2.29 -24.36,9.81 -84.27,44.27 -100.63,48.08zm275.83 -50.37l-9.59 0 0 -62.36c14.54,9.74 20.1,24.55 33.58,33.58 -6.79,10.12 -20.58,16.02 -23.99,28.78zm-9.59 -136.72l21.94 62.25c-4.89,-2.92 -18.57,-14.71 -20.76,-20.25 -3.35,-8.46 -1.18,-31.53 -1.18,-42zm7.19 -55.16l559.85 142.92c15.37,3.87 179.58,44.83 186.1,48.96l-685.99 0c-1.28,-15.44 -9.48,-34.26 -14.09,-48.27 -7.62,-23.18 -44,-129.06 -45.87,-143.61zm-45.57 -45.58l0 -2.4c0,-13.32 7.93,-19.3 16.79,-23.98l0 50.37c-8.86,-4.69 -16.79,-10.65 -16.79,-23.99zm21.59 -28.78c43.98,0 41.93,49.76 14.39,50.37 -3.53,-15.13 -13.97,-35.06 -14.39,-50.37zm-9.6 59.97c-11.52,7.71 -100.73,96.99 -115.83,109.62l-170.3 160.7c-13.48,11.27 -23.58,22.56 -34.41,27.95 -9.39,4.67 -21.82,8.52 -27.25,15.93l103.14 0 0 110.34 163.1 0 0 -110.34 86.35 0 0 1491.9 107.93 0 0 -1491.9 925.84 0c-1.97,-1.71 -2.55,-2.27 -5.3,-4.29l-18.69 -12.5c-8.38,-5.59 -15.31,-10.45 -24.74,-16.02l-99.02 -64.09c-12.7,-8.56 -11.83,-9.14 -27.79,-12.98 -182.41,-43.8 -375.69,-96.89 -559.85,-142.92l-229.31 -58.52c-10.62,-2.66 -24.55,-7.44 -35.49,-7.68 7.54,-11.26 21.98,-29.86 2.89,-50.86 -29.39,-32.34 -81.62,11.96 -49.78,47.38 5.69,6.33 3.2,1.03 8.51,8.28z"/>
      <polygon fill="#4B4C4E" points="593.39,1406.71 593.94,1415.66 744.63,1415.64 743.36,1406.72 743.18,1293.3 593.53,1293.3 "/>
     </g>
     <g>
      <path fill="#6B809B" stroke="#373435" stroke-width="20" stroke-miterlimit="22.9256" d="M1753.44 2086.09l-147.93 0 0 -132.36 147.93 0 0 132.36zm116.79 -249.15l-365.94 0 0 342.58 365.94 0 0 -342.58z"/>
      <path fill="#6B809B" stroke="#373435" stroke-width="20" stroke-miterlimit="22.9256" d="M1701.52 1625.26l-70.5 0c-7.15,0 -12.99,-5.84 -12.99,-12.99l0 -67.31c0,-7.14 5.84,-12.99 12.99,-12.99l70.5 0c7.15,0 12.99,5.85 12.99,12.99l0 67.31c0,7.15 -5.84,12.99 -12.99,12.99zm-74.05 18.5l35.77 0c1.25,4.24 2.32,7.6 1.46,6.93 -12.52,-9.83 28.51,24.61 6.27,37.93 -22.24,13.32 -37.96,-16.32 -29.53,-0.89 18.69,34.19 73.53,13.65 34.57,-31.63 -0.85,-0.98 0.45,-6.56 1.79,-12.34l26.29 0c6.76,0 12.29,-5.53 12.29,-12.29l0 -91.76c0,-6.76 -5.53,-12.3 -12.29,-12.3l-76.62 0c-6.77,0 -12.3,5.54 -12.3,12.3l0 91.76c0,6.76 5.53,12.29 12.3,12.29z"/>
      <line fill="none" stroke="#373435" stroke-width="20" stroke-miterlimit="22.9256" x1="1635.84" y1="1300.15" x2="1635.84" y2= "1531.97" />
      <line fill="none" stroke="#373435" stroke-width="20" stroke-miterlimit="22.9256" x1="1713.65" y1="1300.15" x2="1714.52" y2= "1544.96" />
      <polyline fill="none" stroke="#373435" stroke-width="20" stroke-miterlimit="22.9256" points="1504.29,1836.94 1647.33,1695.71 1831.3,1836.94 "/>
     </g>
    </g>
    <path fill="#C70506" d="M1828.02 2679.59l30.67 -0.06c10.1,-19.93 24.71,-43.13 34.84,-67.63l-36.56 -1.36c-0.87,12.41 0.81,6.74 -6.27,19.73 -2.82,5.18 -5.16,8.85 -8.06,14.24 -6.95,12.94 -12.76,19.73 -14.62,35.08z"/>
    <path fill="#C70506" d="M1758.96 2668.8l-0.43 10.87 12.88 -1.98 17.5 0.51 34.25 -65.73 -37.86 -0.59c-1.51,21.23 -17.61,37.39 -26.34,56.92z"/>
   </g>
   <g>
    <g>
     <circle fill="#92AB2A" cx="4810.07" cy="2413.56" r="201.85"/>
     <circle fill="#92AB2A" cx="4673.51" cy="2694.16" r="89.52"/>
     <circle fill="#92AB2A" cx="4996.67" cy="2770.72" r="22.81"/>
     <path fill="#A67707" d="M4796.61 3029.19l22.57 3.37c-1.52,-197.51 3.51,-400.25 -4.56,-592.52l-6.49 7.84c-3.84,193.77 -7.68,387.54 -11.52,581.31z"/>
     <path fill="#A67707" d="M4809.77 2528.06l2.39 11.06c22.44,-7.11 44.03,-20.95 65.57,-28.86l-1.2 -0.71c-22.25,6.17 -44.51,12.34 -66.76,18.51z"/>
     <path fill="#A67707" d="M4814.35 2579.43l-4.39 18.47c-41.11,-29.74 -80.69,-71.19 -120.15,-101.74l2.18 -0.4c40.79,27.88 81.57,55.77 122.36,83.67z"/>
     <path fill="#A67707" d="M4813.61 2753.51l-4.39 19.45c-41.11,-20.58 -79.57,-48.45 -119.04,-70.21l1.07 -5.65c40.79,18.8 81.57,37.61 122.36,56.41z"/>
     <path fill="#A67707" d="M4812.52 2830.41l6.27 19.45c58.72,-20.58 113.64,-48.45 170.01,-70.21l-1.53 -5.65c-58.24,18.8 -116.5,37.61 -174.75,56.41z"/>
    </g>
    <g>
     <circle fill="#92AB2A" cx="6955.2" cy="2206.61" r="201.85"/>
     <circle fill="#92AB2A" cx="6818.64" cy="2487.21" r="89.52"/>
     <circle fill="#92AB2A" cx="7141.8" cy="2563.77" r="22.81"/>
     <path fill="#A67707" d="M6941.74 2822.24l22.57 3.37c-1.52,-197.51 3.51,-400.25 -4.56,-592.52l-6.49 7.84c-3.84,193.77 -7.68,387.54 -11.52,581.31z"/>
     <path fill="#A67707" d="M6954.9 2321.11l2.39 11.06c22.44,-7.11 44.03,-20.95 65.57,-28.86l-1.2 -0.71c-22.25,6.17 -44.51,12.34 -66.76,18.51z"/>
     <path fill="#A67707" d="M6959.48 2372.48l-4.39 18.47c-41.11,-29.74 -80.69,-71.19 -120.15,-101.74l2.18 -0.4c40.79,27.88 81.57,55.77 122.36,83.67z"/>
     <path fill="#A67707" d="M6958.74 2546.56l-4.39 19.45c-41.11,-20.58 -79.57,-48.45 -119.04,-70.21l1.07 -5.65c40.79,18.8 81.57,37.61 122.36,56.41z"/>
     <path fill="#A67707" d="M6957.65 2623.46l6.27 19.45c58.72,-20.58 113.64,-48.45 170.01,-70.21l-1.53 -5.65c-58.24,18.8 -116.5,37.61 -174.75,56.41z"/>
    </g>
    <g>
     <circle fill="#92AB2A" cx="7373.67" cy="2222.88" r="366.49"/>
     <circle fill="#92AB2A" cx="7621.62" cy="2732.36" r="162.54"/>
     <circle fill="#92AB2A" cx="7034.86" cy="2871.38" r="41.41"/>
     <path fill="#A67707" d="M7398.1 3340.68l-40.97 6.1c2.76,-358.6 -6.37,-726.71 8.27,-1075.81l11.79 14.22c6.97,351.83 13.94,703.66 20.91,1055.49z"/>
     <path fill="#A67707" d="M7374.22 2430.78l-4.35 20.07c-40.73,-12.9 -79.94,-38.03 -119.04,-52.4l2.16 -1.28c40.41,11.2 80.82,22.41 121.23,33.61z"/>
     <path fill="#A67707" d="M7365.89 2524.04l7.98 33.55c74.65,-54.01 146.5,-129.27 218.16,-184.73l-3.97 -0.74c-74.05,50.64 -148.11,101.28 -222.17,151.92z"/>
     <path fill="#A67707" d="M7367.24 2840.12l7.97 35.32c74.65,-37.37 144.47,-87.98 216.13,-127.47l-1.93 -10.26c-74.05,34.14 -148.11,68.27 -222.17,102.41z"/>
     <path fill="#A67707" d="M7369.22 2979.75l-11.39 35.32c-106.61,-37.37 -206.33,-87.98 -308.67,-127.48l2.76 -10.26c105.76,34.14 211.53,68.28 317.3,102.42z"/>
    </g>
    <g>
     <rect fill="#6B809B" x="5429.75" y="459.48" width="706.49" height="2647.89"/>
     <path fill="#6D8EBD" d="M6133.38 1413.22l0 0c-166.84,261.93 -513.49,530.8 -1136.26,821.03l0 873.12 1825.62 0 0 -873.12 -108.76 -910.86 -580.6 89.83z"/>
     <g clip-path="url(#id0)">
      <g>
       <rect fill="#163C59" x="6432.49" y="1669.34" width="162.11" height="234.56"/>
      </g>
     </g>
     <path fill="none" d="M6133.38 1413.22l0 0c-166.84,261.93 -513.49,530.8 -1136.26,821.03l0 873.12 1825.62 0 0 -873.12 -108.76 -910.86 -580.6 89.83z"/>
     <rect fill="#163C59" x="5246.89" y="2596.06" width="162.11" height="234.56"/>
     <rect fill="#163C59" x="5246.89" y="2132.7" width="162.11" height="234.56"/>
     <rect fill="#163C59" x="5588.06" y="1549.34" width="162.11" height="234.56"/>
     <rect fill="#163C59" x="5588.06" y="1085.98" width="162.11" height="234.56"/>
     <rect fill="#163C59" x="5588.06" y="622.62" width="162.11" height="234.56"/>
     <rect fill="#163C59" x="5669.1" y="2596.06" width="162.11" height="234.56"/>
     <rect fill="#163C59" x="5669.1" y="2132.7" width="162.11" height="234.56"/>
     <rect fill="#163C59" x="6010.27" y="1669.34" width="162.11" height="234.56"/>
     <rect fill="#163C59" x="5880.27" y="1085.98" width="162.11" height="234.56"/>
     <rect fill="#163C59" x="5880.27" y="622.62" width="162.11" height="234.56"/>
     <rect fill="#163C59" x="6091.32" y="2596.06" width="162.11" height="234.56"/>
     <rect fill="#163C59" x="6091.32" y="2596.06" width="422.21" height="511.31"/>
     <rect fill="#163C59" x="6091.32" y="2132.7" width="162.11" height="234.56"/>
     <rect fill="#163C59" x="6513.53" y="2596.06" width="162.11" height="234.56"/>
     <rect fill="#163C59" x="6513.53" y="2132.7" width="162.11" height="234.56"/>
    </g>
    <g>
     <circle fill="#92AB2A" cx="5228.54" cy="2429.83" r="366.49"/>
     <circle fill="#92AB2A" cx="5476.49" cy="2939.31" r="162.54"/>
     <circle fill="#92AB2A" cx="4889.73" cy="3078.33" r="41.41"/>
     <path fill="#A67707" d="M5252.97 3547.63l-40.97 6.1c2.76,-358.6 -6.37,-726.71 8.27,-1075.81l11.79 14.22c6.97,351.83 13.94,703.66 20.91,1055.49z"/>
     <path fill="#A67707" d="M5229.09 2637.73l-4.35 20.07c-40.73,-12.9 -79.94,-38.03 -119.04,-52.4l2.16 -1.28c40.41,11.2 80.82,22.41 121.23,33.61z"/>
     <path fill="#A67707" d="M5220.76 2730.99l7.98 33.55c74.65,-54.01 146.5,-129.27 218.16,-184.73l-3.97 -0.74c-74.05,50.64 -148.11,101.28 -222.17,151.92z"/>
     <path fill="#A67707" d="M5222.11 3047.07l7.97 35.32c74.65,-37.37 144.47,-87.98 216.13,-127.47l-1.93 -10.26c-74.05,34.14 -148.11,68.27 -222.17,102.41z"/>
     <path fill="#A67707" d="M5224.09 3186.7l-11.39 35.32c-106.61,-37.37 -206.33,-87.98 -308.67,-127.48l2.76 -10.26c105.76,34.14 211.53,68.28 317.3,102.42z"/>
    </g>
   </g>
  </g>
  <g id="_1439839167376">
   <path fill="#00A652" d="M1352.74 177.22c323.07,0 646.14,125.08 969.2,0 436.99,-169.19 1002.84,173.91 1456.63,9.08 247.94,-90.06 579.5,-25.65 901.8,0.84 171.51,14.08 325.21,-25.02 496.06,-9.92l0 534.47c-188.27,0 -328.64,-7.99 -440.17,-19.11 -441.71,-44.04 -431.35,-137.16 -1153.13,22.73 -256.68,56.85 -831.91,-148.83 -1234.63,-26.36 -166.83,50.73 -818.73,22.74 -995.76,22.74l0 -534.47z"/>
   <path fill="#FFF212" fill-rule="nonzero" d="M1534.86 570.55c0,-36.67 0,-73.3 0,-109.97 0,-36.67 0,-73.3 0,-110 50.1,0.82 100.54,2.98 150.98,6.24 0,12.25 0,24.5 0,36.74 -35.64,-2.12 -71.29,-3.89 -106.6,-5.18 0,17.4 0,34.79 0,52.18 30.6,0.94 61.21,2.16 92.14,3.77 0,12.29 0,24.53 0,36.79 -30.93,-1.46 -61.54,-2.6 -92.14,-3.46 0,15.55 0,31.05 0,46.6 0,15.55 0,31.09 0,46.64 -14.79,-0.15 -29.59,-0.23 -44.38,-0.35zm227.32 6.95c-14.13,-0.67 -28.25,-1.3 -42.04,-1.92 0,-26.12 0,-52.22 0,-78.33 0,-26.07 0,-52.21 0,-78.32 12.78,0.9 25.89,1.88 39.01,2.86 0,7.35 0,14.73 0,22.07 6.72,-9.94 12.78,-16.38 18.16,-19.2 5.37,-2.83 11.44,-3.93 18.16,-3.41 9.75,0.74 18.83,4 27.91,9.77 -4.37,11.5 -8.74,23.05 -13.11,34.55 -7.07,-4.95 -13.8,-7.63 -19.85,-8.05 -5.71,-0.4 -10.83,0.7 -15.13,3.65 -4.11,2.83 -7.06,8.4 -9.42,16.53 -2.35,8.12 -3.69,25.44 -3.69,51.82 0,16.02 0,32 0,47.98zm171.5 -40.56c13.78,2.67 27.91,5.34 42.03,7.89 -5.38,14.41 -13.84,25.2 -25.55,32.59 -11.49,7.25 -26.24,10.75 -43.72,10.13 -27.58,-0.98 -48.23,-10.42 -61.54,-28.54 -10.57,-14.39 -15.81,-32.39 -15.81,-53.79 0,-25.44 7.06,-44.92 20.86,-58.34 13.78,-13.43 31.27,-19.34 52.45,-18.06 23.53,1.42 42.1,9.6 55.82,25.05 6.79,7.63 12.1,17.16 15.14,28.58 3.01,11.34 4.7,24.66 4.7,39.89 -35.31,-1.02 -70.61,-2.48 -105.59,-4.16 0.34,11.93 3.8,21.31 10.43,28.34 6.47,6.86 14.46,10.6 23.88,10.96 6.72,0.26 12.15,-1.16 16.81,-4.48 4.42,-3.15 7.73,-8.6 10.09,-16.06zm2.35 -40.32c-0.34,-11.54 -3.45,-20.45 -9.41,-26.81 -5.81,-6.2 -13.12,-9.67 -21.86,-10.17 -9.08,-0.52 -16.5,2.23 -22.54,8.28 -6.06,6.07 -9.07,14.64 -8.74,25.68 20.85,1.1 41.7,2.16 62.55,3.02zm168.47 40.68c13.79,1.45 27.91,2.78 42.04,4.12 -5.38,14.76 -13.85,26.19 -25.56,34.51 -11.48,8.16 -26.23,12.67 -43.71,13.11 -27.57,0.69 -48.24,-7.62 -61.54,-24.77 -10.57,-13.63 -15.81,-31.02 -15.81,-51.87 0,-24.81 7.11,-44.05 20.85,-57.94 13.83,-13.98 31.28,-20.86 52.46,-21.36 23.54,-0.56 42.1,5.75 55.82,19.59 6.79,6.84 12.1,15.83 15.13,26.89 3.02,11 4.71,24.07 4.71,39.22 -35.31,2.24 -70.62,3.54 -105.59,4.13 0.34,11.69 3.78,20.69 10.43,27.24 6.46,6.36 14.46,9.56 23.87,9.27 6.73,-0.22 12.17,-2.01 16.82,-5.58 4.43,-3.41 7.73,-9.03 10.08,-16.56zm2.36 -40.01c-0.34,-11.42 -3.46,-19.93 -9.42,-25.8 -5.81,-5.71 -13.11,-8.55 -21.86,-8.28 -9.07,0.28 -16.49,3.57 -22.52,9.85 -6.06,6.31 -9.08,14.89 -8.75,25.68 20.85,-0.2 41.7,-0.78 62.55,-1.45z"/>
   <path fill="#373435" d="M2269.95 530.29l24.57 32.67c43.35,-6.04 86.9,-11.65 130.45,-16.24 0,-12.45 0,-24.85 0,-37.26 -36.99,4.32 -73.64,9.42 -110.3,14.88 0,-28.86 0,-57.75 0,-86.65 0,-28.89 0,-57.79 0,-86.68 -15.13,3.26 -29.92,6.43 -44.72,9.61 0,34.32 0,68.63 0,102.95 0,22.23 0,44.48 0,66.72zm186.3 -169.9c0,-13.15 0,-26.34 0,-39.54 13.78,-1.96 27.91,-3.96 42.03,-5.96 0,13.34 0,26.69 0,40.04 -14.12,1.85 -28.25,3.65 -42.03,5.46zm0 183.15c0,-26.9 0,-53.83 0,-80.68 0,-26.9 0,-53.83 0,-80.72 13.78,-1.69 27.91,-3.46 42.03,-5.18 0,27.25 0,54.53 0,81.74 0,27.25 0,54.49 0,81.74 -14.12,1.02 -28.25,2.07 -42.03,3.1zm223.96 -129.75c-13.79,2.94 -27.58,6 -41.36,9.22 -1.35,-8.68 -4.36,-15.14 -9.42,-19.32 -5.02,-4.14 -11.44,-6.08 -19.17,-5.65 -10.76,0.59 -19.07,4.94 -25.22,12.96 -6.29,8.2 -9.41,21 -9.41,38.87 0,19.78 3.04,33.59 9.41,41.41 6.41,7.88 14.8,11.55 25.56,11.15 8.07,-0.3 14.39,-2.94 19.5,-7.81 5.31,-5.05 8.75,-13.35 10.76,-25.25 13.79,2.04 27.58,4.21 41.7,6.49 -4.37,20.33 -12.52,35.68 -24.89,46.32 -12.17,10.47 -28.58,15.87 -49.09,16.53 -23.21,0.75 -41.67,-5.96 -55.48,-20.57 -13.76,-14.55 -20.85,-35.18 -20.85,-62.11 0,-27.29 7.09,-49.06 20.85,-65.45 13.81,-16.46 32.61,-25.94 56.49,-27.4 19.16,-1.17 34.68,2.49 46.07,10.79 11.48,8.38 19.5,21.72 24.55,39.82zm124.42 66.58c13.79,3.06 27.91,6.12 42.03,9.19 -5.38,16.37 -14.06,28.75 -25.56,36.9 -11.69,8.3 -26.22,11.94 -43.71,11.58 -27.91,-0.57 -48.46,-10.38 -61.54,-29.79 -10.46,-15.53 -15.8,-35.11 -15.8,-58.74 0,-28.15 7.16,-50.25 20.84,-66.54 13.55,-16.13 30.95,-24.08 52.13,-23.87 23.54,0.22 42.43,9.18 56.16,26.65 6.78,8.63 11.78,19.55 14.79,32.55 3.03,13.02 5.05,28.23 4.71,45.62 -35.31,-1.38 -70.28,-2.32 -105.25,-2.75 0.33,13.39 3.69,23.88 10.08,31.41 6.39,7.53 14.47,11.29 24.21,11.5 6.73,0.14 12.04,-1.7 16.48,-5.34 4.63,-3.78 8.08,-9.85 10.43,-18.37zm2.35 -45.82c-0.33,-13.19 -3.38,-23.27 -9.42,-30.23 -6.06,-6.98 -13.45,-10.49 -21.85,-10.6 -9.08,-0.12 -16.81,3.41 -22.87,10.56 -6.05,7.15 -8.74,16.92 -8.74,29.25 20.85,0.24 41.7,0.55 62.88,1.02zm221.27 114.41c-14.12,-1.38 -28.25,-2.6 -42.03,-3.7 0,-14.44 0,-28.89 0,-43.3 0,-14.44 0,-28.9 0,-43.34 0,-18.38 -1.16,-30.22 -3.03,-35.85 -1.82,-5.49 -4.71,-9.97 -8.74,-13.38 -4.04,-3.42 -9.08,-5.39 -14.8,-5.97 -7.39,-0.75 -13.85,0.73 -19.84,4.63 -5.77,3.75 -9.62,9.35 -11.77,16.14 -2.21,6.99 -3.36,19.94 -3.36,39.02 0,12.88 0,25.8 0,38.63 0,12.88 0,25.76 0,38.64 -14.13,-0.87 -28.25,-1.69 -42.04,-2.56 0,-28.54 0,-57.12 0,-85.66 0,-28.54 0,-57.13 0,-85.7 12.78,0.94 25.9,1.88 39.01,2.82 0,8.4 0,16.76 0,25.12 13.79,-18.21 31.62,-26.22 52.8,-24.06 9.08,0.93 17.84,3.59 25.55,7.97 7.76,4.41 13.48,9.53 17.49,15.43 4.05,5.95 6.88,12.53 8.41,19.83 1.49,7.15 2.35,17.27 2.35,30.31 0,17.5 0,35.02 0,52.49 0,17.5 0,35.01 0,52.49zm181.25 -92.5c-13.78,0.11 -27.57,0.27 -41.36,0.39 -1.35,-8.72 -4.35,-15.61 -9.41,-20.69 -5.02,-5.04 -11.44,-8.18 -19.17,-9.38 -10.76,-1.67 -19.09,0.95 -25.22,7.49 -6.3,6.72 -9.42,18.89 -9.42,36.71 0,19.87 3.02,34.25 9.42,43.31 6.37,9.03 14.8,14.11 25.55,15.5 8.08,1.05 14.4,-0.56 19.51,-4.51 5.3,-4.1 8.74,-11.62 10.76,-22.81 13.78,4.59 27.58,9.19 41.7,13.82 -4.37,18.73 -12.8,32.14 -24.89,40.36 -12.12,8.26 -28.58,11.14 -49.09,8.64 -23.2,-2.83 -41.7,-12.81 -55.49,-29.76 -13.78,-16.96 -20.85,-39.26 -20.85,-66.75 0,-27.79 7.01,-48.53 20.85,-62.22 13.74,-13.59 32.62,-18.15 56.5,-14.29 19.16,3.09 34.62,10.06 46.07,20.77 11.42,10.68 19.5,25.08 24.54,43.42zm124.43 84.48c13.78,5.03 27.91,10.06 42.03,15.04 -5.38,13.74 -14.09,23.51 -25.56,29.17 -11.73,5.8 -26.22,7.1 -43.72,4.32 -27.89,-4.44 -48.45,-16.67 -61.53,-37.06 -10.45,-16.27 -15.81,-35.69 -15.81,-58.18 0,-26.74 6.9,-46.63 20.51,-58.93 13.63,-12.31 31.31,-15.93 52.46,-11.23 23.56,5.23 42.41,17.45 56.16,35.92 6.76,9.08 11.78,19.79 14.8,31.96 3.02,12.16 5.04,26.11 4.71,41.5 -35.31,-7.19 -70.28,-14.05 -105.26,-20.46 0.34,12.53 3.69,22.83 10.09,30.9 6.37,8.02 14.47,12.8 24.22,14.45 6.72,1.13 12.02,0.18 16.47,-2.43 4.63,-2.72 8.07,-7.62 10.43,-14.97zm2.35 -41.14c-0.34,-11.93 -3.38,-21.67 -9.42,-29.25 -6.05,-7.6 -13.46,-12.38 -21.85,-14.09 -9.09,-1.86 -16.85,-0.15 -22.87,5.3 -6.08,5.5 -8.75,14.13 -8.75,25.63 20.86,3.97 41.7,7.97 62.89,12.41zm161.75 119.67c0,-33.14 0,-66.27 0,-99.37 0,-33.14 0,-66.27 0,-99.45 50.44,7.19 100.88,7.98 151.32,4.17 0,10.99 0,21.94 0,32.89 -35.64,3.03 -71.29,4.05 -106.6,2.68 0,15.54 0,31.13 0,46.64 30.6,1.14 61.2,0.66 92.14,-1.5 0,10.96 0,21.91 0,32.83 -30.94,2.31 -61.54,2.86 -92.14,1.88 0,13.9 0,27.83 0,41.73 0,13.9 0,27.8 0,41.74 -15.13,-0.87 -29.93,-2.24 -44.72,-4.24zm177.55 -76.09c0,-12.37 3.53,-24.76 10.42,-37.49 6.9,-12.75 16.49,-23.47 29.26,-31.96 12.78,-8.51 26.6,-14.66 42.37,-18.45 24.23,-5.82 43.68,-4.13 59.19,5.49 15.42,9.58 23.2,24.78 23.2,45.9 0,21.36 -7.76,41.17 -23.54,59.56 -15.48,18.04 -34.96,30.19 -58.51,35.84 -14.78,3.53 -28.58,3.69 -41.7,0.47 -13.44,-3.29 -23.44,-9.88 -30.27,-19.86 -6.95,-10.2 -10.42,-23.36 -10.42,-39.5zm43.38 -5.89c0,13.94 3.58,24.11 11.1,29.84 7.61,5.81 16.81,7.22 27.91,4.63 10.75,-2.51 20.16,-8.57 27.57,-17.94 7.38,-9.32 11.1,-21.04 11.1,-35.22 0,-13.74 -3.71,-23.34 -11.1,-28.81 -7.4,-5.48 -16.82,-6.83 -27.57,-4.32 -11.1,2.59 -20.18,8.4 -27.91,17.67 -7.4,8.86 -11.1,20.21 -11.1,34.15zm154.02 30.7c0,-32.46 0,-64.89 0,-97.36 0,-32.43 0,-64.86 0,-97.37 13.78,-4.2 27.9,-8.48 42.03,-12.84 0,32.63 0,65.26 0,97.84 0,32.59 0,65.21 0,97.8 -14.13,4 -28.25,8.01 -42.03,11.93zm85.41 -23.91c0,-32.82 0,-65.68 0,-98.5 0,-32.82 0,-65.64 0,-98.51 13.78,-4.12 27.91,-8.32 42.03,-12.56 0,33.14 0,66.24 0,99.37 0,33.1 0,66.19 0,99.29 -14.12,3.5 -28.25,7.22 -42.03,10.91zm75.66 -93.28c0,-12.76 3.26,-26.04 10.09,-39.61 6.95,-13.83 16.86,-25.23 29.59,-34.67 12.48,-9.25 26.55,-15.71 42.04,-18.73 24.19,-4.71 44.24,-0.42 59.51,12.64 15.33,13.12 22.87,31.57 22.87,54.46 0,23.09 -7.72,42.78 -23.2,59.09 -15.45,16.26 -35.01,25.74 -58.85,29.13 -14.5,2.06 -28.23,1.61 -41.7,-1.97 -13.09,-3.48 -23.31,-10.02 -30.26,-20.21 -6.83,-10.02 -10.09,-23.44 -10.09,-40.13zm43.04 -7.85c0,14.61 3.83,24.9 11.43,31.25 7.53,6.29 16.46,8.58 27.58,6.83 11.08,-1.74 20.15,-6.86 27.57,-15.78 7.37,-8.85 11.1,-20.85 11.1,-35.96 0,-14.69 -3.67,-25.56 -11.1,-32.43 -7.37,-6.82 -16.48,-9.18 -27.57,-7.11 -11.1,2.08 -20.11,7.87 -27.58,17.2 -7.65,9.56 -11.43,21.43 -11.43,36zm183.61 57.2c-8.41,-25.87 -17.14,-51.55 -25.23,-77.03 -8.05,-25.36 -16.81,-50.41 -24.88,-75.29 13.45,-1.11 26.9,-1.82 40.69,-2.32 4.71,16.76 10.1,33.57 14.8,50.41 4.72,16.95 10.09,33.96 15.13,51.07 4.37,-16.92 9.09,-33.88 13.45,-50.8 4.38,-16.95 9.42,-33.92 14.13,-50.92 13.45,0.36 26.9,1.02 40.69,1.77 4.37,17.51 8.74,35.02 13.11,52.61 4.37,17.58 8.74,35.29 13.45,53 5.04,-16.81 10.1,-33.65 15.13,-50.45 5.05,-16.84 10.09,-33.69 15.14,-50.53 13.78,1.53 27.57,3.14 41.69,4.83 -8.74,25.48 -17.48,50.96 -25.89,76.44 -8.4,25.44 -17.15,50.92 -25.56,76.4 -13.45,-1.45 -26.9,-2.79 -40.35,-4.05 -4.71,-17.31 -9.41,-34.63 -13.79,-51.86 -4.35,-17.11 -9.08,-34.27 -13.45,-51.43 -4.71,16.61 -9.41,33.18 -13.79,49.78 -4.37,16.61 -9.07,33.18 -13.45,49.67 -13.79,-0.59 -27.57,-1.02 -41.02,-1.3zm400.16 48.49c0,-7.93 0,-15.86 0,-23.83 -5.71,7.61 -13.44,13.21 -22.86,16.8 -9.41,3.59 -19.5,4.45 -29.93,2.79 -10.76,-1.71 -20.51,-5.63 -28.92,-11.7 -8.4,-6.06 -14.81,-13.7 -18.5,-22.81 -3.7,-9.18 -5.71,-21.32 -5.71,-36.35 0,-16.89 0,-33.77 0,-50.65 0,-16.84 0,-33.72 0,-50.61 13.79,2.24 27.91,4.52 42.03,6.83 0,12.25 0,24.54 0,36.75 0,12.25 0,24.5 0,36.71 0,22.49 0.86,36.43 2.36,41.69 1.52,5.38 4.44,9.74 8.74,13.43 4.11,3.53 9.08,5.91 15.47,6.91 7.39,1.16 13.78,0.2 19.5,-2.86 5.72,-3.07 9.76,-7.39 11.77,-12.92 2.02,-5.57 3.03,-19.75 3.03,-42.64 0,-22.42 0,-44.87 0,-67.33 13.79,2.16 27.91,4.16 42.03,6.16 0,26.58 0,53.12 0,79.66 0,26.5 0,53.08 0,79.58 -13.11,-1.77 -26.23,-3.65 -39.01,-5.61zm81.05 -148.13c13.11,1.61 26.23,3.02 39.34,4.24 0,7.81 0,15.62 0,23.4 5.05,-7.5 12.15,-13.19 20.85,-17.39 8.78,-4.24 18.16,-6.16 28.92,-5.5 18.49,1.14 34.31,8.87 47.08,23.68 12.77,14.79 19.51,35.17 19.51,61.08 0,26.66 -6.83,47.11 -19.85,61.68 -12.86,14.4 -28.59,21.36 -47.08,20.22 -8.74,-0.54 -16.81,-2.81 -23.87,-6.79 -7.39,-4.17 -14.8,-10.88 -22.87,-20.1 0,13.26 0,26.53 0,39.81 0,13.27 0,26.54 0,39.81 -14.12,-1.34 -28.24,-2.87 -42.03,-4.56 0,-36.59 0,-73.18 0,-109.77 0,-36.63 0,-73.22 0,-109.81zm41.69 81.62c0,17.98 3.38,31.52 10.43,40.76 7.07,9.25 15.8,14.29 25.89,14.91 9.75,0.6 17.93,-2.73 24.55,-10.28 6.49,-7.41 9.75,-20.26 9.75,-38.24 0,-16.77 -3.36,-29.33 -10.09,-37.89 -6.72,-8.56 -15.13,-13.06 -24.88,-13.66 -10.42,-0.65 -18.84,2.59 -25.56,9.93 -6.73,7.37 -10.09,18.85 -10.09,34.47z"/>
  </g>
 </g>
</svg>
