<svg width="29" height="27" viewBox="0 0 29 27" fill="none" xmlns="http://www.w3.org/2000/svg">
<g id="1439799004144">
<g id="Group 3">
<path id="Vector" fill-rule="evenodd" clip-rule="evenodd" d="M8.7978 11.7861C7.4223 12.6779 7.9703 14.6917 9.1085 14.8177C9.2962 15.7398 9.7464 16.1756 10.7635 16.2228C11.3838 16.2515 11.5944 16.1593 12.1136 16.023C12.769 15.8508 12.8757 16.6265 14.5145 16.5761C15.2919 16.5523 15.0234 16.3878 15.7706 16.6661C16.6354 16.9882 17.6146 16.8439 18.3569 16.4911C18.797 16.2819 18.9531 16.1485 19.2135 15.8148C19.5251 15.4155 19.7805 15.5874 20.2078 15.2764C20.7218 14.9024 21.0331 13.7855 20.7779 12.8516C20.6255 12.2934 20.3907 12.2271 20.2081 11.8865C19.9532 11.4109 20.0696 11.3597 19.6861 10.8818C19.2309 10.3146 18.801 10.0533 17.9525 9.6417C17.8332 8.4563 17.2182 7.716 16.1687 7.5139C15.5243 7.3897 15.8141 7.5476 15.4604 7.1856C15.2954 7.0167 15.1304 6.9089 14.8393 6.8645C14.1535 6.7598 13.8039 6.9477 13.4911 7.3112C12.9915 7.3291 12.6811 7.2822 12.2659 7.5022C11.7906 7.754 11.8687 7.8336 11.5905 8.1943C11.1173 8.8075 10.7493 8.3177 10.4578 9.7836C9.437 9.9336 8.9274 10.503 9.0285 11.6261L8.7978 11.7861Z" fill="#00A652"/>
<g id="Group 2">
<path id="Vector_2" fill-rule="evenodd" clip-rule="evenodd" d="M11.488 19.2258L13.8642 23.9526C14.0645 24.0469 14.0065 23.877 14.0434 24.0438C14.044 23.985 14.0406 23.8456 14.0592 23.7967C14.1426 23.5778 14.0861 23.7084 14.203 23.5673C14.257 23.9051 14.3443 24.2599 14.4912 24.4979C14.3751 24.1645 15.6699 20.0472 15.613 19.2636L13.2356 19.2325C13.3579 20.4167 14.1254 22.7368 14.1425 23.6099C13.7702 23.3071 13.6709 22.3038 13.5079 21.4878C13.3628 20.7608 13.162 20.0066 12.982 19.2901C12.7129 19.0899 11.8214 18.9367 11.4035 18.9157C11.4977 19.1237 11.4367 18.9578 11.488 19.2258Z" fill="#EBBB24"/>
<path id="Vector_3" fill-rule="evenodd" clip-rule="evenodd" d="M13.4654 18.9453C13.5226 18.6756 14.2411 17.8513 14.4279 17.7263C14.5976 17.8107 15.3324 18.7071 15.459 18.9585L13.4654 18.9453ZM16.3941 17.2991C16.3312 17.6983 15.9619 18.2998 15.8371 18.7543C15.5258 18.6366 14.9663 17.8438 14.7391 17.5672L16.3941 17.2991ZM13.1504 18.78C12.8237 18.4221 12.6015 17.7722 12.451 17.2573L14.13 17.5869L13.1504 18.78ZM11.9776 17.4797C12.2532 17.4057 12.2197 17.2482 12.5069 18.0484C12.6133 18.3451 12.7113 18.5395 12.7995 18.8758L11.4035 18.4301C11.0161 18.6191 11.254 19.0447 11.488 19.2258C11.4367 18.9578 11.4977 19.1237 11.4035 18.9157C11.8214 18.9367 12.7129 19.0899 12.982 19.2901C13.162 20.0066 13.3628 20.7608 13.5079 21.4878C13.6709 22.3038 13.7702 23.3071 14.1425 23.6099C14.1254 22.7368 13.3579 20.4167 13.2356 19.2325L15.613 19.2636C15.6699 20.0472 14.3751 24.1645 14.4912 24.4979C14.3443 24.2599 14.257 23.9051 14.203 23.5673C14.0861 23.7084 14.1426 23.5778 14.0592 23.7967C14.0406 23.8456 14.044 23.985 14.0434 24.0438C14.0065 23.877 14.0645 24.0469 13.8642 23.9526C14.0051 24.3312 14.1379 24.3779 14.2229 24.8093L12.365 24.6305C12.5523 24.7883 12.8091 24.8199 13.0695 24.8475C13.5875 24.9025 15.1168 24.9813 15.6026 24.7968C15.8155 24.716 15.6512 24.8143 15.7881 24.6896L14.6363 24.769C14.7233 24.3993 14.7821 24.4935 14.9191 24.1294C14.7877 23.9604 14.8177 24.3474 14.8469 23.8492L15.339 21.6408C16.0716 18.6506 15.6039 19.3014 16.7883 19.0325C17.0366 18.9761 17.4586 18.7545 17.468 19.0647C17.5392 19.0015 17.6661 19.0387 17.6388 18.6987C17.6134 18.3818 17.6437 18.5375 17.4718 18.4098C17.424 18.7623 17.6279 18.5417 17.2309 18.6573L16.0577 18.8621C16.1596 18.5959 16.5048 17.5972 16.6888 17.4703C16.6905 17.3307 16.6463 17.3735 16.8472 17.4449C16.6869 17.176 16.5917 17.2315 16.3117 17.1421L16.0014 17.0088C14.7879 16.4804 13.6786 16.7825 12.6306 17.0984C12.2651 17.2086 12.1439 17.1175 11.9776 17.4797Z" fill="#F5DA87"/>
<path id="Vector_4" fill-rule="evenodd" clip-rule="evenodd" d="M14.9191 24.1294L17.468 19.0647C17.4586 18.7545 17.0366 18.9761 16.7883 19.0325C15.6039 19.3014 16.0716 18.6506 15.339 21.6408L14.8469 23.8492C14.8177 24.3474 14.7877 23.9604 14.9191 24.1294Z" fill="#EBBC2A"/>
<path id="Vector_5" fill-rule="evenodd" clip-rule="evenodd" d="M13.4654 18.9453L15.459 18.9585C15.3324 18.7071 14.5976 17.8107 14.4279 17.7263C14.2411 17.8513 13.5226 18.6756 13.4654 18.9453Z" fill="#EBBB24"/>
<path id="Vector_6" fill-rule="evenodd" clip-rule="evenodd" d="M13.1504 18.78L14.13 17.5869L12.451 17.2573C12.6015 17.7722 12.8237 18.4221 13.1504 18.78Z" fill="#EBBC2A"/>
<path id="Vector_7" fill-rule="evenodd" clip-rule="evenodd" d="M14.7391 17.5672C14.9663 17.8438 15.5258 18.6366 15.8371 18.7543C15.9619 18.2998 16.3312 17.6983 16.3941 17.2991L14.7391 17.5672Z" fill="#EBBC2A"/>
<path id="Vector_8" fill-rule="evenodd" clip-rule="evenodd" d="M17.4718 18.4098L16.8472 17.4449C16.6463 17.3735 16.6905 17.3307 16.6888 17.4703C16.5048 17.5972 16.1596 18.5959 16.0577 18.8621L17.2309 18.6573C17.6279 18.5417 17.424 18.7623 17.4718 18.4098Z" fill="#EBBC2A"/>
<path id="Vector_9" fill-rule="evenodd" clip-rule="evenodd" d="M11.9776 17.4797L11.4035 18.4301L12.7995 18.8758C12.7113 18.5395 12.6133 18.3451 12.5069 18.0484C12.2197 17.2482 12.2532 17.4057 11.9776 17.4797Z" fill="#EBBC2A"/>
</g>
</g>
<g id="Group 1">
<path id="Vector_10" fill-rule="evenodd" clip-rule="evenodd" d="M7.18401 26.0026C7.07151 25.8478 6.62811 25.5423 6.45031 25.3958C6.18701 25.1788 6.01171 25.0401 5.76991 24.7995C4.37761 23.4141 3.38341 22.0815 2.61701 20.1188C-0.585792 11.9168 5.26361 2.50339 14.6833 2.63879C20.629 2.72419 25.2053 6.94249 26.5758 11.6521C28.1254 16.9771 26.3194 22.3381 22.1324 25.6346C21.9877 25.7486 21.5313 26.0402 21.4341 26.1567C22.4642 25.6845 24.0091 24.2964 24.6606 23.5622C32.9012 14.276 26.2732 0.190093 14.5982 0.0973934C7.82041 0.0436934 2.60621 4.75829 1.14781 10.0147C-0.193292 14.8483 0.839408 19.8484 4.04001 23.3768C4.75861 24.1689 6.08021 25.4641 7.18401 26.0026Z" fill="#03A552"/>
<path id="Vector_11" fill-rule="evenodd" clip-rule="evenodd" d="M15.7881 24.6896C15.6512 24.8143 15.8155 24.716 15.6026 24.7968C15.1168 24.9813 13.5875 24.9025 13.0695 24.8475C12.8091 24.8199 12.5523 24.7883 12.365 24.6305C11.6362 24.6165 9.9647 23.8982 9.4418 23.5983C6.8908 22.1357 4.9797 19.9558 4.2015 16.9146C3.5969 14.5514 3.828 12.1212 4.6805 10.0552C5.9012 7.097 7.9149 5.884 8.103 5.5964C7.4724 5.7776 6.0781 7.2037 5.6065 7.7465C1.5595 12.4053 1.983 19.8494 6.9081 24.1675C9.9232 26.811 12.7743 26.6942 13.3787 26.955H15.777C16.0872 26.787 17.2607 26.6197 17.6986 26.4937C19.4372 25.9936 20.9421 25.1136 22.1735 23.9715C22.9493 23.2519 23.6907 22.4386 24.299 21.4192C25.5111 19.388 26.366 16.3506 25.9121 13.8606C25.6215 12.2666 25.4877 11.5748 24.8554 10.2276C24.3444 9.1388 23.7411 8.2717 22.9671 7.4286C22.3436 6.7495 21.2258 5.7039 20.4232 5.3582C20.9203 5.626 22.0956 6.773 22.5508 7.3346C23.2323 8.1754 23.6375 8.8513 24.1361 9.9259C25.0224 11.8361 25.3093 14.6772 24.6481 17.0066C23.7827 20.0552 21.618 22.483 18.9189 23.7718C18.225 24.1031 16.6333 24.6838 15.7881 24.6896Z" fill="#EBBB24"/>
</g>
</g>
</svg>
