<?xml version="1.0" encoding="UTF-8"?>
<!DOCTYPE svg PUBLIC "-//W3C//DTD SVG 1.1//EN" "http://www.w3.org/Graphics/SVG/1.1/DTD/svg11.dtd">
<!-- Creator: CorelDRAW 2020 (64-Bit) -->
<svg xmlns="http://www.w3.org/2000/svg" xml:space="preserve" width="80mm" height="60mm" version="1.1" shape-rendering="geometricPrecision" text-rendering="geometricPrecision" image-rendering="optimizeQuality" fill-rule="evenodd" clip-rule="evenodd"
viewBox="0 0 8000 6000"
 xmlns:xlink="http://www.w3.org/1999/xlink"
 xmlns:xodm="http://www.corel.com/coreldraw/odm/2003">
 <g id="Layer_x0020_1">
  <metadata id="CorelCorpID_0Corel-Layer"/>
  <g id="_1439822131936">
   <path fill="#00A652" d="M1580.81 1909.66c323.07,0 646.14,125.08 969.2,0 436.99,-169.19 1002.84,173.91 1456.63,9.08 247.94,-90.06 579.5,-25.65 901.8,0.84 171.51,14.08 325.21,-25.02 496.06,-9.92l0 534.47c-188.27,0 -328.64,-7.99 -440.17,-19.11 -441.71,-44.04 -431.35,-137.16 -1153.13,22.73 -256.68,56.85 -831.91,-148.83 -1234.63,-26.36 -166.83,50.73 -818.73,22.74 -995.76,22.74l0 -534.47z"/>
   <path fill="#FFF212" fill-rule="nonzero" d="M1762.93 2302.99c0,-36.67 0,-73.3 0,-109.97 0,-36.67 0,-73.3 0,-110 50.1,0.82 100.54,2.98 150.98,6.24 0,12.25 0,24.5 0,36.74 -35.64,-2.12 -71.29,-3.89 -106.6,-5.18 0,17.4 0,34.79 0,52.18 30.6,0.94 61.21,2.16 92.14,3.77 0,12.29 0,24.53 0,36.79 -30.93,-1.46 -61.54,-2.6 -92.14,-3.46 0,15.55 0,31.05 0,46.6 0,15.55 0,31.09 0,46.64 -14.79,-0.15 -29.59,-0.23 -44.38,-0.35zm227.32 6.95c-14.13,-0.67 -28.25,-1.3 -42.04,-1.92 0,-26.12 0,-52.22 0,-78.33 0,-26.07 0,-52.21 0,-78.32 12.78,0.9 25.89,1.88 39.01,2.86 0,7.35 0,14.73 0,22.07 6.72,-9.94 12.78,-16.38 18.16,-19.2 5.37,-2.83 11.44,-3.93 18.16,-3.41 9.75,0.74 18.83,4 27.91,9.77 -4.37,11.5 -8.74,23.05 -13.11,34.55 -7.07,-4.95 -13.8,-7.63 -19.85,-8.05 -5.71,-0.4 -10.83,0.7 -15.13,3.65 -4.11,2.83 -7.06,8.4 -9.42,16.53 -2.35,8.12 -3.69,25.44 -3.69,51.82 0,16.02 0,32 0,47.98zm171.5 -40.56c13.78,2.67 27.91,5.34 42.03,7.89 -5.38,14.41 -13.84,25.2 -25.55,32.59 -11.49,7.25 -26.24,10.75 -43.72,10.13 -27.58,-0.98 -48.23,-10.42 -61.54,-28.54 -10.57,-14.39 -15.81,-32.39 -15.81,-53.79 0,-25.44 7.06,-44.92 20.86,-58.34 13.78,-13.43 31.27,-19.34 52.45,-18.06 23.53,1.42 42.1,9.6 55.82,25.05 6.79,7.63 12.1,17.16 15.14,28.58 3.01,11.34 4.7,24.66 4.7,39.89 -35.31,-1.02 -70.61,-2.48 -105.59,-4.16 0.34,11.93 3.8,21.31 10.43,28.34 6.47,6.86 14.46,10.6 23.88,10.96 6.72,0.26 12.15,-1.16 16.81,-4.48 4.42,-3.15 7.73,-8.6 10.09,-16.06zm2.35 -40.32c-0.34,-11.54 -3.45,-20.45 -9.41,-26.81 -5.81,-6.2 -13.12,-9.67 -21.86,-10.17 -9.08,-0.52 -16.5,2.23 -22.54,8.28 -6.06,6.07 -9.07,14.64 -8.74,25.68 20.85,1.1 41.7,2.16 62.55,3.02zm168.47 40.68c13.79,1.45 27.91,2.78 42.04,4.12 -5.38,14.76 -13.85,26.19 -25.56,34.51 -11.48,8.16 -26.23,12.67 -43.71,13.11 -27.57,0.69 -48.24,-7.62 -61.54,-24.77 -10.57,-13.63 -15.81,-31.02 -15.81,-51.87 0,-24.81 7.11,-44.05 20.85,-57.94 13.83,-13.98 31.28,-20.86 52.46,-21.36 23.54,-0.56 42.1,5.75 55.82,19.59 6.79,6.84 12.1,15.83 15.13,26.89 3.02,11 4.71,24.07 4.71,39.22 -35.31,2.24 -70.62,3.54 -105.59,4.13 0.34,11.69 3.78,20.69 10.43,27.24 6.46,6.36 14.46,9.56 23.87,9.27 6.73,-0.22 12.17,-2.01 16.82,-5.58 4.43,-3.41 7.73,-9.03 10.08,-16.56zm2.36 -40.01c-0.34,-11.42 -3.46,-19.93 -9.42,-25.8 -5.81,-5.71 -13.11,-8.55 -21.86,-8.28 -9.07,0.28 -16.49,3.57 -22.52,9.85 -6.06,6.31 -9.08,14.89 -8.75,25.68 20.85,-0.2 41.7,-0.78 62.55,-1.45z"/>
   <path fill="#373435" d="M2498.02 2262.73l24.57 32.67c43.35,-6.04 86.9,-11.65 130.45,-16.24 0,-12.45 0,-24.85 0,-37.26 -36.99,4.32 -73.64,9.42 -110.3,14.88 0,-28.86 0,-57.75 0,-86.65 0,-28.89 0,-57.79 0,-86.68 -15.13,3.26 -29.92,6.43 -44.72,9.61 0,34.32 0,68.63 0,102.95 0,22.23 0,44.48 0,66.72zm186.3 -169.9c0,-13.15 0,-26.34 0,-39.54 13.78,-1.96 27.91,-3.96 42.03,-5.96 0,13.34 0,26.69 0,40.04 -14.12,1.85 -28.25,3.65 -42.03,5.46zm0 183.15c0,-26.9 0,-53.83 0,-80.68 0,-26.9 0,-53.83 0,-80.72 13.78,-1.69 27.91,-3.46 42.03,-5.18 0,27.25 0,54.53 0,81.74 0,27.25 0,54.49 0,81.74 -14.12,1.02 -28.25,2.07 -42.03,3.1zm223.96 -129.75c-13.79,2.94 -27.58,6 -41.36,9.22 -1.35,-8.68 -4.36,-15.14 -9.42,-19.32 -5.02,-4.14 -11.44,-6.08 -19.17,-5.65 -10.76,0.59 -19.07,4.94 -25.22,12.96 -6.29,8.2 -9.41,21 -9.41,38.87 0,19.78 3.04,33.59 9.41,41.41 6.41,7.88 14.8,11.55 25.56,11.15 8.07,-0.3 14.39,-2.94 19.5,-7.81 5.31,-5.05 8.75,-13.35 10.76,-25.25 13.79,2.04 27.58,4.21 41.7,6.49 -4.37,20.33 -12.52,35.68 -24.89,46.32 -12.17,10.47 -28.58,15.87 -49.09,16.53 -23.21,0.75 -41.67,-5.96 -55.48,-20.57 -13.76,-14.55 -20.85,-35.18 -20.85,-62.11 0,-27.29 7.09,-49.06 20.85,-65.45 13.81,-16.46 32.61,-25.94 56.49,-27.4 19.16,-1.17 34.68,2.49 46.07,10.79 11.48,8.38 19.5,21.72 24.55,39.82zm124.42 66.58c13.79,3.06 27.91,6.12 42.03,9.19 -5.38,16.37 -14.06,28.75 -25.56,36.9 -11.69,8.3 -26.22,11.94 -43.71,11.58 -27.91,-0.57 -48.46,-10.38 -61.54,-29.79 -10.46,-15.53 -15.8,-35.11 -15.8,-58.74 0,-28.15 7.16,-50.25 20.84,-66.54 13.55,-16.13 30.95,-24.08 52.13,-23.87 23.54,0.22 42.43,9.18 56.16,26.65 6.78,8.63 11.78,19.55 14.79,32.55 3.03,13.02 5.05,28.23 4.71,45.62 -35.31,-1.38 -70.28,-2.32 -105.25,-2.75 0.33,13.39 3.69,23.88 10.08,31.41 6.39,7.53 14.47,11.29 24.21,11.5 6.73,0.14 12.04,-1.7 16.48,-5.34 4.63,-3.78 8.08,-9.85 10.43,-18.37zm2.35 -45.82c-0.33,-13.19 -3.38,-23.27 -9.42,-30.23 -6.06,-6.98 -13.45,-10.49 -21.85,-10.6 -9.08,-0.12 -16.81,3.41 -22.87,10.56 -6.05,7.15 -8.74,16.92 -8.74,29.25 20.85,0.24 41.7,0.55 62.88,1.02zm221.27 114.41c-14.12,-1.38 -28.25,-2.6 -42.03,-3.7 0,-14.44 0,-28.89 0,-43.3 0,-14.44 0,-28.9 0,-43.34 0,-18.38 -1.16,-30.22 -3.03,-35.85 -1.82,-5.49 -4.71,-9.97 -8.74,-13.38 -4.04,-3.42 -9.08,-5.39 -14.8,-5.97 -7.39,-0.75 -13.85,0.73 -19.84,4.63 -5.77,3.75 -9.62,9.35 -11.77,16.14 -2.21,6.99 -3.36,19.94 -3.36,39.02 0,12.88 0,25.8 0,38.63 0,12.88 0,25.76 0,38.64 -14.13,-0.87 -28.25,-1.69 -42.04,-2.56 0,-28.54 0,-57.12 0,-85.66 0,-28.54 0,-57.13 0,-85.7 12.78,0.94 25.9,1.88 39.01,2.82 0,8.4 0,16.76 0,25.12 13.79,-18.21 31.62,-26.22 52.8,-24.06 9.08,0.93 17.84,3.59 25.55,7.97 7.76,4.41 13.48,9.53 17.49,15.43 4.05,5.95 6.88,12.53 8.41,19.83 1.49,7.15 2.35,17.27 2.35,30.31 0,17.5 0,35.02 0,52.49 0,17.5 0,35.01 0,52.49zm181.25 -92.5c-13.78,0.11 -27.57,0.27 -41.36,0.39 -1.35,-8.72 -4.35,-15.61 -9.41,-20.69 -5.02,-5.04 -11.44,-8.18 -19.17,-9.38 -10.76,-1.67 -19.09,0.95 -25.22,7.49 -6.3,6.72 -9.42,18.89 -9.42,36.71 0,19.87 3.02,34.25 9.42,43.31 6.37,9.03 14.8,14.11 25.55,15.5 8.08,1.05 14.4,-0.56 19.51,-4.51 5.3,-4.1 8.74,-11.62 10.76,-22.81 13.78,4.59 27.58,9.19 41.7,13.82 -4.37,18.73 -12.8,32.14 -24.89,40.36 -12.12,8.26 -28.58,11.14 -49.09,8.64 -23.2,-2.83 -41.7,-12.81 -55.49,-29.76 -13.78,-16.96 -20.85,-39.26 -20.85,-66.75 0,-27.79 7.01,-48.53 20.85,-62.22 13.74,-13.59 32.62,-18.15 56.5,-14.29 19.16,3.09 34.62,10.06 46.07,20.77 11.42,10.68 19.5,25.08 24.54,43.42zm124.43 84.48c13.78,5.03 27.91,10.06 42.03,15.04 -5.38,13.74 -14.09,23.51 -25.56,29.17 -11.73,5.8 -26.22,7.1 -43.72,4.32 -27.89,-4.44 -48.45,-16.67 -61.53,-37.06 -10.45,-16.27 -15.81,-35.69 -15.81,-58.18 0,-26.74 6.9,-46.63 20.51,-58.93 13.63,-12.31 31.31,-15.93 52.46,-11.23 23.56,5.23 42.41,17.45 56.16,35.92 6.76,9.08 11.78,19.79 14.8,31.96 3.02,12.16 5.04,26.11 4.71,41.5 -35.31,-7.19 -70.28,-14.05 -105.26,-20.46 0.34,12.53 3.69,22.83 10.09,30.9 6.37,8.02 14.47,12.8 24.22,14.45 6.72,1.13 12.02,0.18 16.47,-2.43 4.63,-2.72 8.07,-7.62 10.43,-14.97zm2.35 -41.14c-0.34,-11.93 -3.38,-21.67 -9.42,-29.25 -6.05,-7.6 -13.46,-12.38 -21.85,-14.09 -9.09,-1.86 -16.85,-0.15 -22.87,5.3 -6.08,5.5 -8.75,14.13 -8.75,25.63 20.86,3.97 41.7,7.97 62.89,12.41zm161.75 119.67c0,-33.14 0,-66.27 0,-99.37 0,-33.14 0,-66.27 0,-99.45 50.44,7.19 100.88,7.98 151.32,4.17 0,10.99 0,21.94 0,32.89 -35.64,3.03 -71.29,4.05 -106.6,2.68 0,15.54 0,31.13 0,46.64 30.6,1.14 61.2,0.66 92.14,-1.5 0,10.96 0,21.91 0,32.83 -30.94,2.31 -61.54,2.86 -92.14,1.88 0,13.9 0,27.83 0,41.73 0,13.9 0,27.8 0,41.74 -15.13,-0.87 -29.93,-2.24 -44.72,-4.24zm177.55 -76.09c0,-12.37 3.53,-24.76 10.42,-37.49 6.9,-12.75 16.49,-23.47 29.26,-31.96 12.78,-8.51 26.6,-14.66 42.37,-18.45 24.23,-5.82 43.68,-4.13 59.19,5.49 15.42,9.58 23.2,24.78 23.2,45.9 0,21.36 -7.76,41.17 -23.54,59.56 -15.48,18.04 -34.96,30.19 -58.51,35.84 -14.78,3.53 -28.58,3.69 -41.7,0.47 -13.44,-3.29 -23.44,-9.88 -30.27,-19.86 -6.95,-10.2 -10.42,-23.36 -10.42,-39.5zm43.38 -5.89c0,13.94 3.58,24.11 11.1,29.84 7.61,5.81 16.81,7.22 27.91,4.63 10.75,-2.51 20.16,-8.57 27.57,-17.94 7.38,-9.32 11.1,-21.04 11.1,-35.22 0,-13.74 -3.71,-23.34 -11.1,-28.81 -7.4,-5.48 -16.82,-6.83 -27.57,-4.32 -11.1,2.59 -20.18,8.4 -27.91,17.67 -7.4,8.86 -11.1,20.21 -11.1,34.15zm154.02 30.7c0,-32.46 0,-64.89 0,-97.36 0,-32.43 0,-64.86 0,-97.37 13.78,-4.2 27.9,-8.48 42.03,-12.84 0,32.63 0,65.26 0,97.84 0,32.59 0,65.21 0,97.8 -14.13,4 -28.25,8.01 -42.03,11.93zm85.41 -23.91c0,-32.82 0,-65.68 0,-98.5 0,-32.82 0,-65.64 0,-98.51 13.78,-4.12 27.91,-8.32 42.03,-12.56 0,33.14 0,66.24 0,99.37 0,33.1 0,66.19 0,99.29 -14.12,3.5 -28.25,7.22 -42.03,10.91zm75.66 -93.28c0,-12.76 3.26,-26.04 10.09,-39.61 6.95,-13.83 16.86,-25.23 29.59,-34.67 12.48,-9.25 26.55,-15.71 42.04,-18.73 24.19,-4.71 44.24,-0.42 59.51,12.64 15.33,13.12 22.87,31.57 22.87,54.46 0,23.09 -7.72,42.78 -23.2,59.09 -15.45,16.26 -35.01,25.74 -58.85,29.13 -14.5,2.06 -28.23,1.61 -41.7,-1.97 -13.09,-3.48 -23.31,-10.02 -30.26,-20.21 -6.83,-10.02 -10.09,-23.44 -10.09,-40.13zm43.04 -7.85c0,14.61 3.83,24.9 11.43,31.25 7.53,6.29 16.46,8.58 27.58,6.83 11.08,-1.74 20.15,-6.86 27.57,-15.78 7.37,-8.85 11.1,-20.85 11.1,-35.96 0,-14.69 -3.67,-25.56 -11.1,-32.43 -7.37,-6.82 -16.48,-9.18 -27.57,-7.11 -11.1,2.08 -20.11,7.87 -27.58,17.2 -7.65,9.56 -11.43,21.43 -11.43,36zm183.61 57.2c-8.41,-25.87 -17.14,-51.55 -25.23,-77.03 -8.05,-25.36 -16.81,-50.41 -24.88,-75.29 13.45,-1.11 26.9,-1.82 40.69,-2.32 4.71,16.76 10.1,33.57 14.8,50.41 4.72,16.95 10.09,33.96 15.13,51.07 4.37,-16.92 9.09,-33.88 13.45,-50.8 4.38,-16.95 9.42,-33.92 14.13,-50.92 13.45,0.36 26.9,1.02 40.69,1.77 4.37,17.51 8.74,35.02 13.11,52.61 4.37,17.58 8.74,35.29 13.45,53 5.04,-16.81 10.1,-33.65 15.13,-50.45 5.05,-16.84 10.09,-33.69 15.14,-50.53 13.78,1.53 27.57,3.14 41.69,4.83 -8.74,25.48 -17.48,50.96 -25.89,76.44 -8.4,25.44 -17.15,50.92 -25.56,76.4 -13.45,-1.45 -26.9,-2.79 -40.35,-4.05 -4.71,-17.31 -9.41,-34.63 -13.79,-51.86 -4.35,-17.11 -9.08,-34.27 -13.45,-51.43 -4.71,16.61 -9.41,33.18 -13.79,49.78 -4.37,16.61 -9.07,33.18 -13.45,49.67 -13.79,-0.59 -27.57,-1.02 -41.02,-1.3zm400.16 48.49c0,-7.93 0,-15.86 0,-23.83 -5.71,7.61 -13.44,13.21 -22.86,16.8 -9.41,3.59 -19.5,4.45 -29.93,2.79 -10.76,-1.71 -20.51,-5.63 -28.92,-11.7 -8.4,-6.06 -14.81,-13.7 -18.5,-22.81 -3.7,-9.18 -5.71,-21.32 -5.71,-36.35 0,-16.89 0,-33.77 0,-50.65 0,-16.84 0,-33.72 0,-50.61 13.79,2.24 27.91,4.52 42.03,6.83 0,12.25 0,24.54 0,36.75 0,12.25 0,24.5 0,36.71 0,22.49 0.86,36.43 2.36,41.69 1.52,5.38 4.44,9.74 8.74,13.43 4.11,3.53 9.08,5.91 15.47,6.91 7.39,1.16 13.78,0.2 19.5,-2.86 5.72,-3.07 9.76,-7.39 11.77,-12.92 2.02,-5.57 3.03,-19.75 3.03,-42.64 0,-22.42 0,-44.87 0,-67.33 13.79,2.16 27.91,4.16 42.03,6.16 0,26.58 0,53.12 0,79.66 0,26.5 0,53.08 0,79.58 -13.11,-1.77 -26.23,-3.65 -39.01,-5.61zm81.05 -148.13c13.11,1.61 26.23,3.02 39.34,4.24 0,7.81 0,15.62 0,23.4 5.05,-7.5 12.15,-13.19 20.85,-17.39 8.78,-4.24 18.16,-6.16 28.92,-5.5 18.49,1.14 34.31,8.87 47.08,23.68 12.77,14.79 19.51,35.17 19.51,61.08 0,26.66 -6.83,47.11 -19.85,61.68 -12.86,14.4 -28.59,21.36 -47.08,20.22 -8.74,-0.54 -16.81,-2.81 -23.87,-6.79 -7.39,-4.17 -14.8,-10.88 -22.87,-20.1 0,13.26 0,26.53 0,39.81 0,13.27 0,26.54 0,39.81 -14.12,-1.34 -28.24,-2.87 -42.03,-4.56 0,-36.59 0,-73.18 0,-109.77 0,-36.63 0,-73.22 0,-109.81zm41.69 81.62c0,17.98 3.38,31.52 10.43,40.76 7.07,9.25 15.8,14.29 25.89,14.91 9.75,0.6 17.93,-2.73 24.55,-10.28 6.49,-7.41 9.75,-20.26 9.75,-38.24 0,-16.77 -3.36,-29.33 -10.09,-37.89 -6.72,-8.56 -15.13,-13.06 -24.88,-13.66 -10.42,-0.65 -18.84,2.59 -25.56,9.93 -6.73,7.37 -10.09,18.85 -10.09,34.47z"/>
  </g>
 </g>
</svg>
