<svg width="60" height="60" viewBox="0 0 60 60" fill="none" xmlns="http://www.w3.org/2000/svg">
<g id="loader 1">
<g id="Layer x0020 1">
<path id="Vector" fill-rule="evenodd" clip-rule="evenodd" d="M14.2102 44.0463C17.6785 44.0463 20.4901 46.8579 20.4901 50.3262C20.4901 53.7945 17.6785 56.6061 14.2102 56.6061C10.7419 56.6061 7.9303 53.7945 7.9303 50.3262C7.9303 46.8579 10.7419 44.0463 14.2102 44.0463V44.0463Z" fill="#03A552" fill-opacity="0.341176"/>
<path id="Vector_2" fill-rule="evenodd" clip-rule="evenodd" d="M23.9304 48.0047C26.1806 46.666 29.09 47.4048 30.4287 49.655C31.7675 51.9051 31.0286 54.8145 28.7785 56.1533C26.5283 57.492 23.6189 56.7532 22.2802 54.503C20.9414 52.2529 21.6803 49.3435 23.9304 48.0047Z" fill="#03A552" fill-opacity="0.341176"/>
<path id="Vector_3" fill-rule="evenodd" clip-rule="evenodd" d="M32.2288 47.269C33.0725 45.7149 35.0163 45.1391 36.5703 45.9828C38.1243 46.8265 38.7002 48.7703 37.8564 50.3243C37.0127 51.8783 35.069 52.4542 33.5149 51.6105C31.9609 50.7668 31.3851 48.823 32.2288 47.269Z" fill="#03A552" fill-opacity="0.341176"/>
<path id="Vector_4" fill-rule="evenodd" clip-rule="evenodd" d="M37.627 44.9355C37.5909 44.0179 38.3056 43.2448 39.2231 43.2087C40.1407 43.1726 40.9138 43.8872 40.9499 44.8048C40.986 45.7223 40.2714 46.4955 39.3538 46.5316C38.4363 46.5677 37.6631 45.853 37.627 44.9355Z" fill="#03A552" fill-opacity="0.341176"/>
<path id="Vector_5" fill-rule="evenodd" clip-rule="evenodd" d="M40.3514 40.6733C40.323 39.9533 40.8838 39.3467 41.6038 39.3184C42.3238 39.29 42.9304 39.8508 42.9587 40.5708C42.9871 41.2908 42.4263 41.8974 41.7063 41.9257C40.9863 41.9541 40.3797 41.3933 40.3514 40.6733V40.6733Z" fill="#03A552" fill-opacity="0.341176"/>
<path id="Vector_6" fill-rule="evenodd" clip-rule="evenodd" d="M42.0972 37.2407C42.0831 36.8807 42.3634 36.5774 42.7234 36.5632C43.0834 36.5491 43.3867 36.8294 43.4009 37.1894C43.415 37.5494 43.1347 37.8527 42.7747 37.8669C42.4147 37.881 42.1114 37.6007 42.0972 37.2407Z" fill="#03A552" fill-opacity="0.341176"/>
</g>
</g>
</svg>
