<svg width="106" height="36" viewBox="0 0 106 36" fill="none" xmlns="http://www.w3.org/2000/svg">
<path fill-rule="evenodd" clip-rule="evenodd" d="M8.5824 34.1204C8.4377 33.9213 7.8674 33.5283 7.6387 33.3399C7.2999 33.0608 7.0744 32.8823 6.7634 32.5728C4.9724 30.7907 3.69359 29.0765 2.70769 26.5518C-1.41221 16.0013 6.1121 3.8925 18.2291 4.0666C25.8773 4.1765 31.7639 9.6027 33.5269 15.6608C35.5202 22.5106 33.197 29.4066 27.8112 33.647C27.625 33.7937 27.0379 34.1688 26.9129 34.3186C28.238 33.7112 30.2252 31.9256 31.0633 30.9812C41.6635 19.036 33.1376 0.916699 18.1196 0.797599C9.4011 0.728399 2.6938 6.7931 0.817801 13.5546C-0.907299 19.7722 0.421099 26.2041 4.5383 30.7427C5.4626 31.7617 7.1626 33.4276 8.5824 34.1204V34.1204Z" fill="#03A552"/>
<path fill-rule="evenodd" clip-rule="evenodd" d="M10.6584 15.8332C8.889 16.9803 9.5939 19.5707 11.058 19.7328C11.2995 20.919 11.8786 21.4796 13.1869 21.5402C13.9849 21.5772 14.2557 21.4586 14.9236 21.2832C15.7667 21.0618 15.9039 22.0595 18.0119 21.9948C19.0119 21.9641 18.6666 21.7525 19.6278 22.1106C20.7401 22.5249 21.9997 22.3392 22.9545 21.8854C23.5207 21.6163 23.7215 21.4447 24.0564 21.0155C24.4572 20.5018 24.7858 20.7229 25.3355 20.3228C25.9966 19.8417 26.3971 18.4051 26.0688 17.2037C25.8727 16.4857 25.5707 16.4005 25.3359 15.9623C25.008 15.3505 25.1577 15.2846 24.6644 14.67C24.0789 13.9404 23.5259 13.6042 22.4344 13.0748C22.2809 11.5499 21.4899 10.5976 20.1398 10.3376C19.3109 10.1779 19.6837 10.3811 19.2288 9.9154C19.0164 9.6981 18.8042 9.5594 18.4298 9.5023C17.5476 9.3677 17.0979 9.6093 16.6955 10.0769C16.0529 10.0999 15.6535 10.0396 15.1194 10.3226C14.5081 10.6466 14.6086 10.749 14.2507 11.2129C13.6421 12.0016 13.1686 11.3717 12.7937 13.2573C11.4805 13.4502 10.8251 14.1826 10.955 15.6273L10.6584 15.8332V15.8332Z" fill="#00A652"/>
<path fill-rule="evenodd" clip-rule="evenodd" d="M19.6502 32.4315C19.4741 32.5918 19.6855 32.4654 19.4116 32.5694C18.7867 32.8066 16.8195 32.7052 16.1532 32.6346C15.8183 32.599 15.4879 32.5584 15.247 32.3554C14.3095 32.3374 12.1593 31.4134 11.4867 31.0277C8.20531 29.1463 5.74701 26.3421 4.74601 22.4301C3.96821 19.3903 4.26561 16.2642 5.36211 13.6067C6.93231 9.8013 9.52261 8.241 9.76461 7.8711C8.95341 8.1042 7.15981 9.9387 6.55331 10.6369C1.34741 16.6296 1.89221 26.2053 8.22751 31.7599C12.1059 35.1603 15.7735 35.01 16.5509 35.3455H19.636C20.0349 35.1294 21.5445 34.9142 22.1078 34.7521C24.3442 34.1088 26.2801 32.9768 27.864 31.5077C28.862 30.582 29.8156 29.5359 30.5982 28.2246C32.1573 25.6118 33.257 21.7047 32.6731 18.5017C32.2994 16.4513 32.1273 15.5614 31.3139 13.8284C30.6566 12.4278 29.8805 11.3125 28.8849 10.228C28.0829 9.3543 26.6449 8.0094 25.6125 7.5647C26.252 7.9091 27.7638 9.3846 28.3493 10.107C29.226 11.1885 29.7472 12.058 30.3886 13.4403C31.5287 15.8975 31.8978 19.5522 31.0472 22.5485C29.934 26.4701 27.1495 29.593 23.6776 31.2508C22.785 31.677 20.7374 32.4239 19.6502 32.4315V32.4315Z" fill="#EBBB24"/>
<path fill-rule="evenodd" clip-rule="evenodd" d="M14.1189 25.4031L17.1755 31.4835C17.433 31.6047 17.3586 31.3862 17.4059 31.6007C17.4067 31.5251 17.4023 31.3458 17.4263 31.2828C17.5335 31.0012 17.4609 31.1692 17.6113 30.9878C17.6808 31.4223 17.793 31.8787 17.982 32.1849C17.8326 31.756 19.4982 26.4597 19.4251 25.4518L16.3668 25.4117C16.5242 26.9351 17.5114 29.9194 17.5335 31.0426C17.0545 30.6531 16.9268 29.3625 16.7172 28.3128C16.5305 27.3776 16.2722 26.4076 16.0406 25.4858C15.6945 25.2284 14.5477 25.0313 14.0101 25.0042C14.1313 25.2717 14.0529 25.0584 14.1189 25.4031V25.4031Z" fill="#EBBB24"/>
<path fill-rule="evenodd" clip-rule="evenodd" d="M16.6625 25.0423C16.736 24.6954 17.6603 23.6351 17.9005 23.4743C18.1188 23.5828 19.0641 24.7359 19.2269 25.0593L16.6625 25.0423V25.0423ZM20.4298 22.9247C20.3489 23.4382 19.8738 24.2119 19.7132 24.7966C19.3128 24.6452 18.5932 23.6255 18.3009 23.2696L20.4298 22.9247ZM16.2573 24.8297C15.837 24.3694 15.5512 23.5333 15.3576 22.871L17.5174 23.295L16.2573 24.8297V24.8297ZM14.7486 23.157C15.1031 23.0618 15.0601 22.8593 15.4295 23.8886C15.5664 24.2702 15.6924 24.5203 15.8059 24.9529L14.0101 24.3796C13.5118 24.6227 13.8178 25.1702 14.1189 25.4031C14.0529 25.0584 14.1313 25.2717 14.0101 25.0042C14.5477 25.0313 15.6945 25.2284 16.0406 25.4858C16.2722 26.4076 16.5305 27.3776 16.7172 28.3128C16.9268 29.3625 17.0545 30.6531 17.5335 31.0426C17.5114 29.9194 16.5242 26.9351 16.3668 25.4117L19.4251 25.4518C19.4982 26.4597 17.8326 31.756 17.982 32.1849C17.793 31.8787 17.6808 31.4223 17.6113 30.9878C17.4609 31.1692 17.5335 31.0012 17.4263 31.2828C17.4023 31.3458 17.4067 31.5251 17.4059 31.6007C17.3586 31.3862 17.433 31.6047 17.1755 31.4835C17.3567 31.9704 17.5276 32.0304 17.6369 32.5854L15.247 32.3554C15.4879 32.5584 15.8183 32.599 16.1532 32.6346C16.8195 32.7052 18.7867 32.8066 19.4116 32.5694C19.6855 32.4654 19.4741 32.5918 19.6502 32.4315L18.1686 32.5336C18.2805 32.0581 18.3562 32.1792 18.5324 31.7109C18.3634 31.4935 18.402 31.9912 18.4395 31.3503L19.0726 28.5097C20.015 24.6632 19.4133 25.5004 20.9368 25.1545C21.2563 25.0819 21.7991 24.7969 21.8111 25.1959C21.9028 25.1146 22.066 25.1625 22.0309 24.7251C21.9981 24.3175 22.0371 24.5177 21.8161 24.3534C21.7546 24.807 22.0169 24.5232 21.5061 24.6718L19.9971 24.9353C20.1281 24.5929 20.5721 23.3082 20.8089 23.145C20.811 22.9654 20.7542 23.0205 21.0125 23.1123C20.8063 22.7664 20.6839 22.8378 20.3238 22.7228L19.9246 22.5513C18.3636 21.8716 16.9367 22.2603 15.5886 22.6666C15.1185 22.8083 14.9625 22.6911 14.7486 23.157V23.157Z" fill="#F5DA87"/>
<path fill-rule="evenodd" clip-rule="evenodd" d="M18.5324 31.7109L21.8111 25.1959C21.7991 24.7969 21.2563 25.0819 20.9368 25.1545C19.4133 25.5004 20.015 24.6632 19.0726 28.5097L18.4395 31.3503C18.402 31.9912 18.3634 31.4935 18.5324 31.7109V31.7109Z" fill="#EBBC2A"/>
<path fill-rule="evenodd" clip-rule="evenodd" d="M16.6625 25.0423L19.2269 25.0593C19.0641 24.7359 18.1188 23.5828 17.9005 23.4743C17.6603 23.6351 16.736 24.6954 16.6625 25.0423V25.0423Z" fill="#EBBB24"/>
<path fill-rule="evenodd" clip-rule="evenodd" d="M16.2573 24.8297L17.5174 23.295L15.3576 22.871C15.5512 23.5333 15.837 24.3694 16.2573 24.8297V24.8297Z" fill="#EBBC2A"/>
<path fill-rule="evenodd" clip-rule="evenodd" d="M18.3009 23.2696C18.5932 23.6255 19.3128 24.6452 19.7132 24.7966C19.8738 24.2119 20.3489 23.4382 20.4298 22.9247L18.3009 23.2696Z" fill="#EBBC2A"/>
<path fill-rule="evenodd" clip-rule="evenodd" d="M21.8161 24.3534L21.0125 23.1123C20.7542 23.0205 20.811 22.9654 20.8089 23.145C20.5721 23.3082 20.1281 24.5929 19.9971 24.9353L21.5061 24.6718C22.0169 24.5232 21.7546 24.807 21.8161 24.3534V24.3534Z" fill="#EBBC2A"/>
<path fill-rule="evenodd" clip-rule="evenodd" d="M14.7486 23.157L14.0101 24.3796L15.8059 24.9529C15.6924 24.5203 15.5664 24.2702 15.4295 23.8886C15.0601 22.8593 15.1031 23.0618 14.7486 23.157Z" fill="#EBBC2A"/>
<path d="M48.2524 18.7769V20.8868H48.0455C47.9228 20.4001 47.7868 20.0513 47.6373 19.8405C47.4878 19.6259 47.2828 19.4553 47.0221 19.3288C46.8765 19.2598 46.6216 19.2253 46.2575 19.2253H45.6769V25.2388C45.6769 25.6374 45.6979 25.8866 45.7401 25.9862C45.7861 26.0859 45.8723 26.174 45.9988 26.2507C46.1291 26.3235 46.3054 26.3599 46.5277 26.3599H46.7864V26.5726H42.7046V26.3599H42.9633C43.1895 26.3599 43.3715 26.3196 43.5095 26.2392C43.6091 26.1855 43.6877 26.0935 43.7452 25.9632C43.7874 25.8712 43.8084 25.6298 43.8084 25.2388V19.2253H43.245C42.72 19.2253 42.3386 19.3365 42.101 19.5588C41.7675 19.8692 41.5567 20.3119 41.4686 20.8868H41.2501V18.7769H48.2524ZM53.0069 18.6677C54.2487 18.6217 55.2567 18.9839 56.0309 19.7543C56.8089 20.5246 57.1979 21.4885 57.1979 22.646C57.1979 23.6349 56.9085 24.5049 56.3298 25.2561C55.5633 26.2526 54.4805 26.7508 53.0816 26.7508C51.6788 26.7508 50.5942 26.2756 49.8277 25.3251C49.2221 24.5739 48.9193 23.6828 48.9193 22.6518C48.9193 21.4943 49.3122 20.5304 50.0979 19.76C50.8874 18.9858 51.8571 18.6217 53.0069 18.6677ZM53.0759 19.0356C52.363 19.0356 51.8207 19.3997 51.4489 20.1279C51.1461 20.7258 50.9947 21.5844 50.9947 22.7035C50.9947 24.0334 51.2285 25.0165 51.6961 25.6528C52.0219 26.0973 52.478 26.3196 53.0644 26.3196C53.4591 26.3196 53.7887 26.2238 54.0532 26.0322C54.3905 25.7869 54.653 25.396 54.8408 24.8594C55.0286 24.319 55.1225 23.6157 55.1225 22.7495C55.1225 21.7185 55.0267 20.9481 54.8351 20.4384C54.6434 19.9248 54.3981 19.5626 54.0992 19.3518C53.8041 19.141 53.463 19.0356 53.0759 19.0356ZM60.5553 18.7769L64.4014 23.6119V20.2602C64.4014 19.7926 64.3344 19.4764 64.2002 19.3116C64.0163 19.0893 63.7077 18.982 63.2746 18.9896V18.7769H65.8502V18.9896C65.5206 19.0318 65.2983 19.0874 65.1833 19.1564C65.0722 19.2215 64.984 19.3307 64.9188 19.4841C64.8575 19.6335 64.8269 19.8922 64.8269 20.2602V26.7508H64.6314L59.3595 20.2602V25.2158C59.3595 25.6643 59.4611 25.967 59.6642 26.1242C59.8712 26.2813 60.1069 26.3599 60.3714 26.3599H60.5553V26.5726H57.7901V26.3599C58.2193 26.3561 58.5183 26.2679 58.6869 26.0954C58.8555 25.923 58.9399 25.6298 58.9399 25.2158V19.714L58.7731 19.5071C58.6083 19.3001 58.4627 19.164 58.3362 19.0989C58.2097 19.0337 58.0277 18.9973 57.7901 18.9896V18.7769H60.5553ZM70.4437 26.3599V26.5726H66.3676V26.3599H66.6263C66.8524 26.3599 67.0345 26.3196 67.1725 26.2392C67.2721 26.1855 67.3488 26.0935 67.4024 25.9632C67.4446 25.8712 67.4657 25.6298 67.4657 25.2388V20.1107C67.4657 19.7121 67.4446 19.463 67.4024 19.3633C67.3603 19.2637 67.274 19.1774 67.1437 19.1046C67.0172 19.028 66.8448 18.9896 66.6263 18.9896H66.3676V18.7769H70.4437V18.9896H70.185C69.9588 18.9896 69.7768 19.0299 69.6388 19.1104C69.5391 19.164 69.4606 19.256 69.4031 19.3863C69.3609 19.4783 69.3398 19.7198 69.3398 20.1107V25.2388C69.3398 25.6374 69.3609 25.8866 69.4031 25.9862C69.4491 26.0859 69.5353 26.174 69.6618 26.2507C69.7921 26.3235 69.9665 26.3599 70.185 26.3599H70.4437ZM78.843 18.5987V21.3467H78.6303C78.3735 20.5955 77.9883 20.0245 77.4747 19.6335C76.9611 19.2426 76.3996 19.0471 75.7903 19.0471C75.2077 19.0471 74.7229 19.2119 74.3357 19.5415C73.9486 19.8673 73.6746 20.3234 73.5136 20.9098C73.3527 21.4962 73.2722 22.0979 73.2722 22.715C73.2722 23.4624 73.3603 24.1178 73.5366 24.6812C73.7129 25.2446 73.9966 25.6585 74.3875 25.923C74.7823 26.1874 75.2498 26.3196 75.7903 26.3196C75.9781 26.3196 76.1697 26.3005 76.3652 26.2622C76.5645 26.22 76.7676 26.1606 76.9746 26.0839V24.4627C76.9746 24.1561 76.9535 23.9587 76.9113 23.8706C76.8692 23.7786 76.781 23.6962 76.6469 23.6234C76.5165 23.5505 76.3575 23.5141 76.1697 23.5141H75.9685V23.3014H79.7571V23.5141C79.4696 23.5333 79.2684 23.5735 79.1534 23.6349C79.0423 23.6923 78.956 23.7901 78.8947 23.9281C78.8602 24.0009 78.843 24.1791 78.843 24.4627V26.0839C78.3447 26.3062 77.8254 26.473 77.285 26.5841C76.7484 26.6991 76.1908 26.7566 75.612 26.7566C74.8723 26.7566 74.2572 26.6569 73.7666 26.4576C73.2798 26.2545 72.8487 25.99 72.4731 25.6643C72.1013 25.3346 71.81 24.9648 71.5992 24.5547C71.3309 24.0258 71.1968 23.4336 71.1968 22.7782C71.1968 21.6054 71.6088 20.6147 72.4328 19.806C73.2568 18.9973 74.2936 18.593 75.543 18.593C75.9301 18.593 76.2789 18.6236 76.5894 18.6849C76.758 18.7156 77.0301 18.8038 77.4057 18.9494C77.7852 19.0912 78.0094 19.1621 78.0784 19.1621C78.1857 19.1621 78.2853 19.1238 78.3773 19.0471C78.4693 18.9666 78.5536 18.8172 78.6303 18.5987H78.843ZM83.0915 19.2253V22.3988H83.2467C83.7412 22.3988 84.0995 22.2436 84.3218 21.9331C84.5441 21.6227 84.6859 21.1647 84.7472 20.5591H84.9657V24.6409H84.7472C84.7012 24.1963 84.6035 23.8322 84.454 23.5486C84.3084 23.265 84.1378 23.0753 83.9424 22.9795C83.7469 22.8798 83.4633 22.83 83.0915 22.83V25.0261C83.0915 25.4554 83.1088 25.7179 83.1433 25.8137C83.1816 25.9095 83.2506 25.9881 83.3502 26.0494C83.4499 26.1108 83.6108 26.1414 83.8331 26.1414H84.2988C85.027 26.1414 85.6096 25.9728 86.0465 25.6355C86.4873 25.2982 86.8035 24.7847 86.9951 24.0948H87.2078L86.8571 26.5726H80.1193V26.3599H80.378C80.6041 26.3599 80.7862 26.3196 80.9241 26.2392C81.0238 26.1855 81.1004 26.0935 81.1541 25.9632C81.1963 25.8712 81.2173 25.6298 81.2173 25.2388V20.1107C81.2173 19.7581 81.2077 19.5415 81.1886 19.4611C81.1503 19.3269 81.0794 19.2234 80.9759 19.1506C80.8302 19.0433 80.6309 18.9896 80.378 18.9896H80.1193V18.7769H86.6444V21.0823H86.4259C86.3148 20.5189 86.1577 20.1145 85.9545 19.8692C85.7552 19.6239 85.4716 19.4438 85.1037 19.3288C84.889 19.2598 84.4866 19.2253 83.8964 19.2253H83.0915ZM93.3478 23.9166L95.4634 18.7769H98.6369V18.9896H98.3839C98.154 18.9896 97.97 19.0299 97.832 19.1104C97.7362 19.164 97.6595 19.2541 97.602 19.3806C97.5599 19.4726 97.5388 19.7121 97.5388 20.0992V25.2388C97.5388 25.6374 97.5599 25.8866 97.602 25.9862C97.6442 26.0859 97.7304 26.174 97.8608 26.2507C97.9911 26.3235 98.1655 26.3599 98.3839 26.3599H98.6369V26.5726H94.5666V26.3599H94.8195C95.0495 26.3599 95.2335 26.3196 95.3714 26.2392C95.4672 26.1855 95.5439 26.0935 95.6014 25.9632C95.6435 25.8712 95.6646 25.6298 95.6646 25.2388V19.4611L92.6751 26.5726H92.5372L89.5017 19.5128V25.0031C89.5017 25.3864 89.5113 25.6221 89.5304 25.7102C89.5802 25.9019 89.6876 26.059 89.8524 26.1817C90.021 26.3005 90.2835 26.3599 90.64 26.3599V26.5726H87.9724V26.3599H88.0529C88.2254 26.3637 88.3864 26.3369 88.5358 26.2794C88.6853 26.2181 88.7984 26.1376 88.875 26.0379C88.9517 25.9383 89.0111 25.7984 89.0533 25.6183C89.0609 25.5761 89.0647 25.3806 89.0647 25.0319V20.0992C89.0647 19.7044 89.0437 19.4591 89.0015 19.3633C88.9594 19.2637 88.8731 19.1774 88.7428 19.1046C88.6125 19.028 88.4381 18.9896 88.2196 18.9896H87.9724V18.7769H91.1574L93.3478 23.9166ZM104.386 18.5987L104.449 21.1973H104.213C104.102 20.5457 103.828 20.0225 103.391 19.6278C102.958 19.2292 102.489 19.0299 101.983 19.0299C101.592 19.0299 101.281 19.1353 101.051 19.3461C100.825 19.553 100.712 19.7926 100.712 20.0647C100.712 20.2372 100.753 20.3905 100.833 20.5246C100.944 20.7048 101.122 20.883 101.368 21.0593C101.548 21.1858 101.964 21.41 102.615 21.7319C103.527 22.1803 104.143 22.6039 104.461 23.0025C104.775 23.4011 104.932 23.8571 104.932 24.3707C104.932 25.0223 104.677 25.5838 104.167 26.0552C103.662 26.5228 103.018 26.7566 102.236 26.7566C101.99 26.7566 101.759 26.7317 101.54 26.6818C101.322 26.632 101.048 26.5381 100.718 26.4001C100.534 26.3235 100.383 26.2852 100.264 26.2852C100.164 26.2852 100.059 26.3235 99.9476 26.4001C99.8365 26.4768 99.7464 26.5937 99.6774 26.7508H99.4647V23.8073H99.6774C99.8461 24.6352 100.17 25.2676 100.649 25.7045C101.132 26.1376 101.651 26.3541 102.207 26.3541C102.636 26.3541 102.977 26.2372 103.23 26.0034C103.487 25.7697 103.616 25.4975 103.616 25.1871C103.616 25.0031 103.566 24.8249 103.466 24.6524C103.37 24.48 103.223 24.3171 103.023 24.1638C102.824 24.0066 102.471 23.8035 101.966 23.5544C101.257 23.2056 100.747 22.9086 100.436 22.6633C100.126 22.418 99.8863 22.1439 99.7177 21.8412C99.5529 21.5384 99.4705 21.2049 99.4705 20.8408C99.4705 20.2199 99.6985 19.691 100.155 19.2541C100.611 18.8172 101.186 18.5987 101.879 18.5987C102.132 18.5987 102.378 18.6294 102.615 18.6907C102.795 18.7367 103.014 18.8229 103.271 18.9494C103.531 19.072 103.713 19.1334 103.817 19.1334C103.916 19.1334 103.995 19.1027 104.052 19.0414C104.11 18.9801 104.164 18.8325 104.213 18.5987H104.386Z" fill="#373435"/>
<path d="M57.0824 30.4929V31.3878H57.1261C57.2655 31.3878 57.3666 31.344 57.4293 31.2565C57.492 31.1689 57.5319 31.0398 57.5492 30.869H57.6108V32.02H57.5492C57.5363 31.8946 57.5087 31.792 57.4666 31.712C57.4255 31.632 57.3774 31.5785 57.3223 31.5515C57.2672 31.5234 57.1872 31.5094 57.0824 31.5094V32.1286C57.0824 32.2497 57.0872 32.3237 57.097 32.3507C57.1078 32.3777 57.1272 32.3999 57.1553 32.4172C57.1834 32.4345 57.2288 32.4431 57.2915 32.4431H57.4228C57.6281 32.4431 57.7924 32.3956 57.9156 32.3005C58.0399 32.2054 58.1291 32.0605 58.1831 31.866H58.2431L58.1442 32.5647H56.2443V32.5047H56.3172C56.381 32.5047 56.4323 32.4934 56.4712 32.4707C56.4993 32.4555 56.5209 32.4296 56.5361 32.3929C56.5479 32.3669 56.5539 32.2988 56.5539 32.1886V30.7426C56.5539 30.6432 56.5512 30.5821 56.5458 30.5594C56.535 30.5216 56.515 30.4924 56.4858 30.4719C56.4447 30.4416 56.3885 30.4265 56.3172 30.4265H56.2443V30.3665H58.0842V31.0166H58.0226C57.9913 30.8577 57.9469 30.7437 57.8897 30.6745C57.8335 30.6053 57.7535 30.5545 57.6497 30.5221C57.5892 30.5027 57.4758 30.4929 57.3093 30.4929H57.0824ZM59.219 30.3665L60.3035 31.7298V30.7847C60.3035 30.6529 60.2846 30.5637 60.2467 30.5173C60.1949 30.4546 60.1079 30.4243 59.9857 30.4265V30.3665H60.712V30.4265C60.6191 30.4384 60.5564 30.454 60.5239 30.4735C60.4926 30.4919 60.4677 30.5227 60.4494 30.5659C60.4321 30.608 60.4234 30.681 60.4234 30.7847V32.615H60.3683L58.8818 30.7847V32.1821C58.8818 32.3086 58.9104 32.3939 58.9677 32.4383C59.0261 32.4826 59.0925 32.5047 59.1671 32.5047H59.219V32.5647H58.4392V32.5047C58.5603 32.5036 58.6446 32.4788 58.6921 32.4301C58.7397 32.3815 58.7634 32.2988 58.7634 32.1821V30.6307L58.7164 30.5724C58.67 30.514 58.6289 30.4756 58.5932 30.4573C58.5576 30.4389 58.5062 30.4286 58.4392 30.4265V30.3665H59.219ZM63.155 30.3665V30.4265C63.075 30.4394 63.0037 30.4821 62.941 30.5545C62.8956 30.6086 62.8281 30.7356 62.7384 30.9355L61.9813 32.615H61.9278L61.174 30.8674C61.0832 30.6567 61.0222 30.5329 60.9908 30.4962C60.9606 30.4594 60.9027 30.4362 60.8174 30.4265V30.3665H61.8711V30.4265H61.8354C61.7403 30.4265 61.6755 30.4384 61.6409 30.4621C61.616 30.4783 61.6036 30.5021 61.6036 30.5335C61.6036 30.5529 61.6079 30.5762 61.6166 30.6032C61.6252 30.6291 61.6544 30.6999 61.7041 30.8155L62.1726 31.9098L62.6071 30.9355C62.6589 30.8177 62.6908 30.7388 62.7027 30.6988C62.7146 30.6588 62.7205 30.6248 62.7205 30.5967C62.7205 30.5643 62.7119 30.5356 62.6946 30.5108C62.6773 30.4859 62.6519 30.467 62.6184 30.454C62.5719 30.4357 62.5103 30.4265 62.4336 30.4265V30.3665H63.155ZM64.4065 32.5047V32.5647H63.2571V32.5047H63.3301C63.3938 32.5047 63.4452 32.4934 63.4841 32.4707C63.5122 32.4555 63.5338 32.4296 63.5489 32.3929C63.5608 32.3669 63.5667 32.2988 63.5667 32.1886V30.7426C63.5667 30.6302 63.5608 30.5599 63.5489 30.5318C63.537 30.5037 63.5127 30.4794 63.476 30.4589C63.4403 30.4373 63.3917 30.4265 63.3301 30.4265H63.2571V30.3665H64.4065V30.4265H64.3335C64.2698 30.4265 64.2184 30.4378 64.1795 30.4605C64.1514 30.4756 64.1293 30.5016 64.113 30.5383C64.1012 30.5643 64.0952 30.6324 64.0952 30.7426V32.1886C64.0952 32.301 64.1012 32.3712 64.113 32.3993C64.126 32.4274 64.1503 32.4523 64.186 32.4739C64.2227 32.4944 64.2719 32.5047 64.3335 32.5047H64.4065ZM65.3662 31.5629V32.1789C65.3662 32.2978 65.3732 32.3729 65.3872 32.4042C65.4024 32.4345 65.4283 32.4588 65.465 32.4772C65.5018 32.4955 65.5704 32.5047 65.6709 32.5047V32.5647H64.5459V32.5047C64.6475 32.5047 64.7161 32.4955 64.7518 32.4772C64.7885 32.4577 64.8139 32.4328 64.828 32.4026C64.8431 32.3723 64.8506 32.2978 64.8506 32.1789V30.7523C64.8506 30.6334 64.8431 30.5589 64.828 30.5286C64.8139 30.4973 64.7885 30.4724 64.7518 30.454C64.715 30.4357 64.6464 30.4265 64.5459 30.4265V30.3665H65.5672C65.833 30.3665 66.0276 30.3849 66.1508 30.4216C66.274 30.4584 66.3745 30.5264 66.4523 30.6259C66.5301 30.7242 66.569 30.8399 66.569 30.9728C66.569 31.1349 66.5106 31.2689 66.3939 31.3748C66.3194 31.4418 66.2151 31.4921 66.0811 31.5256L66.6095 32.2697C66.6787 32.3658 66.7279 32.4258 66.7571 32.4496C66.8014 32.4831 66.8527 32.5015 66.9111 32.5047V32.5647H66.2188L65.5104 31.5629H65.3662ZM65.3662 30.4848V31.4478H65.4586C65.6088 31.4478 65.7212 31.4343 65.7957 31.4072C65.8703 31.3791 65.9287 31.3294 65.9708 31.2581C66.0141 31.1857 66.0357 31.0917 66.0357 30.976C66.0357 30.8085 65.9962 30.6848 65.9173 30.6048C65.8395 30.5248 65.7136 30.4848 65.5396 30.4848H65.3662ZM68.1658 30.3357C68.5159 30.3227 68.8002 30.4249 69.0185 30.6421C69.2379 30.8593 69.3476 31.1311 69.3476 31.4575C69.3476 31.7363 69.266 31.9816 69.1028 32.1935C68.8866 32.4745 68.5813 32.615 68.1869 32.615C67.7913 32.615 67.4855 32.4809 67.2693 32.2129C67.0986 32.0011 67.0132 31.7498 67.0132 31.4591C67.0132 31.1327 67.124 30.8609 67.3455 30.6437C67.5681 30.4254 67.8416 30.3227 68.1658 30.3357ZM68.1852 30.4394C67.9842 30.4394 67.8313 30.5421 67.7265 30.7475C67.6411 30.916 67.5984 31.1581 67.5984 31.4737C67.5984 31.8487 67.6643 32.1259 67.7962 32.3053C67.888 32.4307 68.0166 32.4934 68.182 32.4934C68.2933 32.4934 68.3863 32.4664 68.4608 32.4123C68.5559 32.3431 68.63 32.2329 68.6829 32.0816C68.7359 31.9292 68.7623 31.7309 68.7623 31.4867C68.7623 31.196 68.7353 30.9787 68.6813 30.835C68.6273 30.6902 68.5581 30.588 68.4738 30.5286C68.3906 30.4692 68.2944 30.4394 68.1852 30.4394ZM70.2943 30.3665L71.3788 31.7298V30.7847C71.3788 30.6529 71.3599 30.5637 71.3221 30.5173C71.2702 30.4546 71.1832 30.4243 71.0611 30.4265V30.3665H71.7873V30.4265C71.6944 30.4384 71.6317 30.454 71.5993 30.4735C71.5679 30.4919 71.5431 30.5227 71.5247 30.5659C71.5074 30.608 71.4988 30.681 71.4988 30.7847V32.615H71.4436L69.9571 30.7847V32.1821C69.9571 32.3086 69.9857 32.3939 70.043 32.4383C70.1014 32.4826 70.1678 32.5047 70.2424 32.5047H70.2943V32.5647H69.5145V32.5047C69.6356 32.5036 69.7199 32.4788 69.7674 32.4301C69.815 32.3815 69.8388 32.2988 69.8388 32.1821V30.6307L69.7917 30.5724C69.7453 30.514 69.7042 30.4756 69.6685 30.4573C69.6329 30.4389 69.5815 30.4286 69.5145 30.4265V30.3665H70.2943ZM73.4489 31.8158L74.0455 30.3665H74.9403V30.4265H74.869C74.8042 30.4265 74.7523 30.4378 74.7134 30.4605C74.6864 30.4756 74.6647 30.501 74.6485 30.5367C74.6366 30.5626 74.6307 30.6302 74.6307 30.7393V32.1886C74.6307 32.301 74.6366 32.3712 74.6485 32.3993C74.6604 32.4274 74.6847 32.4523 74.7215 32.4739C74.7582 32.4944 74.8074 32.5047 74.869 32.5047H74.9403V32.5647H73.7926V32.5047H73.8639C73.9288 32.5047 73.9806 32.4934 74.0196 32.4707C74.0466 32.4555 74.0682 32.4296 74.0844 32.3929C74.0963 32.3669 74.1022 32.2988 74.1022 32.1886V30.5594L73.2593 32.5647H73.2204L72.3644 30.574V32.1221C72.3644 32.2302 72.3671 32.2967 72.3725 32.3215C72.3866 32.3756 72.4168 32.4199 72.4633 32.4545C72.5109 32.488 72.5849 32.5047 72.6854 32.5047V32.5647H71.9332V32.5047H71.9559C72.0045 32.5058 72.0499 32.4982 72.0921 32.482C72.1342 32.4647 72.1661 32.442 72.1877 32.4139C72.2093 32.3858 72.2261 32.3464 72.238 32.2956C72.2401 32.2837 72.2412 32.2286 72.2412 32.1302V30.7393C72.2412 30.628 72.2353 30.5589 72.2234 30.5318C72.2115 30.5037 72.1872 30.4794 72.1504 30.4589C72.1137 30.4373 72.0645 30.4265 72.0029 30.4265H71.9332V30.3665H72.8313L73.4489 31.8158ZM75.9065 30.4929V31.3878H75.9503C76.0897 31.3878 76.1907 31.344 76.2534 31.2565C76.3161 31.1689 76.3561 31.0398 76.3734 30.869H76.435V32.02H76.3734C76.3604 31.8946 76.3329 31.792 76.2907 31.712C76.2496 31.632 76.2015 31.5785 76.1464 31.5515C76.0913 31.5234 76.0113 31.5094 75.9065 31.5094V32.1286C75.9065 32.2497 75.9114 32.3237 75.9211 32.3507C75.9319 32.3777 75.9514 32.3999 75.9795 32.4172C76.0076 32.4345 76.0529 32.4431 76.1156 32.4431H76.2469C76.4523 32.4431 76.6165 32.3956 76.7397 32.3005C76.864 32.2054 76.9532 32.0605 77.0072 31.866H77.0672L76.9683 32.5647H75.0684V32.5047H75.1414C75.2051 32.5047 75.2564 32.4934 75.2954 32.4707C75.3235 32.4555 75.3451 32.4296 75.3602 32.3929C75.3721 32.3669 75.378 32.2988 75.378 32.1886V30.7426C75.378 30.6432 75.3753 30.5821 75.3699 30.5594C75.3591 30.5216 75.3391 30.4924 75.3099 30.4719C75.2689 30.4416 75.2127 30.4265 75.1414 30.4265H75.0684V30.3665H76.9083V31.0166H76.8467C76.8154 30.8577 76.7711 30.7437 76.7138 30.6745C76.6576 30.6053 76.5776 30.5545 76.4739 30.5221C76.4134 30.5027 76.2999 30.4929 76.1335 30.4929H75.9065ZM78.0431 30.3665L79.1276 31.7298V30.7847C79.1276 30.6529 79.1087 30.5637 79.0709 30.5173C79.019 30.4546 78.932 30.4243 78.8099 30.4265V30.3665H79.5361V30.4265C79.4432 30.4384 79.3805 30.454 79.3481 30.4735C79.3167 30.4919 79.2919 30.5227 79.2735 30.5659C79.2562 30.608 79.2476 30.681 79.2476 30.7847V32.615H79.1925L77.7059 30.7847V32.1821C77.7059 32.3086 77.7346 32.3939 77.7918 32.4383C77.8502 32.4826 77.9167 32.5047 77.9912 32.5047H78.0431V32.5647H77.2634V32.5047C77.3844 32.5036 77.4687 32.4788 77.5163 32.4301C77.5638 32.3815 77.5876 32.2988 77.5876 32.1821V30.6307L77.5406 30.5724C77.4941 30.514 77.453 30.4756 77.4174 30.4573C77.3817 30.4389 77.3304 30.4286 77.2634 30.4265V30.3665H78.0431ZM81.71 30.3665V30.9614H81.6517C81.6171 30.8242 81.5787 30.7258 81.5366 30.6664C81.4944 30.6059 81.4366 30.5578 81.3631 30.5221C81.322 30.5027 81.2502 30.4929 81.1475 30.4929H80.9838V32.1886C80.9838 32.301 80.9897 32.3712 81.0016 32.3993C81.0146 32.4274 81.0389 32.4523 81.0746 32.4739C81.1113 32.4944 81.161 32.5047 81.2237 32.5047H81.2966V32.5647H80.1457V32.5047H80.2186C80.2824 32.5047 80.3337 32.4934 80.3726 32.4707C80.4007 32.4555 80.4229 32.4296 80.4391 32.3929C80.451 32.3669 80.4569 32.2988 80.4569 32.1886V30.4929H80.2981C80.15 30.4929 80.0425 30.5243 79.9755 30.587C79.8814 30.6745 79.822 30.7993 79.7971 30.9614H79.7355V30.3665H81.71ZM82.9647 31.939H82.1882L82.0958 32.1529C82.0656 32.2243 82.0505 32.2832 82.0505 32.3296C82.0505 32.3912 82.0753 32.4366 82.125 32.4658C82.1542 32.4831 82.2261 32.4961 82.3406 32.5047V32.5647H81.6095V32.5047C81.6884 32.4928 81.7533 32.4604 81.804 32.4075C81.8548 32.3534 81.9175 32.2426 81.9921 32.0751L82.7783 30.3211H82.8091L83.6018 32.1238C83.6775 32.2945 83.7396 32.402 83.7883 32.4464C83.825 32.4799 83.8769 32.4993 83.9439 32.5047V32.5647H82.8805V32.5047H82.9242C83.0096 32.5047 83.0696 32.4928 83.1042 32.4691C83.1279 32.4518 83.1398 32.4269 83.1398 32.3945C83.1398 32.375 83.1366 32.355 83.1301 32.3345C83.1279 32.3248 83.1117 32.2842 83.0815 32.2129L82.9647 31.939ZM82.9096 31.819L82.5822 31.0619L82.245 31.819H82.9096ZM86.0789 31.7931L85.9962 32.5647H84.0444V32.5047H84.1173C84.1811 32.5047 84.2324 32.4934 84.2714 32.4707C84.2994 32.4555 84.3211 32.4296 84.3362 32.3929C84.3481 32.3669 84.354 32.2988 84.354 32.1886V30.7426C84.354 30.6302 84.3481 30.5599 84.3362 30.5318C84.3243 30.5037 84.3 30.4794 84.2632 30.4589C84.2276 30.4373 84.1789 30.4265 84.1173 30.4265H84.0444V30.3665H85.2164V30.4265H85.1208C85.057 30.4265 85.0057 30.4378 84.9668 30.4605C84.9387 30.4756 84.9165 30.5016 84.9003 30.5383C84.8884 30.5643 84.8825 30.6324 84.8825 30.7426V32.1432C84.8825 32.2556 84.889 32.3275 84.902 32.3588C84.9149 32.3891 84.9403 32.4118 84.9781 32.4269C85.0052 32.4366 85.0705 32.4415 85.1743 32.4415H85.3575C85.4742 32.4415 85.5715 32.421 85.6493 32.3799C85.7271 32.3388 85.7941 32.274 85.8503 32.1854C85.9076 32.0967 85.9616 31.966 86.0124 31.7931H86.0789ZM88.4019 30.3162L88.4197 31.049H88.3533C88.3219 30.8653 88.2447 30.7177 88.1214 30.6064C87.9993 30.494 87.8669 30.4378 87.7243 30.4378C87.614 30.4378 87.5265 30.4675 87.4617 30.527C87.3979 30.5853 87.366 30.6529 87.366 30.7296C87.366 30.7783 87.3774 30.8215 87.4001 30.8593C87.4314 30.9101 87.4817 30.9604 87.5508 31.0101C87.6016 31.0457 87.7189 31.109 87.9026 31.1997C88.1598 31.3262 88.3333 31.4456 88.423 31.558C88.5116 31.6704 88.5559 31.799 88.5559 31.9438C88.5559 32.1275 88.484 32.2859 88.3403 32.4188C88.1976 32.5506 88.0161 32.6166 87.7956 32.6166C87.7264 32.6166 87.6611 32.6095 87.5995 32.5955C87.5379 32.5814 87.4606 32.555 87.3676 32.5161C87.3158 32.4944 87.2731 32.4836 87.2396 32.4836C87.2115 32.4836 87.1818 32.4944 87.1504 32.5161C87.1191 32.5377 87.0937 32.5706 87.0742 32.615H87.0142V31.785H87.0742C87.1218 32.0184 87.2131 32.1967 87.3482 32.3199C87.4844 32.442 87.6308 32.5031 87.7875 32.5031C87.9085 32.5031 88.0047 32.4701 88.0761 32.4042C88.1485 32.3383 88.1847 32.2616 88.1847 32.174C88.1847 32.1221 88.1706 32.0719 88.1425 32.0233C88.1155 31.9746 88.0739 31.9287 88.0177 31.8855C87.9615 31.8411 87.8621 31.7839 87.7194 31.7136C87.5195 31.6153 87.3757 31.5315 87.2882 31.4624C87.2007 31.3932 87.1331 31.3159 87.0856 31.2305C87.0391 31.1452 87.0159 31.0511 87.0159 30.9485C87.0159 30.7734 87.0802 30.6242 87.2088 30.501C87.3374 30.3778 87.4995 30.3162 87.6951 30.3162C87.7664 30.3162 87.8356 30.3249 87.9026 30.3422C87.9534 30.3551 88.015 30.3795 88.0874 30.4151C88.1609 30.4497 88.2122 30.467 88.2414 30.467C88.2695 30.467 88.2917 30.4584 88.3079 30.4411C88.3241 30.4238 88.3392 30.3822 88.3533 30.3162H88.4019ZM89.595 30.4929V31.3878H89.6388C89.7782 31.3878 89.8793 31.344 89.9419 31.2565C90.0046 31.1689 90.0446 31.0398 90.0619 30.869H90.1235V32.02H90.0619C90.0489 31.8946 90.0214 31.792 89.9792 31.712C89.9382 31.632 89.8901 31.5785 89.8349 31.5515C89.7798 31.5234 89.6999 31.5094 89.595 31.5094V32.1286C89.595 32.2497 89.5999 32.3237 89.6096 32.3507C89.6204 32.3777 89.6399 32.3999 89.668 32.4172C89.6961 32.4345 89.7415 32.4431 89.8041 32.4431H89.9355C90.1408 32.4431 90.3051 32.3956 90.4283 32.3005C90.5525 32.2054 90.6417 32.0605 90.6957 31.866H90.7557L90.6568 32.5647H88.7569V32.5047H88.8299C88.8936 32.5047 88.945 32.4934 88.9839 32.4707C89.012 32.4555 89.0336 32.4296 89.0487 32.3929C89.0606 32.3669 89.0665 32.2988 89.0665 32.1886V30.7426C89.0665 30.6432 89.0638 30.5821 89.0584 30.5594C89.0476 30.5216 89.0276 30.4924 88.9985 30.4719C88.9574 30.4416 88.9012 30.4265 88.8299 30.4265H88.7569V30.3665H90.5969V31.0166H90.5353C90.5039 30.8577 90.4596 30.7437 90.4023 30.6745C90.3461 30.6053 90.2662 30.5545 90.1624 30.5221C90.1019 30.5027 89.9884 30.4929 89.822 30.4929H89.595ZM91.7867 31.5629V32.1789C91.7867 32.2978 91.7938 32.3729 91.8078 32.4042C91.8229 32.4345 91.8489 32.4588 91.8856 32.4772C91.9224 32.4955 91.991 32.5047 92.0915 32.5047V32.5647H90.9665V32.5047C91.0681 32.5047 91.1367 32.4955 91.1723 32.4772C91.2091 32.4577 91.2345 32.4328 91.2485 32.4026C91.2637 32.3723 91.2712 32.2978 91.2712 32.1789V30.7523C91.2712 30.6334 91.2637 30.5589 91.2485 30.5286C91.2345 30.4973 91.2091 30.4724 91.1723 30.454C91.1356 30.4357 91.067 30.4265 90.9665 30.4265V30.3665H91.9878C92.2536 30.3665 92.4481 30.3849 92.5713 30.4216C92.6946 30.4584 92.7951 30.5264 92.8729 30.6259C92.9507 30.7242 92.9896 30.8399 92.9896 30.9728C92.9896 31.1349 92.9312 31.2689 92.8145 31.3748C92.7399 31.4418 92.6357 31.4921 92.5016 31.5256L93.0301 32.2697C93.0993 32.3658 93.1485 32.4258 93.1776 32.4496C93.2219 32.4831 93.2733 32.5015 93.3316 32.5047V32.5647H92.6394L91.931 31.5629H91.7867ZM91.7867 30.4848V31.4478H91.8791C92.0294 31.4478 92.1418 31.4343 92.2163 31.4072C92.2909 31.3791 92.3493 31.3294 92.3914 31.2581C92.4346 31.1857 92.4563 31.0917 92.4563 30.976C92.4563 30.8085 92.4168 30.6848 92.3379 30.6048C92.2601 30.5248 92.1342 30.4848 91.9602 30.4848H91.7867ZM95.5509 30.3665V30.4265C95.4709 30.4394 95.3996 30.4821 95.3369 30.5545C95.2915 30.6086 95.224 30.7356 95.1343 30.9355L94.3772 32.615H94.3238L93.5699 30.8674C93.4792 30.6567 93.4181 30.5329 93.3868 30.4962C93.3565 30.4594 93.2987 30.4362 93.2133 30.4265V30.3665H94.267V30.4265H94.2314C94.1362 30.4265 94.0714 30.4384 94.0368 30.4621C94.012 30.4783 93.9995 30.5021 93.9995 30.5335C93.9995 30.5529 94.0039 30.5762 94.0125 30.6032C94.0211 30.6291 94.0503 30.6999 94.1 30.8155L94.5685 31.9098L95.003 30.9355C95.0549 30.8177 95.0867 30.7388 95.0986 30.6988C95.1105 30.6588 95.1165 30.6248 95.1165 30.5967C95.1165 30.5643 95.1078 30.5356 95.0905 30.5108C95.0732 30.4859 95.0478 30.467 95.0143 30.454C94.9679 30.4357 94.9063 30.4265 94.8295 30.4265V30.3665H95.5509ZM96.8024 32.5047V32.5647H95.6531V32.5047H95.726C95.7898 32.5047 95.8411 32.4934 95.88 32.4707C95.9081 32.4555 95.9297 32.4296 95.9448 32.3929C95.9567 32.3669 95.9627 32.2988 95.9627 32.1886V30.7426C95.9627 30.6302 95.9567 30.5599 95.9448 30.5318C95.933 30.5037 95.9086 30.4794 95.8719 30.4589C95.8362 30.4373 95.7876 30.4265 95.726 30.4265H95.6531V30.3665H96.8024V30.4265H96.7295C96.6657 30.4265 96.6144 30.4378 96.5755 30.4605C96.5474 30.4756 96.5252 30.5016 96.509 30.5383C96.4971 30.5643 96.4912 30.6324 96.4912 30.7426V32.1886C96.4912 32.301 96.4971 32.3712 96.509 32.3993C96.522 32.4274 96.5463 32.4523 96.5819 32.4739C96.6187 32.4944 96.6679 32.5047 96.7295 32.5047H96.8024ZM99.0963 30.3162V31.0782H99.033C98.9855 30.8793 98.8969 30.7269 98.7672 30.621C98.6375 30.5151 98.4905 30.4621 98.3262 30.4621C98.189 30.4621 98.0631 30.5016 97.9485 30.5805C97.834 30.6594 97.7502 30.7626 97.6972 30.8901C97.6292 31.0533 97.5951 31.2349 97.5951 31.4348C97.5951 31.6315 97.62 31.8109 97.6697 31.973C97.7194 32.134 97.7972 32.2561 97.9031 32.3394C98.009 32.4215 98.1463 32.4626 98.3149 32.4626C98.4532 32.4626 98.5797 32.4323 98.6942 32.3718C98.8099 32.3113 98.9314 32.207 99.059 32.0589V32.2486C98.9358 32.3772 98.8072 32.4707 98.6731 32.529C98.5402 32.5863 98.3846 32.615 98.2063 32.615C97.9718 32.615 97.7632 32.5679 97.5805 32.4739C97.399 32.3799 97.2585 32.2448 97.159 32.0686C97.0607 31.8925 97.0115 31.705 97.0115 31.5061C97.0115 31.2965 97.0661 31.0976 97.1753 30.9096C97.2855 30.7215 97.4336 30.5756 97.6194 30.4719C97.8064 30.3681 98.0047 30.3162 98.2144 30.3162C98.3689 30.3162 98.5321 30.3497 98.7039 30.4167C98.8034 30.4557 98.8666 30.4751 98.8936 30.4751C98.9282 30.4751 98.9579 30.4627 98.9828 30.4378C99.0087 30.4119 99.0255 30.3714 99.033 30.3162H99.0963ZM100.184 30.4929V31.3878H100.228C100.367 31.3878 100.468 31.344 100.531 31.2565C100.594 31.1689 100.634 31.0398 100.651 30.869H100.712V32.02H100.651C100.638 31.8946 100.61 31.792 100.568 31.712C100.527 31.632 100.479 31.5785 100.424 31.5515C100.369 31.5234 100.289 31.5094 100.184 31.5094V32.1286C100.184 32.2497 100.189 32.3237 100.199 32.3507C100.209 32.3777 100.229 32.3999 100.257 32.4172C100.285 32.4345 100.33 32.4431 100.393 32.4431H100.524C100.73 32.4431 100.894 32.3956 101.017 32.3005C101.142 32.2054 101.231 32.0605 101.285 31.866H101.345L101.246 32.5647H99.3459V32.5047H99.4189C99.4826 32.5047 99.5339 32.4934 99.5729 32.4707C99.601 32.4555 99.6226 32.4296 99.6377 32.3929C99.6496 32.3669 99.6555 32.2988 99.6555 32.1886V30.7426C99.6555 30.6432 99.6528 30.5821 99.6474 30.5594C99.6366 30.5216 99.6166 30.4924 99.5874 30.4719C99.5464 30.4416 99.4902 30.4265 99.4189 30.4265H99.3459V30.3665H101.186V31.0166H101.124C101.093 30.8577 101.049 30.7437 100.991 30.6745C100.935 30.6053 100.855 30.5545 100.751 30.5221C100.691 30.5027 100.577 30.4929 100.411 30.4929H100.184ZM103.053 30.3162L103.071 31.049H103.005C102.973 30.8653 102.896 30.7177 102.773 30.6064C102.651 30.494 102.518 30.4378 102.376 30.4378C102.265 30.4378 102.178 30.4675 102.113 30.527C102.049 30.5853 102.017 30.6529 102.017 30.7296C102.017 30.7783 102.029 30.8215 102.052 30.8593C102.083 30.9101 102.133 30.9604 102.202 31.0101C102.253 31.0457 102.37 31.109 102.554 31.1997C102.811 31.3262 102.985 31.4456 103.074 31.558C103.163 31.6704 103.207 31.799 103.207 31.9438C103.207 32.1275 103.135 32.2859 102.992 32.4188C102.849 32.5506 102.668 32.6166 102.447 32.6166C102.378 32.6166 102.313 32.6095 102.251 32.5955C102.189 32.5814 102.112 32.555 102.019 32.5161C101.967 32.4944 101.925 32.4836 101.891 32.4836C101.863 32.4836 101.833 32.4944 101.802 32.5161C101.771 32.5377 101.745 32.5706 101.726 32.615H101.666V31.785H101.726C101.773 32.0184 101.865 32.1967 102 32.3199C102.136 32.442 102.282 32.5031 102.439 32.5031C102.56 32.5031 102.656 32.4701 102.728 32.4042C102.8 32.3383 102.836 32.2616 102.836 32.174C102.836 32.1221 102.822 32.0719 102.794 32.0233C102.767 31.9746 102.725 31.9287 102.669 31.8855C102.613 31.8411 102.514 31.7839 102.371 31.7136C102.171 31.6153 102.027 31.5315 101.94 31.4624C101.852 31.3932 101.785 31.3159 101.737 31.2305C101.691 31.1452 101.667 31.0511 101.667 30.9485C101.667 30.7734 101.732 30.6242 101.86 30.501C101.989 30.3778 102.151 30.3162 102.347 30.3162C102.418 30.3162 102.487 30.3249 102.554 30.3422C102.605 30.3551 102.666 30.3795 102.739 30.4151C102.812 30.4497 102.864 30.467 102.893 30.467C102.921 30.467 102.943 30.4584 102.959 30.4411C102.976 30.4238 102.991 30.3822 103.005 30.3162H103.053Z" fill="#00A652"/>
</svg>
