<?xml version="1.0" encoding="UTF-8"?>
<!DOCTYPE svg PUBLIC "-//W3C//DTD SVG 1.1//EN" "http://www.w3.org/Graphics/SVG/1.1/DTD/svg11.dtd">
<!-- Creator: CorelDRAW 2020 (64-Bit) -->
<svg xmlns="http://www.w3.org/2000/svg" xml:space="preserve" width="35mm" height="70mm" version="1.1" shape-rendering="geometricPrecision" text-rendering="geometricPrecision" image-rendering="optimizeQuality" fill-rule="evenodd" clip-rule="evenodd"
viewBox="0 0 3500 7000"
 xmlns:xlink="http://www.w3.org/1999/xlink"
 xmlns:xodm="http://www.corel.com/coreldraw/odm/2003">
 <g id="Layer_x0020_1">
  <metadata id="CorelCorpID_0Corel-Layer"/>
  <g id="_1439795464960">
   <circle fill="#00A652" cx="1681.84" cy="2115.96" r="1587.51"/>
   <circle fill="#00A652" cx="2755.85" cy="4322.87" r="704.07"/>
   <circle fill="#00A652" cx="214.24" cy="4925.04" r="179.37"/>
   <path fill="#A67707" d="M1787.68 6957.87l-177.5 26.46c11.95,-1553.35 -27.58,-3147.88 35.85,-4660.04l51.05 61.61c30.2,1523.99 60.4,3047.98 90.6,4571.97z"/>
   <path fill="#A67707" d="M1684.22 3016.54l-18.84 86.94c-176.44,-55.91 -346.28,-164.75 -515.65,-226.99l9.38 -5.55c175.03,48.53 350.07,97.06 525.11,145.6z"/>
   <path fill="#A67707" d="M1648.16 3420.51l34.53 145.29c323.35,-233.91 634.61,-559.91 945.01,-800.16l-17.19 -3.19c-320.77,219.35 -641.56,438.69 -962.35,658.06z"/>
   <path fill="#A67707" d="M1653.99 4789.66l34.53 152.99c323.35,-161.87 625.8,-381.1 936.2,-552.19l-8.38 -44.44c-320.77,147.88 -641.56,295.75 -962.35,443.64z"/>
   <path fill="#A67707" d="M1662.56 5394.47l-49.31 152.99c-461.81,-161.87 -893.77,-381.1 -1337.08,-552.19l11.97 -44.44c458.12,147.88 916.27,295.75 1374.42,443.64z"/>
  </g>
 </g>
</svg>
