<svg width="174" height="79" viewBox="0 0 174 79" fill="none" xmlns="http://www.w3.org/2000/svg">
<g id="Layer x0020 1">
<g id="1439839168480">
<g id="Group">
<path id="Vector" fill-rule="evenodd" clip-rule="evenodd" d="M79.3663 59.3965H96.7714C101.079 61.738 103.609 69.9958 108.815 75.8252L70.5028 75.6719L72.7565 70.9595L0.694931 70.6307C2.4328 69.4825 -2.36608 67.5076 6.70457 66.3082C14.165 65.3216 46.7573 65.9115 74.9004 66.012C76.8028 65.727 76.108 61.93 79.3663 59.3965V59.3965Z" fill="#373435" stroke="#373435" stroke-width="0.2" stroke-miterlimit="22.9256"/>
<path id="Vector_2" d="M13.5751 68.0381H8.35349V68.7295H13.5751V68.0381Z" fill="white"/>
<path id="Vector_3" d="M22.4514 68.0381H17.2299V68.7295H22.4514V68.0381Z" fill="white"/>
<path id="Vector_4" d="M31.3278 68.0381H26.1062V68.7295H31.3278V68.0381Z" fill="white"/>
<g id="Group_2">
<path id="Vector_5" d="M40.2044 68.0381H34.9828V68.7295H40.2044V68.0381Z" fill="white"/>
<path id="Vector_6" d="M49.0808 68.0381H43.8592V68.7295H49.0808V68.0381Z" fill="white"/>
<path id="Vector_7" d="M57.9571 68.0381H52.7355V68.7295H57.9571V68.0381Z" fill="white"/>
<path id="Vector_8" d="M66.8337 68.0381H61.6121V68.7295H66.8337V68.0381Z" fill="white"/>
<path id="Vector_9" d="M75.7101 68.0381H70.4885V68.7295H75.7101V68.0381Z" fill="white"/>
<path id="Vector_10" d="M88.0322 68.0333L88.0322 71.7352L89.4247 71.7352L89.4247 68.0333L88.0322 68.0333Z" fill="white"/>
<path id="Vector_11" d="M88.0322 63.6261L88.0322 66.2186L89.4247 66.2186L89.4247 63.6261L88.0322 63.6261Z" fill="white"/>
<path id="Vector_12" d="M88.0322 59.219L88.0322 61.8115L89.4247 61.8115L89.4247 59.219L88.0322 59.219Z" fill="white"/>
</g>
</g>
<g id="Group_3">
<path id="Vector_13" fill-rule="evenodd" clip-rule="evenodd" d="M39.2016 60.3359L39.0571 60.7358C38.7377 60.8327 37.3479 60.7868 36.3014 60.7777L36.3046 60.2519L39.1261 60.3097C39.1404 60.2881 39.1759 60.3245 39.2016 60.3359V60.3359ZM8.98731 60.2522L12.3609 60.2649L12.3771 60.7795L8.97707 60.7649L8.98731 60.2522ZM39.1666 59.0105L39.1838 59.9407L36.2973 59.9419L36.2996 58.9174L36.0066 58.9625L36.0164 58.7152C35.8642 58.8999 35.7818 58.9393 35.413 58.9204L35.4101 59.4457L35.4078 60.7779C35.2472 60.769 35.0606 60.7879 34.9182 60.7711C34.5385 60.726 34.8197 60.8291 34.5774 60.6623C34.2439 60.9231 29.2571 60.7831 28.9732 60.7695L23.2402 60.7945L21.5963 60.7957L16.791 60.7877L15.9292 60.8025L12.6906 60.7713L12.6933 59.0109C12.9811 58.8187 13.0618 58.9297 13.0971 58.4408C13.1173 58.1623 13.1087 57.7594 12.972 57.526C12.8084 57.8514 12.5038 58.2786 12.3882 58.5723C12.249 58.9267 12.3875 59.4844 12.3618 59.9494L8.97389 59.9455C8.94341 58.8433 9.09856 59.0271 8.7969 58.9327C8.581 59.04 8.6629 58.9172 8.65016 59.3319L8.66699 60.3407C8.6613 60.4373 8.6588 60.4824 8.63469 60.5766C8.57827 60.7963 8.64743 60.6419 8.53481 60.782C7.83207 60.7699 6.87202 60.6389 6.53509 61.0741C6.06644 61.6793 6.63496 62.1673 7.32087 62.1857C17.987 62.4712 29.3995 62.0935 39.8986 62.2314C40.5989 62.2407 41.3048 62.167 41.4639 61.7905C41.9616 60.6118 40.3229 60.7779 39.5551 60.7768L39.5608 59.0109C39.5811 59 39.6113 58.9914 39.625 58.9845C40.2681 58.6524 39.865 57.5399 39.8627 57.5367C39.6188 57.855 39.1964 58.5582 39.1666 59.0105V59.0105Z" fill="#715D5D"/>
<path id="Vector_14" fill-rule="evenodd" clip-rule="evenodd" d="M28.9732 60.7695C29.2571 60.7832 34.2439 60.9231 34.5774 60.6624C34.4032 60.2872 33.9959 59.92 33.8883 59.6318C33.6142 59.4664 33.1813 58.9024 32.2182 58.2668C31.8008 58.0079 31.0839 57.7444 30.7691 57.5406L29.5733 57.2594L28.9218 57.2348C28.9256 58.2095 28.8183 59.8873 28.9732 60.7695V60.7695Z" fill="#E5AB4A"/>
<path id="Vector_15" fill-rule="evenodd" clip-rule="evenodd" d="M26.723 57.7062L25.5996 58.2811C25.3876 58.4269 24.9938 58.7721 24.7779 58.871C24.2244 59.4716 23.6219 59.8866 23.2402 60.7945L28.9732 60.7695C28.8183 59.8873 28.9256 58.2095 28.9218 57.2348L28.6881 57.2444C28.0147 57.3183 27.2585 57.4398 26.723 57.7062V57.7062Z" fill="#FDD38D"/>
<path id="Vector_16" fill-rule="evenodd" clip-rule="evenodd" d="M33.6469 56.3735L34.819 56.3528L34.8245 58.5179L33.657 58.5084L33.6469 56.3735ZM32.2182 58.2668C33.1813 58.9024 33.6142 59.4664 33.8883 59.6318L33.8929 59.637L35.3006 59.5983L35.4101 59.4457L35.413 58.9204L35.1753 58.871L35.8978 57.4505C35.9103 57.4457 36.0534 57.4034 36.0632 57.3993C36.1476 57.3625 36.131 57.5062 36.2059 57.3206C36.3722 56.9079 36.2493 56.0275 36.2423 55.5334C35.3598 55.7693 33.3321 55.5083 32.2494 55.6325L32.2182 58.2668V58.2668Z" fill="#98340B"/>
<path id="Vector_17" fill-rule="evenodd" clip-rule="evenodd" d="M19.2665 58.297C19.1425 58.5543 18.7983 58.6249 18.5337 58.8078C18.308 58.9636 18.0766 59.1552 17.8737 59.3383C17.5108 59.6659 16.9464 60.2246 16.791 60.7877L21.5963 60.7957L21.5624 57.8364C20.9331 57.827 20.7884 57.8659 20.3039 58.0147C19.9863 58.1125 19.5067 58.2804 19.2665 58.297V58.297Z" fill="#FDD593"/>
<path id="Vector_18" fill-rule="evenodd" clip-rule="evenodd" d="M24.1242 58.5066C24.2987 58.7343 24.4735 58.8644 24.7779 58.871C24.9938 58.7721 25.3876 58.4269 25.5996 58.2813C25.4722 58.0438 25.5234 57.6291 25.5254 57.355C25.5279 57.0374 25.5241 56.7198 25.5243 56.3644L26.7246 56.3483L26.723 57.7062C27.2585 57.4396 28.0147 57.3183 28.6881 57.2444L28.1851 57.2449L28.1744 52.1188C27.4872 52.0765 24.6304 55.5306 24.0938 55.6576L24.1242 58.5066V58.5066Z" fill="#EA5E28"/>
<path id="Vector_19" fill-rule="evenodd" clip-rule="evenodd" d="M21.5963 60.7957L23.2402 60.7945C23.6219 59.8866 24.2244 59.4716 24.7779 58.871C24.4735 58.8644 24.2987 58.7343 24.1243 58.5066C23.7916 58.4442 23.3712 58.1881 22.946 58.0441C22.5156 57.8982 22.0986 57.8136 21.5624 57.8364L21.5963 60.7957V60.7957Z" fill="#E5AB4A"/>
<path id="Vector_20" fill-rule="evenodd" clip-rule="evenodd" d="M28.6881 57.2444L28.9218 57.2346L29.5733 57.2594L29.5927 56.3917L30.7816 56.3451L30.7691 57.5408C31.0839 57.7444 31.801 58.0079 32.2182 58.267L32.2494 48.7263L28.1676 48.7079L28.1851 57.2449L28.6881 57.2444V57.2444Z" fill="#A67707"/>
<path id="Vector_21" fill-rule="evenodd" clip-rule="evenodd" d="M36.6977 58.929L36.2996 58.9174L36.2973 59.9419L39.1838 59.9407L39.1665 59.0105C38.7413 58.8328 38.6353 58.8819 38.2852 58.9593L37.5875 58.9607C37.342 58.8965 37.4021 58.8904 37.2417 58.8979L36.6977 58.929V58.929Z" fill="#FAFAFA"/>
<path id="Vector_22" fill-rule="evenodd" clip-rule="evenodd" d="M33.657 58.5084L34.8245 58.5179L34.819 56.3528L33.647 56.3735L33.657 58.5084Z" fill="#341408"/>
<path id="Vector_23" fill-rule="evenodd" clip-rule="evenodd" d="M25.5996 58.2811L26.723 57.7062L26.7246 56.3483L25.5241 56.3644C25.5238 56.7198 25.5279 57.0374 25.5254 57.355C25.5234 57.6291 25.4722 58.0438 25.5996 58.2811Z" fill="#753518" stroke="#BDBFC1" stroke-width="0.2" stroke-miterlimit="22.9256"/>
<path id="Vector_24" fill-rule="evenodd" clip-rule="evenodd" d="M36.3014 60.7777C37.3479 60.7868 38.7377 60.8328 39.0571 60.7358L39.2016 60.3359C39.1759 60.3245 39.1404 60.2881 39.1261 60.3097L36.3046 60.252L36.3014 60.7777V60.7777Z" fill="#FDFDFD"/>
<path id="Vector_25" fill-rule="evenodd" clip-rule="evenodd" d="M33.8883 59.6318C33.9959 59.92 34.4032 60.2872 34.5774 60.6624C34.8197 60.8291 34.5385 60.7261 34.9182 60.7711C35.0606 60.7879 35.2472 60.7691 35.4078 60.7779L35.4101 59.4457L35.3006 59.5984L33.8929 59.637L33.8883 59.6318V59.6318Z" fill="#4E230D"/>
<path id="Vector_26" fill-rule="evenodd" clip-rule="evenodd" d="M29.5733 57.2594L30.7691 57.5408L30.7816 50.9736L29.5927 56.3917L29.5733 57.2594Z" fill="#551A05"/>
<path id="Vector_27" fill-rule="evenodd" clip-rule="evenodd" d="M9.78107 57.3882C9.71509 57.8994 9.25054 58.4026 9.08788 58.8885L9.83135 58.9093C10.0388 58.6181 10.4793 57.7861 10.6155 57.4173L9.78107 57.3882V57.3882Z" fill="#C70506"/>
<path id="Vector_28" fill-rule="evenodd" clip-rule="evenodd" d="M11.359 57.4048C11.3246 57.9576 10.8114 58.366 10.704 58.9061L11.4559 58.9011L12.2262 57.4551L11.359 57.4048Z" fill="#C70506"/>
<path id="Vector_29" fill-rule="evenodd" clip-rule="evenodd" d="M35.4128 58.9204C35.782 58.9395 39.5624 59.1131 39.7146 58.9284C39.9132 58.484 40.1195 57.8821 40.1539 57.3989L36.2709 57.3873L35.8976 57.4507L35.1753 58.871L35.4128 58.9204V58.9204Z" fill="#E4E3E3"/>
<path id="Vector_30" fill-rule="evenodd" clip-rule="evenodd" d="M8.27843 57.438L8.24658 58.7507C8.55803 58.4925 8.98209 57.7151 8.96298 57.2724C8.87016 57.0192 9.00507 57.2114 8.7969 57.107C8.47431 57.3345 8.87653 57.4269 8.27843 57.438V57.438Z" fill="#B10E0F"/>
<g id="Group_4">
<g id="Group_5">
<path id="Vector_31" fill-rule="evenodd" clip-rule="evenodd" d="M16.9651 60.1646L16.9785 61.2693H15.8869L16.9651 60.1646ZM15.5182 60.9006L15.5052 60.1234H16.2691L15.5182 60.9006ZM16.9785 58.3773V59.6322H15.778C15.9743 59.339 16.0883 59.2403 16.3372 58.9911C16.5483 58.7802 16.7412 58.5361 16.9785 58.3773V58.3773ZM15.5184 59.1545L15.5052 58.3227H16.3235L15.5184 59.1545ZM16.9651 56.6179L16.9785 57.8316H15.778L16.9651 56.6179ZM15.5052 57.3952V56.5767H16.2691C16.2286 56.637 15.5516 57.3611 15.5052 57.3952ZM16.9785 54.8304V56.0855H15.778C15.8658 55.9542 15.9456 55.8903 16.0651 55.7725C16.3014 55.5393 16.5794 55.0975 16.9785 54.8304ZM15.5184 55.6075L15.5052 54.776H16.3235L15.5184 55.6075ZM16.9651 53.0709L16.9785 54.2849H15.778L16.9651 53.0709ZM15.5052 53.8483V53.0297H16.2691C16.1517 53.2049 15.6904 53.7243 15.5052 53.8483ZM16.9785 51.2837V52.5386H15.778C15.8389 52.4476 16.9014 51.3351 16.9785 51.2837ZM15.5184 52.0608L15.5052 51.2291H16.3235L15.5184 52.0608ZM16.9651 49.5242L16.9785 50.7379H15.778L16.9651 49.5242ZM15.5184 50.3147L15.5052 49.483H16.3235L15.5184 50.3147ZM16.9651 47.7779L16.9785 48.9918H15.778L16.9651 47.7779ZM15.5184 48.5139L15.5052 47.6821H16.3235L15.5184 48.5139ZM16.9651 45.9772L16.9785 47.1912H15.778L16.9651 45.9772ZM15.5184 46.7678L15.5052 45.9361H16.3235L15.5184 46.7678ZM16.9651 44.2312L16.9785 45.4451H15.778L16.9651 44.2312V44.2312ZM15.5182 44.9671L15.5052 44.19H16.2691L15.5182 44.9671ZM16.9785 42.4437V43.6988H15.778C15.9784 43.3994 16.6905 42.6366 16.9785 42.4437ZM15.5184 43.2208L15.5052 42.3891H16.3235L15.5184 43.2208ZM16.9651 40.6844L16.9785 41.8982H15.778L16.9651 40.6844ZM15.5052 41.4616V40.643H16.2691C16.2264 40.707 15.5514 41.4306 15.5052 41.4616ZM16.9785 38.897V40.1521H15.778C15.9261 39.931 16.1538 39.7699 16.3467 39.5201C16.4948 39.3283 16.7949 39.0198 16.9785 38.897ZM15.5184 39.6741L15.5052 38.8424H16.3235L15.5184 39.6741ZM16.9651 37.1375L16.9785 38.3512H15.778L16.9651 37.1375ZM15.5052 37.9146V37.0963H16.2691C16.1206 37.3179 15.7211 37.7702 15.5052 37.9146ZM16.9785 35.35V36.6051H15.778C15.8317 36.5248 16.9152 35.3923 16.9785 35.35ZM15.5184 36.1272L15.5052 35.2954H16.3235L15.5184 36.1272ZM16.9651 33.5905L16.9785 34.8045H15.778L16.9651 33.5905ZM15.5184 34.3811L15.5052 33.5494H16.3235L15.5184 34.3811ZM16.9651 31.8445L16.9785 33.0582H15.778L16.9651 31.8445ZM15.5184 32.5804L15.5052 31.7487H16.3235L15.5184 32.5804ZM16.9785 30.057V31.3121H15.778C15.8414 31.0739 16.1631 30.8451 16.3372 30.671C16.5483 30.4599 16.7412 30.216 16.9785 30.057V30.057ZM9.50284 27.4226H12.9074L12.9115 30.0029L12.9404 30.2058L9.51216 30.2063L9.49965 30.0026L9.50284 27.4226ZM15.5184 30.8344L15.5052 30.0026H16.3235L15.5184 30.8344ZM16.9651 28.2975L16.9785 29.5115H15.778L16.9651 28.2975ZM15.5182 29.0335L15.5052 28.2563H16.2691L15.5182 29.0335ZM33.2393 26.5649L34.0164 27.3156L33.2393 27.3288V26.5649ZM31.4386 26.5103L32.2704 27.3156L31.4386 27.3288V26.5103ZM29.6925 26.5649L30.4697 27.3156L29.6925 27.3288V26.5649ZM27.8917 26.5103L28.7234 27.3156L27.8917 27.3288V26.5103ZM26.1456 26.5649L26.9227 27.3156L26.1456 27.3288V26.5649ZM24.3449 26.5103L25.1767 27.3156L24.3449 27.3288V26.5103ZM22.5989 26.5649C22.6987 26.6318 23.3564 27.2378 23.4172 27.3288H22.5989V26.5649ZM20.798 26.5649C21.0005 26.6188 21.0833 26.7676 21.2209 26.9059C21.3679 27.0536 21.5062 27.1639 21.6165 27.3288H20.798V26.5649ZM19.64 27.0984L19.8825 27.3165L19.4339 27.3288L19.64 27.0984V27.0984ZM17.4694 26.7285L18.0828 27.3159L17.4694 27.3288V26.7285V26.7285ZM15.5052 26.5103L16.3369 27.3156L15.5052 27.3288V26.5103ZM13.7589 26.5649L14.536 27.3156L13.7589 27.3288V26.5649ZM12.0674 26.2919L13.0077 27.2617L10.9761 27.2742C11.1645 27.1104 11.3219 26.9548 11.5073 26.7687C11.6243 26.6511 11.6388 26.645 11.7712 26.5417C11.9052 26.437 11.9394 26.3777 12.0674 26.2919V26.2919ZM20.3616 26.4011V27.0561C20.1496 26.9994 20.158 26.9027 19.9797 26.7831C20.0691 26.6495 20.2001 26.4443 20.3616 26.4011ZM19.0519 26.9469V26.5649C19.1818 26.6518 19.1088 26.6309 19.2703 26.6739C19.221 26.8581 19.1921 26.8495 19.0519 26.9469ZM19.3693 26.1379L19.8705 26.1283L19.61 26.4136L19.3693 26.1379ZM11.5217 26.0737C11.2812 26.4327 10.5241 26.8479 10.4347 27.2481C10.434 27.2519 10.4342 27.2663 10.4304 27.2742C10.1935 27.2742 9.95601 27.272 9.71919 27.2724C9.38999 27.2729 9.32288 27.3288 9.01166 27.3288L11.5217 26.0737ZM15.7234 25.9645C15.9859 25.7889 15.9748 25.8555 16.5965 25.8555C16.9312 25.8555 16.8147 26.7633 16.8147 27.1104C16.6002 26.9669 16.4452 26.7683 16.2553 26.5785C15.9579 26.281 15.8769 26.2569 15.7234 25.9645ZM33.2393 25.8555C34.7933 25.8555 34.3907 25.6829 35.3571 26.3026L36.8952 27.3288L34.9808 27.3334C34.5824 27.3254 34.4541 27.0431 33.9077 26.4966L33.2393 25.8555V25.8555ZM31.4798 25.8687L32.7481 25.8555V27.1104L31.4798 25.8687V25.8687ZM29.7337 25.8687L30.9474 25.8555V27.0561L29.7337 25.8687ZM27.9331 25.8687L29.2014 25.8555V27.1104L27.9331 25.8687V25.8687ZM26.1868 25.8687L27.4007 25.8555V27.0561L26.1868 25.8687ZM24.3995 25.8555H25.6547V27.0561L25.0129 26.4971C24.8029 26.2846 24.5588 26.0933 24.3995 25.8555ZM22.64 25.8687L23.8538 25.8555V27.0561L22.64 25.8687ZM20.8526 25.8555H22.1077V27.0561C21.8695 26.8964 21.7116 26.6695 21.4946 26.4687C21.2623 26.2539 21.0321 26.1235 20.8526 25.8555ZM17.3059 25.8555H18.5607V27.0561C18.4889 27.0078 17.3504 25.9163 17.3059 25.8555ZM13.8001 25.8687L15.014 25.8555V27.0561L13.8001 25.8687ZM12.2724 25.8687L13.2677 25.8555V26.8377L12.2724 25.8687V25.8687ZM16.5419 25.2552V25.3644H16.3781C16.4641 25.2406 16.3883 25.3007 16.5419 25.2552ZM9.44823 26.5103L11.8343 24.2037C11.9826 24.061 12.0695 24.026 12.2185 23.8786C12.4408 23.6586 12.6423 23.4258 12.8726 23.2231L13.5817 22.5677C13.7955 22.3525 14.8227 21.3731 15.014 21.2719V25.3644C14.3836 25.3644 12.1168 25.2636 11.7376 25.4165C11.1834 25.6396 9.82042 26.4236 9.44823 26.5103ZM15.7234 25.3644H15.5052V23.9457C15.836 24.1673 15.9625 24.5042 16.2691 24.7096C16.1147 24.9399 15.8009 25.0741 15.7234 25.3644ZM15.5052 22.254L16.0043 23.6702C15.8931 23.6037 15.5819 23.3355 15.532 23.2095C15.4558 23.017 15.5052 22.4922 15.5052 22.254V22.254ZM15.6688 20.9991L28.4054 24.2505C28.755 24.3386 32.4908 25.2704 32.6391 25.3644H17.0329C17.0037 25.0131 16.8172 24.585 16.7123 24.2662C16.539 23.7389 15.7113 21.3301 15.6688 20.9991V20.9991ZM14.632 19.9622V19.9076C14.632 19.6045 14.8125 19.4685 15.014 19.362V20.5079C14.8125 20.4012 14.632 20.2656 14.632 19.9622ZM15.1232 19.3074C16.1238 19.3074 16.0771 20.4394 15.4506 20.4533C15.3703 20.1091 15.1328 19.6557 15.1232 19.3074ZM14.9048 20.6717C14.6427 20.8471 12.6132 22.8783 12.2697 23.1656L8.39536 26.8215C8.08869 27.0779 7.85892 27.3347 7.61254 27.4574C7.39891 27.5636 7.11613 27.6512 6.9926 27.8198H9.33903V30.33H13.0496V27.8198H15.014V61.7605H17.4694V27.8198H38.5323C38.4875 27.7809 38.4743 27.7681 38.4117 27.7222L37.9865 27.4378C37.7959 27.3106 37.6382 27.2001 37.4237 27.0733L35.171 25.6153C34.8821 25.4206 34.9018 25.4074 34.5388 25.32C30.3889 24.3236 25.9918 23.1158 21.8022 22.0686L16.5854 20.7372C16.3438 20.6767 16.0269 20.568 15.778 20.5625C15.9495 20.3064 16.278 19.8832 15.8437 19.4055C15.1751 18.6697 13.9869 19.6776 14.7112 20.4834C14.8407 20.6274 14.784 20.5068 14.9048 20.6717V20.6717Z" fill="#727376"/>
<path id="Vector_32" fill-rule="evenodd" clip-rule="evenodd" d="M9.49965 30.0026L9.51216 30.2062L12.9404 30.2058L12.9115 30.0028L12.9074 27.4225H9.50283L9.49965 30.0026Z" fill="#4B4C4E"/>
</g>
<g id="Group_6">
<path id="Vector_33" fill-rule="evenodd" clip-rule="evenodd" d="M35.8908 45.4585H32.5254V42.4473H35.8908V45.4585ZM38.5478 39.7904H30.2226V47.5841H38.5478V39.7904Z" fill="#6B809B" stroke="#373435" stroke-width="0.2" stroke-miterlimit="22.9256"/>
<path id="Vector_34" fill-rule="evenodd" clip-rule="evenodd" d="M34.7096 34.9747H33.1057C32.9431 34.9747 32.8102 34.8418 32.8102 34.6791V33.1478C32.8102 32.9854 32.9431 32.8523 33.1057 32.8523H34.7096C34.8723 32.8523 35.0051 32.9854 35.0051 33.1478V34.6791C35.0051 34.8418 34.8723 34.9747 34.7096 34.9747ZM33.025 35.3955H33.8387C33.8672 35.492 33.8915 35.5684 33.872 35.5532C33.5871 35.3296 34.5206 36.1131 34.0146 36.4161C33.5086 36.7191 33.151 36.0448 33.3428 36.3958C33.768 37.1737 35.0156 36.7064 34.1293 35.6763C34.1099 35.654 34.1395 35.527 34.17 35.3955H34.7681C34.9219 35.3955 35.0477 35.2697 35.0477 35.1159V33.0284C35.0477 32.8746 34.9219 32.7486 34.7681 32.7486H33.025C32.871 32.7486 32.7451 32.8746 32.7451 33.0284V35.1159C32.7451 35.2697 32.871 35.3955 33.025 35.3955V35.3955Z" fill="#6B809B" stroke="#373435" stroke-width="0.2" stroke-miterlimit="22.9256"/>
<path id="Vector_35" d="M33.2154 27.5784V32.8523" stroke="#373435" stroke-width="0.2" stroke-miterlimit="22.9256"/>
<path id="Vector_36" d="M34.9856 27.5784L35.0054 33.1478" stroke="#373435" stroke-width="0.2" stroke-miterlimit="22.9256"/>
<path id="Vector_37" d="M30.2226 39.7904L33.4768 36.5774L37.6621 39.7904" stroke="#373435" stroke-width="0.2" stroke-miterlimit="22.9256"/>
</g>
</g>
<path id="Vector_38" fill-rule="evenodd" clip-rule="evenodd" d="M37.5875 58.9607L38.2852 58.9593C38.515 58.5059 38.8474 57.9781 39.0778 57.4207L38.2461 57.3898C38.2263 57.6721 38.2645 57.5431 38.1034 57.8386C38.0393 57.9565 37.9861 58.04 37.9201 58.1626C37.762 58.457 37.6298 58.6114 37.5875 58.9607V58.9607Z" fill="#C70506"/>
<path id="Vector_39" fill-rule="evenodd" clip-rule="evenodd" d="M36.0164 58.7152L36.0066 58.9625L36.2996 58.9174L36.6977 58.929L37.4769 57.4337L36.6156 57.4203C36.5812 57.9032 36.215 58.2709 36.0164 58.7152V58.7152Z" fill="#C70506"/>
</g>
<g id="Group_7">
<g id="Group_8">
<path id="Vector_40" d="M105.429 57.5005C107.965 57.5005 110.021 55.4446 110.021 52.9085C110.021 50.3723 107.965 48.3164 105.429 48.3164C102.893 48.3164 100.837 50.3723 100.837 52.9085C100.837 55.4446 102.893 57.5005 105.429 57.5005Z" fill="#92AB2A"/>
<path id="Vector_41" d="M102.322 61.3287C103.447 61.3287 104.359 60.4169 104.359 59.2921C104.359 58.1673 103.447 57.2555 102.322 57.2555C101.198 57.2555 100.286 58.1673 100.286 59.2921C100.286 60.4169 101.198 61.3287 102.322 61.3287Z" fill="#92AB2A"/>
<path id="Vector_42" d="M109.674 61.5528C109.961 61.5528 110.193 61.3204 110.193 61.0339C110.193 60.7473 109.961 60.5149 109.674 60.5149C109.388 60.5149 109.155 60.7473 109.155 61.0339C109.155 61.3204 109.388 61.5528 109.674 61.5528Z" fill="#92AB2A"/>
<path id="Vector_43" fill-rule="evenodd" clip-rule="evenodd" d="M105.123 66.914L105.636 66.9907C105.602 62.4974 105.716 57.885 105.533 53.5109L105.385 53.6892C105.298 58.0975 105.21 62.5058 105.123 66.914V66.914Z" fill="#A67707"/>
<path id="Vector_44" fill-rule="evenodd" clip-rule="evenodd" d="M105.422 55.5134L105.477 55.765C105.987 55.6032 106.478 55.2884 106.968 55.1084L106.941 55.0923C106.435 55.2326 105.928 55.373 105.422 55.5134Z" fill="#A67707"/>
<path id="Vector_45" fill-rule="evenodd" clip-rule="evenodd" d="M105.526 56.682L105.427 57.1022C104.491 56.4256 103.591 55.4826 102.693 54.7876L102.743 54.7785C103.671 55.4128 104.599 56.0473 105.526 56.682Z" fill="#A67707"/>
<path id="Vector_46" fill-rule="evenodd" clip-rule="evenodd" d="M105.51 60.6423L105.41 61.0848C104.475 60.6166 103.6 59.9826 102.702 59.4875L102.726 59.359C103.654 59.7867 104.582 60.2146 105.51 60.6423V60.6423Z" fill="#A67707"/>
<path id="Vector_47" fill-rule="evenodd" clip-rule="evenodd" d="M105.485 62.3918L105.627 62.8343C106.963 62.3661 108.213 61.732 109.495 61.237L109.46 61.1085C108.135 61.5362 106.81 61.9641 105.485 62.3918V62.3918Z" fill="#A67707"/>
</g>
<g id="Group_9">
<path id="Vector_48" d="M154.231 52.7924C156.767 52.7924 158.823 50.7365 158.823 48.2004C158.823 45.6642 156.767 43.6083 154.231 43.6083C151.695 43.6083 149.639 45.6642 149.639 48.2004C149.639 50.7365 151.695 52.7924 154.231 52.7924Z" fill="#92AB2A"/>
<path id="Vector_49" d="M151.124 56.6206C152.249 56.6206 153.161 55.7088 153.161 54.584C153.161 53.4592 152.249 52.5474 151.124 52.5474C149.999 52.5474 149.087 53.4592 149.087 54.584C149.087 55.7088 149.999 56.6206 151.124 56.6206Z" fill="#92AB2A"/>
<path id="Vector_50" d="M158.476 56.8447C158.763 56.8447 158.995 56.6124 158.995 56.3258C158.995 56.0392 158.763 55.8068 158.476 55.8068C158.189 55.8068 157.957 56.0392 157.957 56.3258C157.957 56.6124 158.189 56.8447 158.476 56.8447Z" fill="#92AB2A"/>
<path id="Vector_51" fill-rule="evenodd" clip-rule="evenodd" d="M153.925 62.2059L154.438 62.2826C154.403 57.7893 154.518 53.1769 154.334 48.8028L154.187 48.9811C154.099 53.3894 154.012 57.7977 153.925 62.2059V62.2059Z" fill="#A67707"/>
<path id="Vector_52" fill-rule="evenodd" clip-rule="evenodd" d="M154.224 50.8053L154.278 51.0569C154.789 50.8951 155.28 50.5803 155.77 50.4003L155.743 50.3842C155.237 50.5245 154.73 50.6649 154.224 50.8053Z" fill="#A67707"/>
<path id="Vector_53" fill-rule="evenodd" clip-rule="evenodd" d="M154.328 51.9739L154.228 52.3941C153.293 51.7175 152.393 50.7745 151.495 50.0795L151.544 50.0704C152.472 50.7047 153.4 51.3392 154.328 51.9739Z" fill="#A67707"/>
<path id="Vector_54" fill-rule="evenodd" clip-rule="evenodd" d="M154.311 55.9342L154.211 56.3767C153.276 55.9085 152.401 55.2745 151.503 54.7794L151.528 54.6509C152.456 55.0786 153.383 55.5065 154.311 55.9342V55.9342Z" fill="#A67707"/>
<path id="Vector_55" fill-rule="evenodd" clip-rule="evenodd" d="M154.287 57.6837L154.429 58.1262C155.765 57.658 157.015 57.0239 158.297 56.5289L158.262 56.4004C156.937 56.8281 155.612 57.256 154.287 57.6837V57.6837Z" fill="#A67707"/>
</g>
<g id="Group_10">
<path id="Vector_56" d="M163.751 56.9081C168.356 56.9081 172.089 53.1753 172.089 48.5705C172.089 43.9657 168.356 40.2328 163.751 40.2328C159.146 40.2328 155.413 43.9657 155.413 48.5705C155.413 53.1753 159.146 56.9081 163.751 56.9081Z" fill="#92AB2A"/>
<path id="Vector_57" d="M169.392 63.8589C171.434 63.8589 173.09 62.2034 173.09 60.1612C173.09 58.1189 171.434 56.4634 169.392 56.4634C167.35 56.4634 165.694 58.1189 165.694 60.1612C165.694 62.2034 167.35 63.8589 169.392 63.8589Z" fill="#92AB2A"/>
<path id="Vector_58" d="M156.043 64.266C156.563 64.266 156.985 63.8442 156.985 63.3239C156.985 62.8036 156.563 62.3818 156.043 62.3818C155.523 62.3818 155.101 62.8036 155.101 63.3239C155.101 63.8442 155.523 64.266 156.043 64.266Z" fill="#92AB2A"/>
<path id="Vector_59" fill-rule="evenodd" clip-rule="evenodd" d="M164.307 74.0004L163.375 74.1392C163.438 65.9811 163.23 57.6066 163.563 49.6645L163.831 49.988C163.99 57.9922 164.148 65.9963 164.307 74.0004V74.0004Z" fill="#A67707"/>
<path id="Vector_60" fill-rule="evenodd" clip-rule="evenodd" d="M163.764 53.3002L163.665 53.7568C162.738 53.4633 161.846 52.8916 160.956 52.5647L161.006 52.5356C161.925 52.7904 162.844 53.0454 163.764 53.3002V53.3002Z" fill="#A67707"/>
<path id="Vector_61" fill-rule="evenodd" clip-rule="evenodd" d="M163.574 55.4219L163.756 56.1852C165.454 54.9564 167.088 53.2443 168.719 51.9825L168.628 51.9657C166.944 53.1178 165.259 54.2698 163.574 55.4219V55.4219Z" fill="#A67707"/>
<path id="Vector_62" fill-rule="evenodd" clip-rule="evenodd" d="M163.605 62.6127L163.786 63.4162C165.484 62.5661 167.073 61.4147 168.703 60.5163L168.659 60.2829C166.974 61.0596 165.29 61.836 163.605 62.6127Z" fill="#A67707"/>
<path id="Vector_63" fill-rule="evenodd" clip-rule="evenodd" d="M163.65 65.7893L163.391 66.5928C160.965 65.7427 158.697 64.5913 156.368 63.6926L156.431 63.4592C158.837 64.2359 161.244 65.0126 163.65 65.7893Z" fill="#A67707"/>
</g>
<g id="Group_11">
<path id="Vector_64" d="M135.599 8.45316H119.527V68.6927H135.599V8.45316Z" fill="#6B809B"/>
<path id="Vector_65" fill-rule="evenodd" clip-rule="evenodd" d="M135.534 30.1507C131.739 36.1096 123.853 42.2264 109.685 48.8292V68.6926H151.217V48.8292L148.743 28.1071L135.534 30.1507V30.1507Z" fill="#6D8EBD"/>
<g id="Group_12">
<g id="Group_13">
<path id="Vector_66" d="M146.027 35.9775H142.339V41.3137H146.027V35.9775Z" fill="#163C59"/>
</g>
</g>
<path id="Vector_67" d="M119.055 57.0603H115.367V62.3966H119.055V57.0603Z" fill="#163C59"/>
<path id="Vector_68" d="M119.055 46.5189H115.367V51.8551H119.055V46.5189Z" fill="#163C59"/>
<path id="Vector_69" d="M126.816 33.2475H123.128V38.5837H126.816V33.2475Z" fill="#163C59"/>
<path id="Vector_70" d="M126.816 22.706H123.128V28.0423H126.816V22.706Z" fill="#163C59"/>
<path id="Vector_71" d="M126.816 12.1646H123.128V17.5008H126.816V12.1646Z" fill="#163C59"/>
<path id="Vector_72" d="M128.66 57.0603H124.972V62.3966H128.66V57.0603Z" fill="#163C59"/>
<path id="Vector_73" d="M128.66 46.5189H124.972V51.8551H128.66V46.5189Z" fill="#163C59"/>
<path id="Vector_74" d="M136.422 35.9775H132.734V41.3137H136.422V35.9775Z" fill="#163C59"/>
<path id="Vector_75" d="M133.464 22.706H129.776V28.0423H133.464V22.706Z" fill="#163C59"/>
<path id="Vector_76" d="M133.464 12.1646H129.776V17.5008H133.464V12.1646Z" fill="#163C59"/>
<path id="Vector_77" d="M138.266 57.0603H134.578V62.3966H138.266V57.0603Z" fill="#163C59"/>
<path id="Vector_78" d="M144.183 57.0603H134.578V68.6927H144.183V57.0603Z" fill="#163C59"/>
<path id="Vector_79" d="M138.266 46.5189H134.578V51.8551H138.266V46.5189Z" fill="#163C59"/>
<path id="Vector_80" d="M147.871 57.0603H144.183V62.3966H147.871V57.0603Z" fill="#163C59"/>
<path id="Vector_81" d="M147.871 46.5189H144.183V51.8551H147.871V46.5189Z" fill="#163C59"/>
</g>
<g id="Group_14">
<path id="Vector_82" d="M114.949 61.6163C119.554 61.6163 123.287 57.8834 123.287 53.2786C123.287 48.6739 119.554 44.941 114.949 44.941C110.345 44.941 106.612 48.6739 106.612 53.2786C106.612 57.8834 110.345 61.6163 114.949 61.6163Z" fill="#92AB2A"/>
<path id="Vector_83" d="M120.59 68.5671C122.632 68.5671 124.288 66.9115 124.288 64.8693C124.288 62.8271 122.632 61.1715 120.59 61.1715C118.548 61.1715 116.892 62.8271 116.892 64.8693C116.892 66.9115 118.548 68.5671 120.59 68.5671Z" fill="#92AB2A"/>
<path id="Vector_84" d="M107.241 68.9741C107.762 68.9741 108.183 68.5523 108.183 68.032C108.183 67.5117 107.762 67.0899 107.241 67.0899C106.721 67.0899 106.299 67.5117 106.299 68.032C106.299 68.5523 106.721 68.9741 107.241 68.9741Z" fill="#92AB2A"/>
<path id="Vector_85" fill-rule="evenodd" clip-rule="evenodd" d="M115.505 78.7086L114.573 78.8473C114.636 70.6892 114.428 62.3147 114.761 54.3727L115.029 54.6962C115.188 62.7003 115.347 70.7044 115.505 78.7086Z" fill="#A67707"/>
<path id="Vector_86" fill-rule="evenodd" clip-rule="evenodd" d="M114.962 58.0084L114.863 58.465C113.936 58.1715 113.044 57.5998 112.155 57.2728L112.204 57.2437C113.123 57.4985 114.042 57.7536 114.962 58.0084V58.0084Z" fill="#A67707"/>
<path id="Vector_87" fill-rule="evenodd" clip-rule="evenodd" d="M114.772 60.13L114.954 60.8933C116.652 59.6646 118.287 57.9524 119.917 56.6907L119.827 56.6738C118.142 57.8259 116.457 58.978 114.772 60.13V60.13Z" fill="#A67707"/>
<path id="Vector_88" fill-rule="evenodd" clip-rule="evenodd" d="M114.803 67.3208L114.984 68.1244C116.683 67.2742 118.271 66.1228 119.901 65.2244L119.857 64.991C118.173 65.7677 116.488 66.5442 114.803 67.3208Z" fill="#A67707"/>
<path id="Vector_89" fill-rule="evenodd" clip-rule="evenodd" d="M114.848 70.4974L114.589 71.3009C112.164 70.4508 109.895 69.2994 107.567 68.4008L107.629 68.1674C110.036 68.944 112.442 69.7207 114.848 70.4974Z" fill="#A67707"/>
</g>
</g>
</g>
<g id="1439839167376">
<path id="Vector_90" fill-rule="evenodd" clip-rule="evenodd" d="M26.7748 2.03175C34.1247 2.03175 41.4745 4.87732 48.8241 2.03175C58.7657 -1.81733 71.6388 5.9882 81.9625 2.23832C87.6031 0.189451 95.1461 1.65478 102.478 2.25743C106.38 2.57775 109.877 1.68822 113.764 2.03175V14.1909C109.481 14.1909 106.287 14.0092 103.75 13.7562C93.701 12.7543 93.9367 10.6358 77.5162 14.2733C71.6767 15.5666 58.5903 10.8874 49.4284 13.6736C45.633 14.8277 30.8023 14.1909 26.7748 14.1909V2.03175V2.03175Z" fill="#00A652"/>
<path id="Vector_91" d="M30.9181 10.98C30.9181 10.1458 30.9181 9.31244 30.9181 8.47819C30.9181 7.64395 30.9181 6.81062 30.9181 5.97569C32.0579 5.99435 33.2054 6.04349 34.3529 6.11765C34.3529 6.39634 34.3529 6.67503 34.3529 6.95349C33.5421 6.90526 32.731 6.86499 31.9277 6.83564C31.9277 7.23149 31.9277 7.62712 31.9277 8.02274C32.6239 8.04412 33.3202 8.07188 34.0239 8.10851C34.0239 8.3881 34.0239 8.66656 34.0239 8.94548C33.3202 8.91226 32.6239 8.88633 31.9277 8.86676C31.9277 9.22053 31.9277 9.57315 31.9277 9.92691C31.9277 10.2807 31.9277 10.6342 31.9277 10.988C31.5912 10.9846 31.2545 10.9827 30.9181 10.98ZM36.0896 11.1381C35.7681 11.1229 35.4469 11.1085 35.1332 11.0944C35.1332 10.5002 35.1332 9.90644 35.1332 9.31244C35.1332 8.71934 35.1332 8.12466 35.1332 7.53066C35.4239 7.55113 35.7222 7.57343 36.0207 7.59572C36.0207 7.76293 36.0207 7.93083 36.0207 8.09781C36.1736 7.87168 36.3114 7.72517 36.4338 7.66101C36.556 7.59663 36.6941 7.57161 36.847 7.58344C37.0688 7.60027 37.2753 7.67444 37.4819 7.8057C37.3825 8.06733 37.2831 8.33009 37.1837 8.59172C37.0228 8.4791 36.8697 8.41813 36.7321 8.40858C36.6022 8.39948 36.4857 8.4245 36.3879 8.49162C36.2944 8.556 36.2272 8.68272 36.1736 8.86767C36.1201 9.0524 36.0896 9.44643 36.0896 10.0466C36.0896 10.411 36.0896 10.7746 36.0896 11.1381V11.1381ZM39.9912 10.2154C40.3047 10.2761 40.6262 10.3369 40.9474 10.3949C40.825 10.7227 40.6326 10.9682 40.3661 11.1363C40.1048 11.3012 39.7692 11.3809 39.3715 11.3668C38.7441 11.3445 38.2743 11.1297 37.9715 10.7175C37.731 10.3901 37.6118 9.9806 37.6118 9.49375C37.6118 8.91499 37.7724 8.47182 38.0864 8.16652C38.3999 7.86099 38.7978 7.72653 39.2796 7.75565C39.8149 7.78796 40.2374 7.97405 40.5495 8.32554C40.704 8.49912 40.8248 8.71593 40.8939 8.97574C40.9624 9.23372 41.0009 9.53675 41.0009 9.88323C40.1976 9.86003 39.3945 9.82681 38.5987 9.78859C38.6064 10.06 38.6852 10.2734 38.836 10.4333C38.9832 10.5894 39.1649 10.6745 39.3793 10.6827C39.5321 10.6886 39.6557 10.6563 39.7617 10.5807C39.8622 10.5091 39.9375 10.3851 39.9912 10.2154V10.2154ZM40.0447 9.2981C40.037 9.03557 39.9662 8.83287 39.8306 8.68818C39.6984 8.54713 39.5321 8.46818 39.3333 8.45681C39.1267 8.44498 38.9579 8.50754 38.8205 8.64518C38.6826 8.78327 38.6142 8.97824 38.6217 9.2294C39.096 9.25442 39.5704 9.27854 40.0447 9.2981V9.2981ZM43.8774 10.2236C44.1911 10.2566 44.5123 10.2868 44.8338 10.3173C44.7114 10.6531 44.5187 10.9131 44.2523 11.1024C43.9911 11.288 43.6556 11.3906 43.2579 11.4007C42.6307 11.4164 42.1604 11.2273 41.8579 10.8371C41.6174 10.5271 41.4982 10.1314 41.4982 9.6571C41.4982 9.09267 41.6599 8.65496 41.9725 8.33896C42.2872 8.02092 42.6841 7.8644 43.166 7.85302C43.7015 7.84028 44.1238 7.98384 44.4359 8.2987C44.5904 8.45431 44.7112 8.65883 44.7801 8.91044C44.8488 9.16069 44.8873 9.45804 44.8873 9.8027C44.0839 9.85366 43.2807 9.88323 42.4851 9.89666C42.4928 10.1626 42.5711 10.3674 42.7224 10.5164C42.8693 10.6611 43.0513 10.7339 43.2654 10.7273C43.4185 10.7223 43.5423 10.6815 43.6481 10.6003C43.7488 10.5227 43.8239 10.3949 43.8774 10.2236V10.2236ZM43.9311 9.31335C43.9233 9.05354 43.8524 8.85994 43.7168 8.7264C43.5846 8.59649 43.4185 8.53188 43.2195 8.53803C43.0131 8.5444 42.8443 8.61924 42.7071 8.76211C42.5693 8.90567 42.5006 9.10086 42.5081 9.34633C42.9824 9.34178 43.4567 9.32859 43.9311 9.31335V9.31335Z" fill="#FFF212"/>
<path id="Vector_92" fill-rule="evenodd" clip-rule="evenodd" d="M47.6414 10.0641L48.2003 10.8073C49.1866 10.6699 50.1773 10.5423 51.1681 10.4379C51.1681 10.1546 51.1681 9.87254 51.1681 9.59021C50.3266 9.68849 49.4928 9.80451 48.6588 9.92873C48.6588 9.27216 48.6588 8.61492 48.6588 7.95744C48.6588 7.30019 48.6588 6.64272 48.6588 5.98547C48.3145 6.05964 47.9781 6.13175 47.6414 6.2041C47.6414 6.98488 47.6414 7.76543 47.6414 8.54621C47.6414 9.05194 47.6414 9.55813 47.6414 10.0641ZM51.8797 6.19887C51.8797 5.8997 51.8797 5.59963 51.8797 5.29933C52.1932 5.25474 52.5147 5.20924 52.8359 5.16374C52.8359 5.46723 52.8359 5.77094 52.8359 6.07465C52.5147 6.11674 52.1932 6.15769 51.8797 6.19887ZM51.8797 10.3655C51.8797 9.75355 51.8797 9.1409 51.8797 8.53006C51.8797 7.91808 51.8797 7.30543 51.8797 6.69368C52.1932 6.65523 52.5147 6.61496 52.8359 6.57583C52.8359 7.19577 52.8359 7.81639 52.8359 8.43542C52.8359 9.05536 52.8359 9.67507 52.8359 10.295C52.5147 10.3182 52.1932 10.3421 51.8797 10.3655ZM56.9748 7.41372C56.6611 7.4806 56.3473 7.55022 56.0339 7.62347C56.0031 7.426 55.9347 7.27904 55.8195 7.18394C55.7053 7.08976 55.5593 7.04562 55.3834 7.0554C55.1386 7.06883 54.9496 7.16779 54.8097 7.35024C54.6666 7.53679 54.5956 7.82799 54.5956 8.23454C54.5956 8.68453 54.6648 8.99871 54.8097 9.17661C54.9555 9.35588 55.1464 9.43938 55.3912 9.43028C55.5748 9.42345 55.7185 9.36339 55.8348 9.2526C55.9556 9.13771 56.0339 8.94889 56.0796 8.67816C56.3933 8.72457 56.707 8.77394 57.0283 8.82581C56.9288 9.28832 56.7434 9.63753 56.462 9.87959C56.1851 10.1178 55.8118 10.2406 55.3452 10.2556C54.8172 10.2727 54.3972 10.1201 54.083 9.78768C53.77 9.45667 53.6087 8.98733 53.6087 8.37468C53.6087 7.75383 53.77 7.25856 54.083 6.88569C54.3972 6.51122 54.8249 6.29555 55.3682 6.26234C55.8041 6.23572 56.1572 6.31899 56.4163 6.50781C56.6774 6.69846 56.8599 7.00194 56.9748 7.41372V7.41372ZM59.8053 8.92841C60.1191 8.99803 60.4403 9.06764 60.7615 9.13748C60.6391 9.5099 60.4417 9.79155 60.18 9.97696C59.9141 10.1658 59.5835 10.2486 59.1856 10.2404C58.5507 10.2274 58.0832 10.0043 57.7856 9.56268C57.5476 9.20937 57.4261 8.76393 57.4261 8.22635C57.4261 7.58593 57.589 7.08316 57.9003 6.71256C58.2085 6.3456 58.6044 6.16474 59.0862 6.16952C59.6218 6.17452 60.0515 6.37836 60.3639 6.77581C60.5181 6.97214 60.6318 7.22057 60.7003 7.51632C60.7693 7.81252 60.8152 8.15855 60.8075 8.55417C60.0042 8.52278 59.2086 8.50139 58.413 8.49161C58.4205 8.79623 58.497 9.03488 58.6424 9.20619C58.7877 9.3775 58.9716 9.46304 59.1931 9.46781C59.3462 9.471 59.467 9.42914 59.5681 9.34633C59.6734 9.26033 59.7519 9.12224 59.8053 8.92841ZM59.8588 7.88601C59.8513 7.58593 59.7819 7.35661 59.6445 7.19827C59.5066 7.03948 59.3385 6.95963 59.1474 6.95712C58.9408 6.95439 58.765 7.0347 58.6271 7.19736C58.4895 7.36003 58.4283 7.58229 58.4283 7.8628C58.9026 7.86826 59.377 7.87531 59.8588 7.88601V7.88601ZM64.8927 10.4888C64.5715 10.4574 64.25 10.4297 63.9365 10.4047C63.9365 10.0761 63.9365 9.74741 63.9365 9.41958C63.9365 9.09107 63.9365 8.76211 63.9365 8.4336C63.9365 8.01545 63.9101 7.74609 63.8676 7.61801C63.8262 7.49311 63.7604 7.39119 63.6687 7.31362C63.5768 7.23581 63.4622 7.19099 63.332 7.1778C63.1639 7.16074 63.017 7.19441 62.8807 7.28313C62.7494 7.36844 62.6618 7.49584 62.6129 7.65032C62.5626 7.80934 62.5365 8.10395 62.5365 8.53802C62.5365 8.83104 62.5365 9.12497 62.5365 9.41685C62.5365 9.70987 62.5365 10.0029 62.5365 10.2959C62.215 10.2761 61.8938 10.2575 61.5801 10.2377C61.5801 9.58839 61.5801 8.93819 61.5801 8.28891C61.5801 7.63962 61.5801 6.9892 61.5801 6.33923C61.8708 6.36062 62.1693 6.382 62.4675 6.40339C62.4675 6.59449 62.4675 6.78468 62.4675 6.97487C62.7813 6.56059 63.1869 6.37836 63.6687 6.4275C63.8753 6.44866 64.0746 6.50918 64.25 6.60882C64.4265 6.70915 64.5567 6.82563 64.6479 6.95985C64.74 7.09522 64.8044 7.24491 64.8392 7.41099C64.8731 7.57365 64.8927 7.80388 64.8927 8.10054C64.8927 8.49866 64.8927 8.89724 64.8927 9.29469C64.8927 9.69281 64.8927 10.0912 64.8927 10.4888V10.4888ZM69.0161 8.38446C68.7026 8.38696 68.3889 8.3906 68.0752 8.39333C68.0445 8.19495 67.9762 8.0382 67.8611 7.92263C67.7469 7.80797 67.6009 7.73654 67.425 7.70924C67.1802 7.67125 66.9907 7.73085 66.8512 7.87964C66.7079 8.03252 66.6369 8.30938 66.6369 8.71479C66.6369 9.16683 66.7056 9.49398 66.8512 9.70009C66.9962 9.90552 67.1879 10.0211 67.4325 10.0527C67.6163 10.0766 67.7601 10.04 67.8764 9.95011C67.9969 9.85684 68.0752 9.68576 68.1211 9.43119C68.4346 9.53561 68.7486 9.64026 69.0698 9.74559C68.9704 10.1717 68.7786 10.4768 68.5036 10.6638C68.2278 10.8517 67.8534 10.9172 67.3868 10.8603C66.859 10.796 66.4381 10.5689 66.1244 10.1833C65.8109 9.79746 65.65 9.29014 65.65 8.66474C65.65 8.03252 65.8095 7.56068 66.1244 7.24923C66.437 6.94006 66.8665 6.83632 67.4098 6.92414C67.8456 6.99443 68.1974 7.153 68.4578 7.39665C68.7177 7.63962 68.9015 7.96722 69.0161 8.38446V8.38446ZM71.8469 10.3064C72.1604 10.4208 72.4819 10.5352 72.8031 10.6485C72.6807 10.9611 72.4825 11.1834 72.2216 11.3122C71.9547 11.4441 71.6251 11.4737 71.227 11.4104C70.5925 11.3094 70.1247 11.0312 69.8272 10.5673C69.5894 10.1972 69.4675 9.75537 69.4675 9.24373C69.4675 8.63539 69.6245 8.18289 69.9341 7.90307C70.2442 7.62302 70.6464 7.54066 71.1276 7.64759C71.6636 7.76657 72.0924 8.04457 72.4052 8.46477C72.559 8.67134 72.6732 8.91499 72.7419 9.19186C72.8106 9.4685 72.8566 9.78586 72.8491 10.136C72.0458 9.97241 71.2502 9.81634 70.4544 9.67052C70.4621 9.95557 70.5383 10.1899 70.6839 10.3735C70.8289 10.5559 71.0131 10.6647 71.2349 10.7022C71.3878 10.7279 71.5084 10.7063 71.6096 10.6469C71.715 10.5851 71.7932 10.4736 71.8469 10.3064V10.3064ZM71.9004 9.37044C71.8926 9.09904 71.8235 8.87745 71.6861 8.70501C71.5484 8.53211 71.3799 8.42336 71.189 8.38446C70.9822 8.34214 70.8056 8.38105 70.6687 8.50503C70.5304 8.63016 70.4696 8.82649 70.4696 9.08812C70.9442 9.17843 71.4183 9.26943 71.9004 9.37044V9.37044ZM75.5802 12.0929C75.5802 11.339 75.5802 10.5853 75.5802 9.83227C75.5802 9.07833 75.5802 8.32463 75.5802 7.56978C76.7277 7.73335 77.8752 7.75133 79.0227 7.66465C79.0227 7.91467 79.0227 8.16378 79.0227 8.4129C78.2119 8.48183 77.4009 8.50503 76.5976 8.47387C76.5976 8.8274 76.5976 9.18207 76.5976 9.53493C77.2937 9.56086 77.9899 9.54994 78.6938 9.5008C78.6938 9.75014 78.6938 9.99925 78.6938 10.2477C77.9899 10.3002 77.2937 10.3127 76.5976 10.2905C76.5976 10.6067 76.5976 10.9236 76.5976 11.2398C76.5976 11.556 76.5976 11.8723 76.5976 12.1894C76.2534 12.1696 75.9167 12.1384 75.5802 12.0929V12.0929ZM79.6195 10.3619C79.6195 10.0805 79.6998 9.7986 79.8565 9.50899C80.0135 9.21893 80.2317 8.97505 80.5222 8.7819C80.8129 8.5883 81.1273 8.44839 81.4861 8.36216C82.0373 8.22976 82.4798 8.26821 82.8327 8.48706C83.1835 8.70501 83.3605 9.05081 83.3605 9.53129C83.3605 10.0172 83.1839 10.4679 82.8249 10.8863C82.4728 11.2967 82.0296 11.5731 81.4938 11.7016C81.1576 11.7819 80.8436 11.7856 80.5452 11.7123C80.2394 11.6375 80.0119 11.4876 79.8565 11.2605C79.6984 11.0285 79.6195 10.7291 79.6195 10.3619ZM80.6063 10.2279C80.6063 10.545 80.6878 10.7764 80.8589 10.9068C81.032 11.0389 81.2413 11.071 81.4938 11.0121C81.7384 10.955 81.9525 10.8171 82.121 10.6039C82.2889 10.3919 82.3736 10.1253 82.3736 9.80269C82.3736 9.49011 82.2892 9.27171 82.121 9.14727C81.9527 9.0226 81.7384 8.99188 81.4938 9.04899C81.2413 9.10791 81.0347 9.24009 80.8589 9.45098C80.6905 9.65254 80.6063 9.91076 80.6063 10.2279ZM84.1103 10.9263C84.1103 10.1879 84.1103 9.45007 84.1103 8.71138C84.1103 7.97359 84.1103 7.23581 84.1103 6.49621C84.4238 6.40066 84.745 6.30329 85.0665 6.2041C85.0665 6.94643 85.0665 7.68876 85.0665 8.42996C85.0665 9.17138 85.0665 9.91349 85.0665 10.6549C84.745 10.7459 84.4238 10.8371 84.1103 10.9263V10.9263ZM86.0534 10.3824C86.0534 9.63571 86.0534 8.88814 86.0534 8.14149C86.0534 7.39483 86.0534 6.64818 86.0534 5.90039C86.3669 5.80666 86.6883 5.71111 87.0096 5.61465C87.0096 6.36858 87.0096 7.12161 87.0096 7.87531C87.0096 8.62834 87.0096 9.38114 87.0096 10.1342C86.6883 10.2138 86.3669 10.2984 86.0534 10.3824ZM87.7746 8.26024C87.7746 7.96995 87.8488 7.66783 88.0042 7.35912C88.1623 7.04448 88.3878 6.78513 88.6774 6.57037C88.9613 6.35994 89.2814 6.21297 89.6338 6.14427C90.1841 6.03711 90.6402 6.13471 90.9876 6.43183C91.3364 6.73031 91.5079 7.15004 91.5079 7.67079C91.5079 8.19609 91.3323 8.64404 90.9801 9.01509C90.6286 9.385 90.1836 9.60067 89.6413 9.6778C89.3114 9.72466 88.999 9.71442 88.6926 9.63298C88.3948 9.55381 88.1623 9.40502 88.0042 9.1732C87.8488 8.94525 87.7746 8.63994 87.7746 8.26024V8.26024ZM88.7538 8.08166C88.7538 8.41403 88.8409 8.64813 89.0138 8.79259C89.1851 8.93569 89.3883 8.98779 89.6413 8.94798C89.8934 8.90839 90.0997 8.79191 90.2685 8.58898C90.4362 8.38764 90.521 8.11464 90.521 7.77089C90.521 7.43669 90.4375 7.1894 90.2685 7.03311C90.1008 6.87795 89.8936 6.82426 89.6413 6.87136C89.3888 6.91868 89.1838 7.0504 89.0138 7.26266C88.8398 7.48015 88.7538 7.75019 88.7538 8.08166ZM92.9309 9.38296C92.7396 8.79441 92.541 8.21019 92.357 7.63052C92.1738 7.05358 91.9745 6.4837 91.7909 5.91768C92.0969 5.89242 92.4029 5.87627 92.7166 5.8649C92.8238 6.24619 92.9464 6.62861 93.0533 7.01172C93.1607 7.39734 93.2829 7.78431 93.3975 8.17357C93.497 7.78864 93.6043 7.4028 93.7035 7.01787C93.8032 6.63225 93.9178 6.24619 94.025 5.85944C94.331 5.86763 94.637 5.88264 94.9507 5.8997C95.0501 6.29806 95.1495 6.69641 95.2489 7.09658C95.3483 7.49653 95.4478 7.89943 95.5549 8.30233C95.6696 7.9199 95.7847 7.53679 95.8991 7.15459C96.014 6.77148 96.1287 6.38815 96.2436 6.00504C96.5571 6.03984 96.8708 6.07647 97.192 6.11492C96.9932 6.69459 96.7943 7.27426 96.603 7.85393C96.4119 8.43269 96.2128 9.01236 96.0215 9.59203C95.7155 9.55904 95.4095 9.52856 95.1036 9.49989C94.9964 9.10609 94.8895 8.71206 94.7898 8.32008C94.6909 7.93082 94.5833 7.54043 94.4838 7.15004C94.3767 7.52792 94.2698 7.90489 94.1701 8.28254C94.0707 8.66042 93.9638 9.03738 93.8641 9.41253C93.5504 9.39911 93.2369 9.38933 92.9309 9.38296V9.38296ZM102.035 10.4861C102.035 10.3057 102.035 10.1253 102.035 9.94397C101.905 10.1171 101.729 10.2445 101.515 10.3262C101.3 10.4078 101.071 10.4274 100.834 10.3896C100.589 10.3507 100.367 10.2616 100.176 10.1235C99.9846 9.9856 99.8387 9.81179 99.7548 9.60454C99.6706 9.3957 99.6249 9.11951 99.6249 8.77758C99.6249 8.39333 99.6249 8.00931 99.6249 7.62529C99.6249 7.24218 99.6249 6.85816 99.6249 6.47391C99.9386 6.52487 100.26 6.57674 100.581 6.6293C100.581 6.90798 100.581 7.18758 100.581 7.46536C100.581 7.74405 100.581 8.02273 100.581 8.30051C100.581 8.81216 100.601 9.12929 100.635 9.24896C100.669 9.37135 100.736 9.47054 100.834 9.55449C100.927 9.6348 101.04 9.68894 101.186 9.71169C101.354 9.73808 101.499 9.71624 101.629 9.64663C101.759 9.57679 101.851 9.47851 101.897 9.3527C101.943 9.22598 101.966 8.90339 101.966 8.38264C101.966 7.87258 101.966 7.36185 101.966 6.85088C102.28 6.90002 102.601 6.94552 102.922 6.99102C102.922 7.59572 102.922 8.1995 102.922 8.80329C102.922 9.40616 102.922 10.0109 102.922 10.6137C102.624 10.5735 102.325 10.5307 102.035 10.4861V10.4861ZM103.878 7.11615C104.177 7.15277 104.475 7.18485 104.773 7.21261C104.773 7.39028 104.773 7.56796 104.773 7.74496C104.888 7.57433 105.05 7.44488 105.248 7.34933C105.448 7.25287 105.661 7.20919 105.906 7.22421C106.326 7.25014 106.686 7.426 106.977 7.76293C107.267 8.0994 107.421 8.56305 107.421 9.1525C107.421 9.75901 107.265 10.2243 106.969 10.5557C106.676 10.8833 106.319 11.0417 105.898 11.0157C105.699 11.0034 105.516 10.9518 105.355 10.8613C105.187 10.7664 105.018 10.6137 104.835 10.404C104.835 10.7056 104.835 11.0075 104.835 11.3097C104.835 11.6115 104.835 11.9134 104.835 12.2153C104.513 12.1848 104.192 12.15 103.878 12.1116C103.878 11.2792 103.878 10.4467 103.878 9.61432C103.878 8.78099 103.878 7.94857 103.878 7.11615V7.11615ZM104.827 8.973C104.827 9.38205 104.904 9.69008 105.064 9.90029C105.225 10.1107 105.424 10.2254 105.653 10.2395C105.875 10.2531 106.061 10.1774 106.212 10.0056C106.359 9.83705 106.434 9.54471 106.434 9.13566C106.434 8.75415 106.357 8.46841 106.204 8.27367C106.051 8.07893 105.86 7.97655 105.638 7.9629C105.401 7.94811 105.209 8.02182 105.056 8.18881C104.903 8.35648 104.827 8.61765 104.827 8.973Z" fill="#373435"/>
</g>
</g>
</svg>
